<svg width="100" height="100" viewBox="0 0 100 100" fill="none" xmlns="http://www.w3.org/2000/svg">
<path d="M59.5598 53.1905C58.5171 52.5647 57.1602 51.8681 55.9325 52.3712C54.9911 52.7582 54.3892 54.2354 53.778 54.9906C53.4637 55.3776 53.0895 55.439 52.6088 55.2442C49.0721 53.8324 46.361 51.4652 44.4089 48.2052C44.0786 47.6982 44.1372 47.2992 44.5367 46.8295C45.1266 46.1342 45.867 45.3443 46.0267 44.4062C46.1865 43.4681 45.7471 42.3726 45.3596 41.5372C44.8656 40.4697 44.313 38.9485 43.2464 38.3453C42.2663 37.7902 40.9747 38.1012 40.1011 38.8137C38.5938 40.044 37.8667 41.9709 37.888 43.8817C37.8947 44.4248 37.9599 44.9666 38.0878 45.4897C38.3914 46.7507 38.9733 47.9263 39.6271 49.0459C40.1198 49.8893 40.6564 50.7086 41.2343 51.4959C43.1265 54.0713 45.4808 56.309 48.2052 57.9824C49.5675 58.8177 51.0336 59.5516 52.5529 60.0547C54.256 60.6192 55.774 61.2063 57.6143 60.8553C59.5398 60.4884 61.4387 59.2941 62.203 57.4353C62.4294 56.8842 62.5425 56.2717 62.416 55.6899C62.1551 54.4876 60.5305 53.7723 59.5598 53.1905Z" fill="white"/>
<path d="M50.136 24.2739C36.1675 24.2739 24.8037 35.6617 24.8037 49.6596C24.8037 53.9403 25.8996 58.1597 27.9822 61.9227L24.3043 75.6711L38.0943 71.9694C41.8015 73.9844 45.9428 75.0452 50.136 75.0452C64.1044 75.0452 75.4683 63.6575 75.4683 49.6596C75.4683 35.6617 64.1044 24.2739 50.136 24.2739ZM50.136 70.2467C46.4634 70.2467 42.8362 69.2406 39.6483 67.3364L38.7801 66.8173L31.0768 68.8856L33.1302 61.2088L32.5975 60.3321C30.6321 57.0975 29.5934 53.4066 29.5934 49.6582C29.5934 38.3065 38.8094 29.0711 50.1373 29.0711C61.4652 29.0711 70.6812 38.3065 70.6812 49.6582C70.6812 61.01 61.4639 70.2467 50.136 70.2467Z" fill="white"/>
<path d="M49.8949 0C22.3828 0 0 22.4299 0 50C0 77.5701 22.3828 100 49.8949 100C77.4071 100 99.7912 77.5701 99.7912 50C99.7912 22.4286 77.4071 0 49.8949 0ZM49.8949 93.5855C25.9116 93.5855 6.39966 74.0325 6.39966 49.9987C6.39966 25.9634 25.9116 6.41044 49.8949 6.41044C73.8797 6.41044 93.3916 25.9634 93.3916 49.9987C93.3916 74.0325 73.8797 93.5855 49.8949 93.5855Z" fill="white"/>
</svg>
