<svg width="100" height="100" viewBox="0 0 100 100" fill="none" xmlns="http://www.w3.org/2000/svg">
<path d="M76.5479 43.4036C76.5479 36.9545 71.3293 31.7251 64.8936 31.7251H34.8989C28.4619 31.7251 23.2446 36.9532 23.2446 43.4036V56.594C23.2446 63.0444 28.4619 68.2725 34.8989 68.2725H64.8936C71.3306 68.2725 76.5479 63.0444 76.5479 56.594V43.4036ZM60.0531 50.3464L46.6385 56.9716C46.1151 57.2558 44.2841 56.8755 44.2841 56.2777V42.6777C44.2841 42.0733 46.1298 41.693 46.6531 41.9932L59.4712 48.9667C60.0079 49.2749 60.5964 50.0515 60.0531 50.3464Z" fill="white"/>
<path d="M49.8956 0C22.3831 0 0 22.4297 0 49.9993C0 77.569 22.3831 100 49.8956 100C77.4081 100 99.7912 77.569 99.7912 49.9993C99.7912 22.4283 77.4081 0 49.8956 0ZM49.8956 93.5856C25.9106 93.5856 6.39842 74.0329 6.39842 49.998C6.39842 25.9644 25.9106 6.4117 49.8956 6.4117C73.8807 6.4117 93.3928 25.9644 93.3928 49.998C93.3928 74.0329 73.8807 93.5856 49.8956 93.5856Z" fill="white"/>
</svg>
