<svg width="100" height="100" viewBox="0 0 100 100" fill="none" xmlns="http://www.w3.org/2000/svg">
<path d="M66.5233 36.2092C66.5233 37.8639 65.185 39.2049 63.5338 39.2049C61.8826 39.2049 60.5444 37.8639 60.5444 36.2092C60.5444 34.5546 61.8826 33.2135 63.5338 33.2135C65.185 33.2135 66.5233 34.5546 66.5233 36.2092ZM62.8015 49.636C62.8015 56.5735 57.1687 62.218 50.247 62.218C43.3239 62.218 37.6912 56.5735 37.6912 49.636C37.6912 42.6984 43.3239 37.0552 50.247 37.0552C57.17 37.0552 62.8015 42.6997 62.8015 49.636ZM58.2899 49.636C58.2899 45.1924 54.6813 41.5762 50.247 41.5762C45.8127 41.5762 42.204 45.1924 42.204 49.636C42.204 54.0808 45.8127 57.6957 50.247 57.6957C54.6813 57.6957 58.2899 54.0808 58.2899 49.636ZM75.6582 39.5292C75.6582 31.0544 68.8017 24.1836 60.3446 24.1836H39.4476C30.9905 24.1836 24.134 31.0544 24.134 39.5292V60.4713C24.134 68.9461 30.9905 75.8169 39.4476 75.8169H60.3446C68.803 75.8169 75.6582 68.9461 75.6582 60.4713V39.5292ZM70.6314 60.2404C70.6314 66.0611 65.9214 70.7795 60.1129 70.7795H39.6779C33.8694 70.7795 29.1595 66.0611 29.1595 60.2404V39.7601C29.1595 33.9394 33.8681 29.221 39.6779 29.221H60.1143C65.9228 29.221 70.6327 33.9394 70.6327 39.7601L70.6314 60.2404Z" fill="white"/>
<path d="M49.8956 0C22.3831 0 0 22.4299 0 50C0 77.5701 22.3831 100 49.8956 100C77.4081 100 99.7912 77.5701 99.7912 50C99.7912 22.4299 77.4081 0 49.8956 0ZM49.8956 93.5869C25.9119 93.5869 6.39974 74.0339 6.39974 50C6.39974 25.9661 25.9119 6.4118 49.8956 6.4118C73.8807 6.4118 93.3928 25.9648 93.3928 50C93.3928 74.0339 73.8807 93.5869 49.8956 93.5869Z" fill="white"/>
</svg>
