<svg width="227" height="460" viewBox="0 0 227 460" fill="none" xmlns="http://www.w3.org/2000/svg">
<path fill-rule="evenodd" clip-rule="evenodd" d="M11.2049 154.449C11.2049 105.651 56.9986 66.0934 113.495 66.0934C169.992 66.0934 215.785 105.651 215.785 154.449" fill="#BFEEEA"/>
<path d="M119.989 0H107.003V267.741H119.989V0Z" fill="#088F4A"/>
<path fill-rule="evenodd" clip-rule="evenodd" d="M37.3838 167.344C31.7514 159.57 31.1245 147.61 36.1299 139.837C42.3918 130.268 53.5792 125.486 63.5926 123.093C90.5058 117.711 82.6055 101.031 86.8317 81.5209C92.2293 103.048 132.311 102.947 158.18 111.731C172.264 116.514 186.971 126.085 191.977 138.637C195.106 147.01 196.982 164.951 183.841 167.342" fill="#FFCECE"/>
<path d="M184.906 135.244C189.509 141.818 194.177 160.462 182.593 163.015C180.043 163.576 179.068 165.507 179.248 167.418H193.236C199.44 161.319 199.61 150.59 197.866 142.166C194.679 126.72 180.038 116.034 165.838 109.873C151.915 103.835 136.459 100.165 121.85 96.1178C110.668 93.0227 101.026 90.4122 91.3526 81.6664C88.1131 78.736 82.4306 78.4663 82.3008 83.0075C82.066 91.2665 81.0519 94.7911 79.5733 103.279C77.7974 113.447 70.8411 116.659 61.0899 119.081C49.4704 121.957 38.765 127.872 32.0811 137.573C26.2538 146.02 27.0107 158.083 31.7614 166.967H42.182C42.107 166.356 41.8723 165.722 41.4402 165.08C34.6413 155.071 36.9018 143.495 46.0385 135.795C54.5708 128.598 66.0954 128.498 75.7841 123.696C88.3977 117.447 89.1796 104.553 89.9989 92.2592C94.4574 96.3684 100.17 99.3751 105.987 101.68C118.78 106.749 132.468 109.304 145.786 112.772C160.563 116.623 176.049 122.594 184.906 135.244Z" fill="#FFCECE"/>
<path d="M69.6971 103.58C77.6824 114.237 94.1725 110.142 105.477 107.687C116.238 105.346 126.453 103.32 137.636 103.432C141.267 103.491 144.829 103.957 148.321 104.823C154.296 105.945 154.63 109.395 149.33 115.175C140.666 117.385 131.366 118.308 122.474 119.024C106.559 120.308 91.2476 116.017 75.5768 114.199C65.1637 112.991 49.6128 111.805 43.4808 121.978C30.605 143.328 81.1269 142.326 89.9489 142.083C102.567 141.734 115.116 140.436 127.675 139.317C137.136 138.472 146.253 137.682 155.532 135.585C169.023 132.537 179.236 125.34 193.698 127.106C198.171 127.653 198.116 120.952 193.698 120.413C184.431 119.279 177.035 120.821 168.435 124.114C155.767 128.968 143.393 131.659 129.705 132.459C118.998 133.084 108.337 134.439 97.6194 135.055C84.0891 135.831 69.5848 136.535 56.3992 133.027C48.6861 130.977 46.4556 124.104 55.3675 121.253C62.8433 118.862 72.3323 120.427 79.923 121.422C94.4324 123.326 107.7 126.386 122.474 125.715C130.492 125.35 164.387 125.021 163.195 111.781C161.954 98.0125 144.335 96.8026 133.165 96.6904C124.068 96.5998 115.041 98.5352 106.272 100.618C98.7159 102.415 81.4816 107.861 75.7417 100.201C73.1416 96.7239 67.0595 100.06 69.6971 103.58Z" fill="#FF8FAE"/>
<path opacity="0.4" fill-rule="evenodd" clip-rule="evenodd" d="M142.923 154.449C142.923 105.651 56.9986 66.0934 113.495 66.0934C169.992 66.0934 215.785 105.651 215.785 154.449" fill="white"/>
<path fill-rule="evenodd" clip-rule="evenodd" d="M181.064 460H45.9311L12.5837 193.536H214.414L181.064 460Z" fill="#95E3DC"/>
<path fill-rule="evenodd" clip-rule="evenodd" d="M172.277 440.564H54.7156L25.6993 196.913H201.293L172.277 440.564Z" fill="#FFADAD"/>
<path opacity="0.4" fill-rule="evenodd" clip-rule="evenodd" d="M76.2512 460H45.9311L12.5837 193.536H42.9038L76.2512 460Z" fill="white"/>
<path d="M221.388 151.773H5.60255V173.191H221.388V151.773Z" fill="#D9D9D9"/>
<path d="M221.388 151.773H160.115V173.191H221.388V151.773Z" fill="#C5C5C5"/>
<path d="M227 170.513H0V199.965H227V170.513Z" fill="#C5C5C5"/>
<path d="M227 170.513H170.853V199.965H227V170.513Z" fill="#B1B1B1"/>
<path d="M145.631 330.862C163.391 313.895 163.391 286.386 145.631 269.418C127.872 252.451 99.078 252.451 81.3186 269.418C63.5591 286.386 63.559 313.895 81.3185 330.862C99.0779 347.829 127.872 347.829 145.631 330.862Z" fill="white"/>
<path d="M113.495 259.174C137.174 259.174 156.374 277.512 156.374 300.139C156.374 322.761 137.174 341.105 113.495 341.105C89.8139 341.105 70.6163 322.761 70.6163 300.139C70.6163 277.51 89.8164 259.174 113.495 259.174ZM113.495 254.208C86.9865 254.208 65.4185 274.813 65.4185 300.139C65.4185 325.465 86.9865 346.071 113.495 346.071C140.004 346.071 161.572 325.465 161.572 300.139C161.572 274.813 140.004 254.208 113.495 254.208Z" fill="#3AA970"/>
<path fill-rule="evenodd" clip-rule="evenodd" d="M146.288 300.139C146.288 317.435 131.599 331.464 113.495 331.464C95.3939 331.464 80.7097 317.435 80.7097 300.139C80.7097 282.841 95.3939 268.81 113.495 268.81C131.599 268.81 146.288 282.841 146.288 300.139Z" fill="#088F4A"/>
<path fill-rule="evenodd" clip-rule="evenodd" d="M113.495 311.257C107.078 311.257 101.858 306.27 101.858 300.139C101.858 294.007 107.078 289.017 113.495 289.017C119.917 289.017 125.139 294.007 125.139 300.139C125.139 306.27 119.917 311.257 113.495 311.257Z" fill="white"/>
<path d="M113.495 289.94C119.38 289.94 124.17 294.515 124.17 300.137C124.17 305.757 119.38 310.329 113.495 310.329C107.61 310.329 102.825 305.757 102.825 300.137C102.827 294.515 107.613 289.94 113.495 289.94ZM113.495 288.089C106.534 288.089 100.886 293.484 100.886 300.139C100.886 306.79 106.534 312.185 113.495 312.185C120.461 312.185 126.111 306.79 126.111 300.139C126.111 293.484 120.461 288.089 113.495 288.089Z" fill="white"/>
<path d="M63.1854 222.01C72.2198 222.01 72.2198 208.622 63.1854 208.622C54.1486 208.62 54.1486 222.01 63.1854 222.01Z" fill="#FF8FAE"/>
<path d="M170.753 265.283C179.79 265.283 179.79 251.895 170.753 251.895C161.719 251.895 161.719 265.283 170.753 265.283Z" fill="#FF8FAE"/>
<path d="M85.8301 377.52C94.8644 377.52 94.8644 364.135 85.8301 364.135C76.7932 364.133 76.7932 377.52 85.8301 377.52Z" fill="#FF8FAE"/>
<path d="M153.771 430.255C162.808 430.255 162.808 416.868 153.771 416.868C144.734 416.868 144.734 430.255 153.771 430.255Z" fill="#FF8FAE"/>
<path d="M152.353 359.618C159.131 359.618 159.131 349.576 152.353 349.576C145.576 349.576 145.576 359.618 152.353 359.618Z" fill="#FF8FAE"/>
<path d="M133.954 225.744C140.73 225.744 140.73 215.705 133.954 215.705C127.175 215.705 127.175 225.744 133.954 225.744Z" fill="#FF8FAE"/>
<path d="M90.0737 419.116C96.8501 419.116 96.8501 409.076 90.0737 409.076C83.2998 409.076 83.2998 419.116 90.0737 419.116Z" fill="#FF8FAE"/>
<path d="M142.292 386.447C146.81 386.447 146.81 379.753 142.292 379.753C137.773 379.753 137.773 386.447 142.292 386.447Z" fill="#FF8FAE"/>
<path d="M67.4342 257.876C71.9526 257.876 71.9526 251.182 67.4342 251.182C62.9083 251.182 62.9083 257.876 67.4342 257.876Z" fill="#FF8FAE"/>
<path d="M99.9872 238.945C104.506 238.945 104.506 232.251 99.9872 232.251C95.4663 232.254 95.4663 238.945 99.9872 238.945Z" fill="#FF8FAE"/>
<path d="M175 229.481C179.518 229.481 179.518 222.785 175 222.785C170.481 222.787 170.481 229.481 175 229.481Z" fill="#FF8FAE"/>
<path d="M172.167 314.672C176.685 314.672 176.685 307.978 172.167 307.978C167.649 307.978 167.649 314.672 172.167 314.672Z" fill="#FF8FAE"/>
<path d="M116.969 410.678C121.488 410.678 121.488 403.984 116.969 403.984C112.451 403.984 112.451 410.678 116.969 410.678Z" fill="#FF8FAE"/>
<path d="M74.5102 353.886C79.0261 353.886 79.0261 347.192 74.5102 347.192C69.9843 347.195 69.9843 353.886 74.5102 353.886Z" fill="#FF8FAE"/>
</svg>
