<svg width="497" height="1052" viewBox="0 0 497 1052" fill="none" xmlns="http://www.w3.org/2000/svg">
<path fill-rule="evenodd" clip-rule="evenodd" d="M25.4241 353.101C25.4241 241.54 125.446 151.103 248.835 151.103C372.235 151.103 472.257 241.54 472.257 353.101" fill="#BFEEEA"/>
<path d="M263.025 6.10352e-05H234.651V612.11H263.025V6.10352e-05Z" fill="#088F4A"/>
<path fill-rule="evenodd" clip-rule="evenodd" d="M85.5661 353.166C21.2341 301.704 108.441 216.182 159.233 273.155C153.319 251.753 154.143 240.132 164.312 219.816C178.289 191.872 213.848 180.437 244.334 184.251C287.515 191.867 310.379 229.974 306.566 270.613C318.001 237.59 356.108 232.505 354.837 271.878C417.516 221.267 479.311 349.358 404.373 356.985" fill="#ADD685"/>
<path d="M124.476 334.039C134.356 334.039 134.356 318.736 124.476 318.736C114.606 318.736 114.606 334.039 124.476 334.039Z" fill="#61BA8D"/>
<path d="M401.968 322.823C411.843 322.823 411.843 307.514 401.968 307.514C392.104 307.52 392.104 322.823 401.968 322.823Z" fill="#61BA8D"/>
<path d="M268.334 231.005C278.203 231.005 278.203 215.702 268.334 215.702C258.465 215.708 258.465 231.005 268.334 231.005Z" fill="#61BA8D"/>
<path d="M205.077 250.896C224.809 250.896 224.809 220.291 205.077 220.291C185.338 220.285 185.338 250.896 205.077 250.896Z" fill="#61BA8D"/>
<path d="M342.808 334.552C362.541 334.552 362.541 303.946 342.808 303.946C323.064 303.941 323.064 334.552 342.808 334.552Z" fill="#61BA8D"/>
<path d="M242.824 334.552C262.557 334.552 262.557 303.946 242.824 303.946C223.086 303.941 223.086 334.552 242.824 334.552Z" fill="#61BA8D"/>
<path d="M300.975 306.5C310.855 306.5 310.855 291.191 300.975 291.191C291.1 291.191 291.1 306.5 300.975 306.5Z" fill="#61BA8D"/>
<path d="M184.678 289.156C194.547 289.156 194.547 273.853 184.678 273.853C174.809 273.853 174.809 289.156 184.678 289.156Z" fill="#61BA8D"/>
<path d="M259.152 275.643C273.953 275.643 273.953 252.691 259.152 252.691C244.346 252.691 244.346 275.643 259.152 275.643Z" fill="#81C8A4"/>
<path d="M110.209 303.188C125.01 303.188 125.01 280.231 110.209 280.231C95.3921 280.231 95.3921 303.188 110.209 303.188Z" fill="#81C8A4"/>
<path d="M182.632 336.854C197.438 336.854 197.438 313.903 182.632 313.903C167.831 313.903 167.831 336.854 182.632 336.854Z" fill="#81C8A4"/>
<path d="M372.388 291.191C382.257 291.191 382.257 275.888 372.388 275.888C362.519 275.894 362.519 291.191 372.388 291.191Z" fill="#81C8A4"/>
<path opacity="0.4" fill-rule="evenodd" clip-rule="evenodd" d="M313.107 353.101C313.107 241.54 125.447 151.103 248.835 151.103C372.235 151.103 472.257 241.54 472.257 353.101" fill="white"/>
<path fill-rule="evenodd" clip-rule="evenodd" d="M396.419 1051.65H101.262L28.4246 442.463H469.256L396.419 1051.65Z" fill="#95E3DC"/>
<path fill-rule="evenodd" clip-rule="evenodd" d="M377.232 1007.22H120.444L57.0723 450.194H440.599L377.232 1007.22Z" fill="#99CC66"/>
<path opacity="0.4" fill-rule="evenodd" clip-rule="evenodd" d="M167.482 1051.65H101.262L28.4246 442.463H94.6388L167.482 1051.65Z" fill="white"/>
<path d="M484.505 346.985H13.1765V395.949H484.505V346.985Z" fill="#D9D9D9"/>
<path d="M484.505 346.985H350.663V395.949H484.505V346.985Z" fill="#C5C5C5"/>
<path d="M496.747 389.828H0.934082V457.16H496.747V389.828Z" fill="#C5C5C5"/>
<path d="M496.742 389.828H374.117V457.16H496.742V389.828Z" fill="#B1B1B1"/>
<path fill-rule="evenodd" clip-rule="evenodd" d="M248.835 785.51C194.067 785.51 149.511 740.954 149.511 686.18C149.511 631.406 194.067 586.85 248.835 586.85C303.604 586.85 348.165 631.406 348.165 686.18C348.165 740.954 303.604 785.51 248.835 785.51Z" fill="white"/>
<path d="M248.835 592.524C300.554 592.524 342.491 634.45 342.491 686.18C342.491 737.899 300.554 779.835 248.835 779.835C197.122 779.835 155.19 737.899 155.19 686.18C155.19 634.445 197.122 592.524 248.835 592.524ZM248.835 581.171C190.941 581.171 143.837 628.28 143.837 686.18C143.837 744.08 190.935 791.188 248.835 791.188C306.735 791.188 353.844 744.08 353.844 686.18C353.844 628.28 306.735 581.171 248.835 581.171Z" fill="#3AA970"/>
<path fill-rule="evenodd" clip-rule="evenodd" d="M320.456 686.18C320.456 725.722 288.383 757.795 248.836 757.795C209.294 757.795 177.22 725.722 177.22 686.18C177.22 646.632 209.294 614.554 248.836 614.554C288.383 614.554 320.456 646.632 320.456 686.18Z" fill="#088F4A"/>
<path fill-rule="evenodd" clip-rule="evenodd" d="M248.835 711.597C234.815 711.597 223.407 700.195 223.407 686.18C223.407 672.159 234.815 660.751 248.835 660.751C262.856 660.751 274.269 672.159 274.269 686.18C274.269 700.195 262.856 711.597 248.835 711.597Z" fill="white"/>
<path d="M248.836 662.863C261.689 662.863 272.147 673.321 272.147 686.175C272.147 699.022 261.689 709.475 248.836 709.475C235.982 709.475 225.529 699.022 225.529 686.175C225.529 673.321 235.982 662.863 248.836 662.863ZM248.836 658.629C233.631 658.629 221.29 670.964 221.29 686.18C221.29 701.385 233.631 713.72 248.836 713.72C264.051 713.72 276.386 701.385 276.386 686.18C276.386 670.964 264.051 658.629 248.836 658.629Z" fill="white"/>
<path d="M141.813 517.259C161.551 517.259 161.551 486.659 141.813 486.659C122.075 486.659 122.075 517.259 141.813 517.259Z" fill="#61BA8D"/>
<path d="M373.68 625.459C393.418 625.459 393.418 594.854 373.68 594.854C353.936 594.854 353.936 625.459 373.68 625.459Z" fill="#61BA8D"/>
<path d="M188.158 863.229C207.891 863.229 207.891 832.624 188.158 832.624C168.42 832.624 168.42 863.229 188.158 863.229Z" fill="#61BA8D"/>
<path d="M333.489 980.977C353.227 980.977 353.227 950.371 333.489 950.371C313.751 950.371 313.751 980.977 333.489 980.977Z" fill="#61BA8D"/>
<path d="M352.044 822.58C366.834 822.58 366.834 799.628 352.044 799.628C337.237 799.628 337.237 822.58 352.044 822.58Z" fill="#61BA8D"/>
<path d="M302.572 522.704C317.373 522.704 317.373 499.752 302.572 499.752C287.777 499.752 287.777 522.704 302.572 522.704Z" fill="#61BA8D"/>
<path d="M185.087 964.79C199.904 964.79 199.904 941.839 185.087 941.839C170.291 941.839 170.291 964.79 185.087 964.79Z" fill="#61BA8D"/>
<path d="M308.416 871.549C318.285 871.549 318.285 856.247 308.416 856.247C298.546 856.252 298.546 871.549 308.416 871.549Z" fill="#61BA8D"/>
<path d="M148 596.169C157.869 596.169 157.869 580.86 148 580.86C138.125 580.86 138.125 596.169 148 596.169Z" fill="#61BA8D"/>
<path d="M225.283 540.522C235.152 540.522 235.152 525.219 225.283 525.219C215.414 525.219 215.414 540.522 225.283 540.522Z" fill="#61BA8D"/>
<path d="M373.68 537.434C383.555 537.434 383.555 522.125 373.68 522.125C363.811 522.131 363.811 537.434 373.68 537.434Z" fill="#61BA8D"/>
<path d="M373.68 729.099C383.555 729.099 383.555 713.796 373.68 713.796C363.811 713.796 363.811 729.099 373.68 729.099Z" fill="#61BA8D"/>
<path d="M250.019 939.329C259.894 939.329 259.894 924.021 250.019 924.021C240.15 924.021 240.15 939.329 250.019 939.329Z" fill="#61BA8D"/>
<path d="M166.549 809.481C176.418 809.481 176.418 794.178 166.549 794.178C156.68 794.184 156.68 809.481 166.549 809.481Z" fill="#61BA8D"/>
</svg>
