<svg width="217" height="460" viewBox="0 0 217 460" fill="none" xmlns="http://www.w3.org/2000/svg">
<path fill-rule="evenodd" clip-rule="evenodd" d="M10.7182 154.45C10.7182 105.653 54.4936 66.0978 108.5 66.0978C162.506 66.0978 206.282 105.655 206.282 154.45" fill="#BFEEEA"/>
<path d="M114.706 0H102.292V267.742H114.706V0Z" fill="#088F4A"/>
<path fill-rule="evenodd" clip-rule="evenodd" d="M38.6777 156.116C29.3539 145.669 25.8154 120.09 38.0115 107.471C49.6227 95.4659 68.9771 98.6492 73.0552 116.563C74.803 93.428 82.8398 79.0363 98.1113 79.473C107.17 79.7331 114.429 85.243 114.429 102.408C120.553 88.7962 142.667 91.9199 138.317 112.086C182.016 80.7473 213.953 152.918 173.743 156.65" fill="#B17F4A"/>
<path d="M102.81 101.818C103.629 103.052 103.281 104.713 102.046 105.526L96.4519 109.204C95.2127 110.017 93.5533 109.671 92.7391 108.438L86.4858 98.9307C85.6716 97.6946 86.0154 96.0362 87.2498 95.2224L92.8441 91.5452C94.0833 90.7315 95.7428 91.0751 96.5546 92.3112L102.81 101.818Z" fill="#7D4E24"/>
<path d="M185.929 136.825C186.529 138.173 185.92 139.758 184.571 140.357L178.444 143.072C177.093 143.671 175.512 143.06 174.908 141.71L170.293 131.308C169.693 129.955 170.305 128.373 171.654 127.774L177.778 125.061C179.129 124.462 180.712 125.073 181.312 126.426L185.929 136.825Z" fill="#7D4E24"/>
<path d="M61.3557 140.956C60.9521 142.38 59.4742 143.206 58.0511 142.805L51.6045 140.984C50.1814 140.581 49.3553 139.102 49.7564 137.677L52.8532 126.726C53.2567 125.304 54.7371 124.478 56.1601 124.879L62.6044 126.7C64.0322 127.101 64.8584 128.583 64.4525 130.005L61.3557 140.956Z" fill="#7D4E24"/>
<path d="M128.616 132.067C127.816 133.312 126.162 133.673 124.915 132.873L119.278 129.258C118.034 128.461 117.671 126.803 118.476 125.557L124.624 115.983C125.424 114.738 127.078 114.377 128.327 115.174L133.962 118.789C135.204 119.589 135.564 121.245 134.767 122.491L128.616 132.067Z" fill="#7D4E24"/>
<path d="M44.112 115.878C48.4337 115.878 48.4337 109.185 44.112 109.185C39.7951 109.185 39.7951 115.878 44.112 115.878Z" fill="#936037"/>
<path d="M106.062 144.662C110.384 144.662 110.384 137.968 106.062 137.968C101.745 137.968 101.745 144.662 106.062 144.662Z" fill="#936037"/>
<path d="M161.984 122.908C166.303 122.908 166.303 116.215 161.984 116.215C157.664 116.215 157.664 122.908 161.984 122.908Z" fill="#936037"/>
<path d="M84.6306 133.615C93.2691 133.615 93.2691 120.228 84.6306 120.228C75.992 120.228 75.992 133.615 84.6306 133.615Z" fill="#936037"/>
<path d="M152.946 148.344C161.582 148.344 161.582 134.957 152.946 134.957C144.303 134.957 144.303 148.344 152.946 148.344Z" fill="#936037"/>
<path opacity="0.4" fill-rule="evenodd" clip-rule="evenodd" d="M136.629 154.45C136.629 105.653 54.4935 66.0978 108.5 66.0978C162.506 66.0978 206.282 105.655 206.282 154.45" fill="white"/>
<path fill-rule="evenodd" clip-rule="evenodd" d="M173.086 460H43.9138L12.0314 193.54H204.964L173.086 460Z" fill="#95E3DC"/>
<path fill-rule="evenodd" clip-rule="evenodd" d="M164.689 440.561H52.3041L24.5738 196.914H192.426L164.689 440.561Z" fill="#936037"/>
<path opacity="0.4" fill-rule="evenodd" clip-rule="evenodd" d="M72.8905 460H43.9138L12.0314 193.54H41.0105L72.8905 460Z" fill="white"/>
<path d="M211.64 151.773H5.36267V173.192H211.64V151.773Z" fill="#D9D9D9"/>
<path d="M211.637 151.773H153.066V173.192H211.637V151.773Z" fill="#C5C5C5"/>
<path d="M217 170.512H0V199.966H217V170.512Z" fill="#C5C5C5"/>
<path d="M216.998 170.512H163.33V199.966H216.998V170.512Z" fill="#B1B1B1"/>
<path fill-rule="evenodd" clip-rule="evenodd" d="M108.5 343.585C84.5279 343.585 65.0255 324.094 65.0255 300.138C65.0255 276.18 84.5279 256.688 108.5 256.688C132.47 256.688 151.972 276.18 151.972 300.138C151.972 324.096 132.47 343.585 108.5 343.585Z" fill="white"/>
<path d="M108.5 259.17C131.135 259.17 149.489 277.511 149.489 300.138C149.489 322.765 131.135 341.101 108.5 341.101C85.8603 341.101 67.5111 322.762 67.5111 300.138C67.5111 277.513 85.8603 259.17 108.5 259.17ZM108.5 254.204C83.1598 254.204 62.5424 274.81 62.5424 300.138C62.5424 325.463 83.1574 346.067 108.5 346.067C133.84 346.067 154.458 325.463 154.458 300.138C154.458 274.812 133.84 254.204 108.5 254.204Z" fill="#3AA970"/>
<path fill-rule="evenodd" clip-rule="evenodd" d="M139.84 300.138C139.84 317.436 125.803 331.463 108.5 331.463C91.1942 331.463 77.1524 317.436 77.1524 300.138C77.1524 282.837 91.1942 268.811 108.5 268.811C125.803 268.813 139.84 282.837 139.84 300.138Z" fill="#088F4A"/>
<path fill-rule="evenodd" clip-rule="evenodd" d="M108.5 311.258C102.364 311.258 97.3711 306.271 97.3711 300.138C97.3711 294.005 102.364 289.015 108.5 289.015C114.634 289.015 119.626 294.005 119.626 300.138C119.626 306.271 114.634 311.258 108.5 311.258Z" fill="white"/>
<path d="M108.5 289.944C114.123 289.944 118.698 294.518 118.698 300.138C118.698 305.757 114.123 310.33 108.5 310.33C102.875 310.33 98.2999 305.757 98.2999 300.138C98.2999 294.518 102.875 289.944 108.5 289.944ZM108.5 288.092C101.841 288.092 96.4447 293.487 96.4447 300.14C96.4447 306.791 101.841 312.186 108.5 312.186C115.154 312.186 120.553 306.791 120.553 300.14C120.553 293.485 115.154 288.092 108.5 288.092Z" fill="white"/>
<path d="M59.7822 224.901C68.4208 224.901 68.4208 211.513 59.7822 211.513C51.1484 211.513 51.1484 224.901 59.7822 224.901Z" fill="#7D4E24"/>
<path d="M162.612 264.114C171.25 264.114 171.25 250.727 162.612 250.727C153.973 250.725 153.973 264.114 162.612 264.114Z" fill="#7D4E24"/>
<path d="M86.8344 387.044C95.4706 387.044 95.4706 373.659 86.8344 373.659C78.1911 373.659 78.1911 387.044 86.8344 387.044Z" fill="#7D4E24"/>
<path d="M143.67 427.735C152.306 427.735 152.306 414.348 143.67 414.348C135.032 414.348 135.032 427.735 143.67 427.735Z" fill="#7D4E24"/>
<path d="M151.791 365.212C158.268 365.212 158.268 355.17 151.791 355.17C145.311 355.17 145.311 365.212 151.791 365.212Z" fill="#7D4E24"/>
<path d="M130.142 228.635C136.619 228.635 136.619 218.596 130.142 218.596C123.659 218.596 123.659 228.635 130.142 228.635Z" fill="#7D4E24"/>
<path d="M85.4902 427.413C91.9703 427.413 91.9703 417.371 85.4902 417.371C79.0125 417.371 79.0125 427.413 85.4902 427.413Z" fill="#7D4E24"/>
<path d="M132.697 385.281C137.018 385.281 137.018 378.587 132.697 378.587C128.377 378.587 128.377 385.281 132.697 385.281Z" fill="#7D4E24"/>
<path d="M67.9003 258.063C72.2219 258.063 72.2219 251.369 67.9003 251.369C63.581 251.369 63.581 258.063 67.9003 258.063Z" fill="#7D4E24"/>
<path d="M100.377 237.779C104.697 237.779 104.697 231.086 100.377 231.086C96.0556 231.086 96.0556 237.779 100.377 237.779Z" fill="#7D4E24"/>
<path d="M172.083 228.315C176.403 228.315 176.403 221.619 172.083 221.619C167.762 221.619 167.762 228.315 172.083 228.315Z" fill="#7D4E24"/>
<path d="M165.319 320.264C169.638 320.264 169.638 313.57 165.319 313.57C160.998 313.57 160.998 320.264 165.319 320.264Z" fill="#7D4E24"/>
<path d="M108.495 416.274C112.815 416.274 112.815 409.58 108.495 409.58C104.171 409.583 104.171 416.274 108.495 416.274Z" fill="#7D4E24"/>
<path d="M74.6645 356.776C78.9861 356.776 78.9861 350.081 74.6645 350.081C70.3476 350.081 70.3476 356.776 74.6645 356.776Z" fill="#7D4E24"/>
</svg>
