<svg width="321" height="681" viewBox="0 0 321 681" fill="none" xmlns="http://www.w3.org/2000/svg">
<path fill-rule="evenodd" clip-rule="evenodd" d="M15.8228 229.034C15.8228 156.94 80.4601 98.4974 160.204 98.4974C239.949 98.4974 304.586 156.944 304.586 229.034" fill="#BFEEEA"/>
<path d="M169.371 0.846802H151.042V396.413H169.371V0.846802Z" fill="#088F4A"/>
<path fill-rule="evenodd" clip-rule="evenodd" d="M44.598 238.962C33.9966 215.112 39.3026 189.492 64.9192 179.772C92.3021 170.056 103.785 174.473 111.735 143.554C118.807 117.049 137.359 103.8 159.446 124.999C169.159 135.6 171.814 146.202 186.833 148.853C197.43 150.619 208.924 146.202 219.518 148.853C234.537 153.27 234.537 162.102 241.602 170.94C248.674 180.657 262.808 177.124 272.528 188.607C284.896 202.741 284.896 238.962 260.157 240.729" fill="#FCE092"/>
<path d="M97.5766 152.749C115.515 163.311 135.162 165.603 155.674 164.591C166.459 164.059 177.215 162.049 187.757 159.842C196.13 158.086 204.126 157.438 212.665 158.612C222.829 159.236 227.19 165.13 225.744 176.296C220.869 180.498 215.217 182.571 208.797 182.518C179.369 186.164 149.98 176.507 121.515 170.613C102.248 166.622 77.548 162.077 59.6488 172.474C47.5209 179.518 53.1758 193.839 60.9497 201.285C72.933 212.764 93.6668 214.559 109.218 216.353C136.245 219.466 164.442 219.117 191.487 216.543C204.785 215.278 217.826 212.45 230.61 208.632C241.486 205.382 258.624 196.331 267.875 208.336C271.707 213.311 280.306 208.396 276.414 203.344C266.496 190.472 253.24 191.452 238.658 195.602C209.886 203.799 182.828 208.336 152.748 208.332C128.464 208.329 103.309 207.959 79.9701 200.534C77.7807 199.603 75.5949 198.672 73.4055 197.738C65.6846 194.667 65.3425 187.969 72.3795 177.643C80.0405 175.235 89.7993 176.416 97.6895 176.966C114.016 178.104 130.026 182.642 145.912 186.277C169.984 191.78 195.844 195.75 220.297 190.602C230.617 188.431 242.572 175.859 237.41 164.757C229.21 147.118 206.932 146.988 190.355 149.276C160.074 153.454 130.823 160.85 102.569 144.213C97.0584 140.97 92.0873 149.519 97.5766 152.749Z" fill="#FFCC00"/>
<path opacity="0.4" fill-rule="evenodd" clip-rule="evenodd" d="M201.746 229.034C201.746 156.94 80.4634 98.4974 160.208 98.4974C239.952 98.4974 304.589 156.944 304.589 229.034" fill="white"/>
<path fill-rule="evenodd" clip-rule="evenodd" d="M255.57 680.459H64.8419L17.7688 286.786H302.644L255.57 680.459Z" fill="#95E3DC"/>
<path fill-rule="evenodd" clip-rule="evenodd" d="M243.178 651.737H77.2378L36.2815 291.771H284.131L243.178 651.737Z" fill="#FBD877"/>
<path opacity="0.4" fill-rule="evenodd" clip-rule="evenodd" d="M107.635 680.459H64.8419L17.7688 286.786H60.5583L107.635 680.459Z" fill="white"/>
<path d="M312.501 225.079H7.91504V256.724H312.501V225.079Z" fill="#D9D9D9"/>
<path d="M312.501 225.078H226.012V256.724H312.501V225.078Z" fill="#C5C5C5"/>
<path d="M320.416 252.768H0V296.281H320.416V252.768Z" fill="#C5C5C5"/>
<path d="M320.416 252.768H241.165V296.281H320.416V252.768Z" fill="#B1B1B1"/>
<path fill-rule="evenodd" clip-rule="evenodd" d="M160.204 508.466C124.811 508.466 96.0183 479.669 96.0183 444.276C96.0183 408.88 124.811 380.083 160.204 380.083C195.601 380.083 224.398 408.88 224.398 444.276C224.398 479.673 195.601 508.466 160.204 508.466Z" fill="white"/>
<path d="M160.204 383.753C193.633 383.753 220.727 410.85 220.727 444.276C220.727 477.705 193.633 504.796 160.204 504.796C126.782 504.796 99.6845 477.702 99.6845 444.276C99.6845 410.85 126.782 383.753 160.204 383.753ZM160.204 376.416C122.787 376.416 92.3479 406.86 92.3479 444.276C92.3479 481.693 122.787 512.132 160.204 512.132C197.621 512.132 228.064 481.693 228.064 444.276C228.067 406.86 197.624 376.416 160.204 376.416Z" fill="#3AA970"/>
<path fill-rule="evenodd" clip-rule="evenodd" d="M206.491 444.276C206.491 469.829 185.757 490.556 160.204 490.556C134.655 490.556 113.921 469.829 113.921 444.276C113.921 418.716 134.655 397.993 160.204 397.993C185.761 397.996 206.491 418.716 206.491 444.276Z" fill="#088F4A"/>
<path fill-rule="evenodd" clip-rule="evenodd" d="M160.204 460.709C151.147 460.709 143.775 453.337 143.775 444.276C143.775 435.215 151.144 427.844 160.204 427.844C169.265 427.844 176.637 435.215 176.637 444.276C176.637 453.337 169.265 460.709 160.204 460.709Z" fill="white"/>
<path d="M160.204 429.215C168.507 429.215 175.265 435.973 175.265 444.276C175.265 452.579 168.507 459.337 160.204 459.337C151.902 459.337 145.147 452.579 145.147 444.276C145.147 435.973 151.902 429.215 160.204 429.215ZM160.204 426.479C150.379 426.479 142.407 434.45 142.407 444.28C142.407 454.105 150.379 462.08 160.204 462.08C170.03 462.08 178.005 454.105 178.005 444.28C178.005 434.447 170.033 426.479 160.204 426.479Z" fill="white"/>
<path d="M88.3822 336.934C101.138 336.934 101.138 317.155 88.3822 317.155C75.6197 317.155 75.6197 336.934 88.3822 336.934Z" fill="#FFCC00"/>
<path d="M238.214 406.856C250.97 406.856 250.97 387.078 238.214 387.078C225.462 387.078 225.462 406.856 238.214 406.856Z" fill="#FFCC00"/>
<path d="M110.339 562.508C123.094 562.508 123.094 542.73 110.339 542.73C97.5869 542.727 97.5869 562.508 110.339 562.508Z" fill="#FFCC00"/>
<path d="M214.248 642.595C227.003 642.595 227.003 622.82 214.248 622.82C201.489 622.82 201.489 642.595 214.248 642.595Z" fill="#FFCC00"/>
<path d="M216.239 530.246C225.808 530.246 225.808 515.411 216.239 515.411C206.674 515.411 206.674 530.246 216.239 530.246Z" fill="#FFCC00"/>
<path d="M186.272 342.455C195.837 342.455 195.837 327.619 186.272 327.619C176.704 327.619 176.704 342.455 186.272 342.455Z" fill="#FFCC00"/>
<path d="M124.346 626.141C133.904 626.141 133.904 611.306 124.346 611.306C114.778 611.306 114.778 626.141 124.346 626.141Z" fill="#FFCC00"/>
<path d="M192.047 567.892C198.425 567.892 198.425 557.999 192.047 557.999C185.666 557.999 185.666 567.892 192.047 567.892Z" fill="#FFCC00"/>
<path d="M94.3753 381.934C100.753 381.934 100.753 372.044 94.3753 372.044C87.9976 372.044 87.9976 381.934 94.3753 381.934Z" fill="#FFCC00"/>
<path d="M138.328 351.967C144.706 351.967 144.706 342.077 138.328 342.077C131.95 342.077 131.95 351.967 138.328 351.967Z" fill="#FFCC00"/>
<path d="M242.212 349.968C248.59 349.968 248.59 340.078 242.212 340.078C235.838 340.082 235.838 349.968 242.212 349.968Z" fill="#FFCC00"/>
<path d="M240.213 485.821C246.591 485.821 246.591 475.932 240.213 475.932C233.835 475.932 233.835 485.821 240.213 485.821Z" fill="#FFCC00"/>
<path d="M156.309 611.683C162.687 611.683 162.687 601.794 156.309 601.794C149.931 601.794 149.931 611.683 156.309 611.683Z" fill="#FFCC00"/>
<path d="M106.366 523.777C112.744 523.777 112.744 513.888 106.366 513.888C99.985 513.891 99.985 523.777 106.366 523.777Z" fill="#FFCC00"/>
</svg>
