<svg width="820" height="955" viewBox="0 0 820 955" fill="none" xmlns="http://www.w3.org/2000/svg">
<path fill-rule="evenodd" clip-rule="evenodd" d="M574.487 836.26C572.938 839.443 569.293 840.861 566.319 839.419L398.469 758.074C395.499 756.639 394.346 752.887 395.893 749.709L545.092 441.839C546.633 438.659 550.285 437.244 553.258 438.686L721.11 520.025C724.082 521.472 725.227 525.21 723.69 528.397L574.487 836.26Z" fill="#7D4E24"/>
<path opacity="0.8" fill-rule="evenodd" clip-rule="evenodd" d="M594.763 546.604C593.216 549.783 589.384 551.117 586.209 549.577L532.977 523.777C529.796 522.241 528.457 518.401 529.998 515.221L553.732 466.243C555.279 463.064 559.112 461.73 562.302 463.274L615.524 489.072C618.704 490.613 620.034 494.439 618.492 497.624L594.763 546.604Z" fill="#936037"/>
<path opacity="0.8" fill-rule="evenodd" clip-rule="evenodd" d="M675.416 585.691C673.88 588.872 670.047 590.207 666.862 588.664L613.639 562.872C610.455 561.324 609.124 557.498 610.666 554.318L634.4 505.339C635.955 502.151 639.781 500.821 642.957 502.373L696.192 528.168C699.378 529.706 700.702 533.535 699.159 536.721L675.416 585.691Z" fill="#936037"/>
<path opacity="0.8" fill-rule="evenodd" clip-rule="evenodd" d="M558.463 621.51C556.917 624.683 553.079 626.016 549.909 624.483L496.676 598.682C493.486 597.138 492.157 593.307 493.698 590.127L517.439 541.144C518.975 537.963 522.806 536.634 526.002 538.18L579.225 563.972C582.399 565.512 583.739 569.346 582.197 572.531L558.463 621.51Z" fill="#936037"/>
<path opacity="0.8" fill-rule="evenodd" clip-rule="evenodd" d="M639.117 660.591C637.579 663.778 633.747 665.112 630.568 663.565L577.34 637.772C574.148 636.233 572.82 632.396 574.361 629.216L598.094 580.243C599.642 577.059 603.469 575.724 606.654 577.266L659.889 603.061C663.061 604.607 664.396 608.44 662.849 611.618L639.117 660.591Z" fill="#936037"/>
<path opacity="0.8" fill-rule="evenodd" clip-rule="evenodd" d="M522.159 696.403C520.622 699.59 516.785 700.917 513.611 699.377L460.382 673.584C457.197 672.041 455.863 668.208 457.405 665.023L481.139 616.044C482.684 612.854 486.519 611.531 489.697 613.078L542.931 638.873C546.106 640.413 547.442 644.241 545.899 647.426L522.159 696.403Z" fill="#936037"/>
<path opacity="0.8" fill-rule="evenodd" clip-rule="evenodd" d="M602.823 735.493C601.28 738.678 597.454 740.008 594.269 738.465L541.041 712.666C537.855 711.129 536.52 707.296 538.074 704.114L561.808 655.135C563.351 651.95 567.17 650.624 570.356 652.161L623.595 677.963C626.769 679.503 628.099 683.329 626.557 686.514L602.823 735.493Z" fill="#936037"/>
<path opacity="0.8" fill-rule="evenodd" clip-rule="evenodd" d="M485.866 771.304C484.33 774.485 480.497 775.82 477.313 774.272L424.09 748.479C420.899 746.935 419.566 743.097 421.106 739.923L444.842 690.939C446.391 687.75 450.22 686.431 453.405 687.974L506.634 713.768C509.812 715.315 511.149 719.136 509.607 722.321L485.866 771.304Z" fill="#936037"/>
<path opacity="0.8" fill-rule="evenodd" clip-rule="evenodd" d="M566.524 810.393C564.988 813.574 561.156 814.903 557.97 813.365L504.737 787.565C501.553 786.017 500.227 782.198 501.764 779.011L525.505 730.028C527.053 726.844 530.883 725.521 534.057 727.061L587.29 752.861C590.471 754.397 591.802 758.223 590.263 761.415L566.524 810.393Z" fill="#936037"/>
<g opacity="0.4">
<path fill-rule="evenodd" clip-rule="evenodd" d="M584.019 533.754L546.751 515.694C546.118 515.387 545.853 514.619 546.167 513.982L562.78 479.704C563.044 479.153 563.66 478.872 564.241 479.021L601.747 497.165C602.38 497.472 602.651 498.242 602.342 498.88L585.729 533.158C585.467 533.704 584.842 533.995 584.256 533.844L584.019 533.754Z" fill="#683C11"/>
<path d="M564.818 482.827L598.624 499.203L583.685 530.034L549.88 513.653L564.818 482.827ZM565.039 475.916C563.02 475.397 560.843 476.347 559.9 478.303L543.287 512.581C542.203 514.814 543.135 517.49 545.357 518.571L582.619 536.629C582.897 536.764 583.178 536.865 583.466 536.939C585.49 537.46 587.663 536.503 588.617 534.549L605.232 500.266C606.31 498.032 605.382 495.363 603.149 494.279L565.891 476.228C565.606 476.097 565.322 475.989 565.039 475.916Z" fill="#562F11"/>
</g>
<g opacity="0.4">
<path fill-rule="evenodd" clip-rule="evenodd" d="M664.671 572.841L627.418 554.791C626.786 554.484 626.511 553.707 626.821 553.063L643.438 518.792C643.7 518.246 644.318 517.96 644.904 518.111L682.409 536.26C682.826 536.46 682.998 536.805 683.066 536.99C683.129 537.174 683.205 537.553 683.005 537.97L666.391 572.253C666.129 572.799 665.511 573.086 664.919 572.933L664.671 572.841Z" fill="#683C11"/>
<path d="M645.476 521.915L679.281 538.296L664.343 569.122L630.533 552.739L645.476 521.915ZM645.697 515.005C643.673 514.484 641.496 515.434 640.553 517.39L623.933 551.672C622.861 553.902 623.786 556.582 626.019 557.666L663.272 575.716C663.55 575.851 663.83 575.952 664.118 576.026C666.143 576.547 668.323 575.586 669.268 573.641L685.883 539.358C686.966 537.126 686.04 534.451 683.806 533.373L646.549 515.316C646.27 515.187 645.985 515.079 645.697 515.005Z" fill="#562F11"/>
</g>
<g opacity="0.4">
<path fill-rule="evenodd" clip-rule="evenodd" d="M547.721 608.648L510.46 590.585C510.043 590.385 509.87 590.046 509.808 589.856C509.742 589.665 509.664 589.292 509.869 588.877L526.482 554.599C526.744 554.053 527.364 553.761 527.944 553.91L565.455 572.061C565.872 572.261 566.045 572.6 566.106 572.79C566.174 572.975 566.251 573.353 566.052 573.765L549.431 608.052C549.168 608.604 548.555 608.892 547.974 608.743L547.721 608.648Z" fill="#683C11"/>
<path d="M528.519 557.727L562.324 574.108L547.386 604.934L513.588 588.549L528.519 557.727ZM528.736 550.81C526.717 550.29 524.537 551.251 523.595 553.202L506.982 587.48C505.899 589.713 506.831 592.389 509.059 593.465L546.32 611.529C546.598 611.664 546.879 611.765 547.166 611.839C549.185 612.358 551.364 611.403 552.302 609.445L568.922 575.163C570.002 572.941 569.077 570.261 566.843 569.183L529.586 551.127C529.309 550.992 529.024 550.884 528.736 550.81Z" fill="#562F11"/>
</g>
<g opacity="0.4">
<path fill-rule="evenodd" clip-rule="evenodd" d="M628.375 647.73L591.122 629.68C590.699 629.479 590.533 629.135 590.466 628.944C590.398 628.759 590.321 628.386 590.521 627.969L607.13 593.684C607.39 593.144 608.015 592.853 608.601 593.004L646.106 611.153C646.733 611.459 647.004 612.229 646.696 612.862L630.083 647.139C629.82 647.691 629.204 647.972 628.623 647.823L628.375 647.73Z" fill="#683C11"/>
<path d="M609.172 596.814L642.977 613.195L628.04 644.015L594.239 627.641L609.172 596.814ZM609.404 589.906C607.379 589.385 605.2 590.341 604.253 592.29L587.644 626.575C586.561 628.808 587.494 631.478 589.727 632.562L626.98 650.611C627.257 650.747 627.543 650.849 627.831 650.923C629.856 651.444 632.022 650.491 632.97 648.536L649.584 614.258C650.667 612.026 649.739 609.356 647.512 608.274L610.255 590.218C609.972 590.081 609.691 589.98 609.404 589.906Z" fill="#562F11"/>
</g>
<g opacity="0.4">
<path fill-rule="evenodd" clip-rule="evenodd" d="M511.416 683.547L474.16 665.49C473.527 665.183 473.256 664.413 473.564 663.781L490.179 629.492C490.479 628.869 491.142 628.675 491.647 628.805L529.146 646.953C529.779 647.26 530.048 648.035 529.739 648.673L513.121 682.95C512.858 683.501 512.241 683.782 511.655 683.632L511.416 683.547Z" fill="#683C11"/>
<path d="M492.221 632.621L526.026 649.003L511.081 679.832L477.282 663.452L492.221 632.621ZM492.448 625.712C490.429 625.193 488.246 626.142 487.302 628.104L470.687 662.387C469.605 664.614 470.537 667.29 472.764 668.372L510.021 686.429C510.299 686.564 510.579 686.665 510.867 686.739C512.897 687.261 515.072 686.299 516.006 684.352L532.626 650.07C533.705 647.836 532.777 645.167 530.545 644.078L493.283 626.02C493.011 625.886 492.73 625.785 492.448 625.712Z" fill="#562F11"/>
</g>
<g opacity="0.4">
<path fill-rule="evenodd" clip-rule="evenodd" d="M592.069 722.634L554.828 704.582C554.406 704.38 554.234 704.035 554.173 703.846C554.106 703.655 554.028 703.282 554.228 702.865L570.84 668.592C571.103 668.041 571.723 667.749 572.303 667.898L609.815 686.044C610.448 686.351 610.719 687.121 610.41 687.759L593.795 722.042C593.533 722.588 592.909 722.879 592.323 722.728L592.069 722.634Z" fill="#683C11"/>
<path d="M572.885 671.711L606.691 688.087L591.752 718.918L557.948 702.531L572.885 671.711ZM573.095 664.798C571.076 664.278 568.903 665.235 567.953 667.196L551.34 701.474C550.263 703.702 551.194 706.384 553.428 707.462L590.674 725.515C590.951 725.651 591.232 725.752 591.514 725.824C593.544 726.347 595.716 725.395 596.666 723.435L613.279 689.157C614.361 686.93 613.431 684.248 611.203 683.166L573.945 665.115C573.667 664.98 573.388 664.873 573.095 664.798Z" fill="#562F11"/>
</g>
<g opacity="0.4">
<path fill-rule="evenodd" clip-rule="evenodd" d="M475.123 758.448L437.866 740.392C437.228 740.083 436.962 739.315 437.271 738.677L453.884 704.399C454.182 703.781 454.845 703.587 455.35 703.717L492.861 721.868C493.283 722.069 493.449 722.413 493.518 722.598C493.586 722.783 493.658 723.155 493.457 723.578L476.842 757.861C476.58 758.407 475.962 758.693 475.376 758.543L475.123 758.448Z" fill="#683C11"/>
<path d="M455.922 707.521L489.727 723.903L474.789 754.729L440.984 738.347L455.922 707.521ZM456.143 700.611C454.124 700.091 451.947 701.042 450.999 702.997L434.384 737.28C433.306 739.514 434.238 742.19 436.467 743.267L473.723 761.323C474.001 761.458 474.282 761.56 474.57 761.634C476.594 762.154 478.774 761.193 479.714 759.248L496.329 724.965C497.413 722.732 496.49 720.064 494.252 718.979L456.99 700.921C456.71 700.792 456.431 700.685 456.143 700.611Z" fill="#562F11"/>
</g>
<g opacity="0.4">
<path fill-rule="evenodd" clip-rule="evenodd" d="M555.786 797.538L518.522 779.486C518.105 779.286 517.929 778.934 517.863 778.743C517.8 778.559 517.721 778.192 517.918 777.785L534.535 743.491C534.797 742.945 535.422 742.654 536.008 742.805L573.508 760.953C573.925 761.153 574.098 761.493 574.159 761.682C574.226 761.873 574.304 762.246 574.097 762.667L557.485 796.939C557.222 797.491 556.604 797.778 556.018 797.627L555.786 797.538Z" fill="#683C11"/>
<path d="M536.586 746.611L570.391 762.993L555.453 793.818L521.646 777.442L536.586 746.611ZM536.812 739.702C534.782 739.18 532.61 740.131 531.661 742.092L515.046 776.375C513.96 778.595 514.896 781.278 517.128 782.362L554.387 800.413C554.665 800.548 554.945 800.649 555.233 800.723C557.257 801.244 559.431 800.287 560.379 798.332L576.991 764.06C578.076 761.822 577.145 759.14 574.915 758.069L537.658 740.012C537.379 739.883 537.094 739.775 536.812 739.702Z" fill="#562F11"/>
</g>
<path fill-rule="evenodd" clip-rule="evenodd" d="M200.642 340.693C200.642 260.329 272.693 195.186 361.585 195.186C450.477 195.186 522.529 260.333 522.529 340.693" fill="#BFEEEA"/>
<path d="M371.799 86.3301L351.367 86.3301L351.367 527.272L371.799 527.272L371.799 86.3301Z" fill="#088F4A"/>
<path fill-rule="evenodd" clip-rule="evenodd" d="M246.661 343.436C231.315 326.231 225.491 284.105 245.565 263.324C264.676 243.552 296.533 248.795 303.245 278.297C306.122 240.196 319.35 216.494 344.486 217.214C359.396 217.642 371.343 226.716 371.343 254.984C381.424 232.568 417.823 237.712 410.663 270.924C482.589 219.312 535.156 338.17 468.971 344.316" fill="#B17F4A"/>
<path d="M352.22 254.014C353.568 256.045 352.994 258.781 350.963 260.121L341.755 266.177C339.715 267.517 336.984 266.947 335.644 264.915L325.351 249.258C324.011 247.223 324.577 244.491 326.609 243.151L335.817 237.095C337.856 235.755 340.588 236.321 341.924 238.357L352.22 254.014Z" fill="#7D4E24"/>
<path d="M489.03 311.666C490.017 313.887 489.014 316.496 486.794 317.482L476.71 321.955C474.485 322.941 471.884 321.935 470.889 319.711L463.293 302.58C462.306 300.352 463.312 297.746 465.533 296.76L475.613 292.291C477.838 291.305 480.443 292.311 481.43 294.539L489.03 311.666Z" fill="#7D4E24"/>
<path d="M283.988 318.469C283.324 320.815 280.892 322.175 278.549 321.515L267.938 318.516C265.596 317.852 264.236 315.415 264.897 313.069L269.994 295.035C270.658 292.692 273.095 291.333 275.437 291.993L286.044 294.991C288.394 295.652 289.754 298.092 289.086 300.434L283.988 318.469Z" fill="#7D4E24"/>
<path d="M394.695 303.83C393.379 305.881 390.655 306.475 388.604 305.158L379.325 299.204C377.278 297.892 376.68 295.16 378.005 293.109L388.124 277.342C389.441 275.29 392.164 274.697 394.22 276.01L403.494 281.963C405.538 283.28 406.131 286.007 404.819 288.059L394.695 303.83Z" fill="#7D4E24"/>
<path d="M255.606 277.169C262.719 277.169 262.719 266.145 255.606 266.145C248.501 266.145 248.501 277.169 255.606 277.169Z" fill="#936037"/>
<path d="M357.573 324.572C364.686 324.572 364.686 313.549 357.573 313.549C350.468 313.549 350.468 324.572 357.573 324.572Z" fill="#936037"/>
<path d="M449.617 288.747C456.726 288.747 456.726 277.723 449.617 277.723C442.507 277.723 442.507 288.747 449.617 288.747Z" fill="#936037"/>
<path d="M322.298 306.38C336.516 306.38 336.516 284.333 322.298 284.333C308.079 284.333 308.079 306.38 322.298 306.38Z" fill="#936037"/>
<path d="M434.742 330.636C448.956 330.636 448.956 308.589 434.742 308.589C420.515 308.589 420.515 330.636 434.742 330.636Z" fill="#936037"/>
<path opacity="0.4" fill-rule="evenodd" clip-rule="evenodd" d="M407.884 340.693C407.884 260.329 272.693 195.186 361.585 195.186C450.477 195.186 522.529 260.333 522.529 340.693" fill="white"/>
<path fill-rule="evenodd" clip-rule="evenodd" d="M467.891 843.901L255.28 843.901L202.803 405.07L520.36 405.07L467.891 843.901Z" fill="#95E3DC"/>
<path fill-rule="evenodd" clip-rule="evenodd" d="M454.069 811.887L269.09 811.887L223.447 410.627L499.723 410.627L454.069 811.887Z" fill="#936037"/>
<path opacity="0.4" fill-rule="evenodd" clip-rule="evenodd" d="M302.974 843.901L255.28 843.901L202.803 405.07L250.501 405.07L302.974 843.901Z" fill="white"/>
<path d="M531.348 336.283L191.827 336.283L191.827 371.559L531.348 371.559L531.348 336.283Z" fill="#D9D9D9"/>
<path d="M531.344 336.283L434.938 336.283L434.938 371.559L531.344 371.559L531.344 336.283Z" fill="#C5C5C5"/>
<path d="M540.17 367.145L183 367.145L183 415.653L540.17 415.653L540.17 367.145Z" fill="#C5C5C5"/>
<path d="M540.167 367.145L451.833 367.145L451.833 415.653L540.167 415.653L540.167 367.145Z" fill="#B1B1B1"/>
<path fill-rule="evenodd" clip-rule="evenodd" d="M361.585 652.178C322.128 652.178 290.028 620.078 290.028 580.625C290.028 541.168 322.128 509.068 361.585 509.068C401.038 509.068 433.138 541.168 433.138 580.625C433.138 620.082 401.038 652.178 361.585 652.178Z" fill="white"/>
<path d="M361.585 513.155C398.841 513.155 429.051 543.361 429.051 580.625C429.051 617.889 398.841 648.086 361.585 648.086C324.321 648.086 294.12 617.885 294.12 580.625C294.12 543.365 324.321 513.155 361.585 513.155ZM361.585 504.977C319.877 504.977 285.941 538.912 285.941 580.625C285.941 622.333 319.873 656.265 361.585 656.265C403.294 656.265 437.229 622.333 437.229 580.625C437.229 538.916 403.294 504.977 361.585 504.977Z" fill="#3AA970"/>
<path fill-rule="evenodd" clip-rule="evenodd" d="M413.17 580.625C413.17 609.113 390.066 632.213 361.585 632.213C333.101 632.213 309.989 609.113 309.989 580.625C309.989 552.133 333.101 529.032 361.585 529.032C390.066 529.036 413.17 552.133 413.17 580.625Z" fill="#088F4A"/>
<path fill-rule="evenodd" clip-rule="evenodd" d="M361.585 598.938C351.485 598.938 343.268 590.725 343.268 580.625C343.268 570.525 351.485 562.307 361.585 562.307C371.681 562.307 379.899 570.525 379.899 580.625C379.899 590.725 371.681 598.938 361.585 598.938Z" fill="white"/>
<path d="M361.585 563.836C370.84 563.836 378.37 571.37 378.37 580.625C378.37 589.88 370.84 597.41 361.585 597.41C352.326 597.41 344.796 589.88 344.796 580.625C344.796 571.37 352.326 563.836 361.585 563.836ZM361.585 560.786C350.625 560.786 341.743 569.672 341.743 580.629C341.743 591.581 350.625 600.467 361.585 600.467C372.538 600.467 381.424 591.581 381.424 580.629C381.424 569.668 372.538 560.786 361.585 560.786Z" fill="white"/>
<path d="M281.398 456.717C295.617 456.717 295.617 434.67 281.398 434.67C267.188 434.67 267.188 456.717 281.398 456.717Z" fill="#7D4E24"/>
<path d="M450.65 521.298C464.868 521.298 464.868 499.251 450.65 499.251C436.431 499.247 436.431 521.298 450.65 521.298Z" fill="#7D4E24"/>
<path d="M325.925 723.75C340.139 723.75 340.139 701.707 325.925 701.707C311.698 701.707 311.698 723.75 325.925 723.75Z" fill="#7D4E24"/>
<path d="M419.474 790.764C433.688 790.764 433.688 768.717 419.474 768.717C405.255 768.717 405.255 790.764 419.474 790.764Z" fill="#7D4E24"/>
<path d="M432.839 687.795C443.501 687.795 443.501 671.258 432.839 671.258C422.174 671.258 422.174 687.795 432.839 687.795Z" fill="#7D4E24"/>
<path d="M397.206 462.867C407.868 462.867 407.868 446.334 397.206 446.334C386.536 446.334 386.536 462.867 397.206 462.867Z" fill="#7D4E24"/>
<path d="M323.712 790.233C334.378 790.233 334.378 773.696 323.712 773.696C313.05 773.696 313.05 790.233 323.712 790.233Z" fill="#7D4E24"/>
<path d="M401.412 720.846C408.525 720.846 408.525 709.822 401.412 709.822C394.302 709.822 394.302 720.846 401.412 720.846Z" fill="#7D4E24"/>
<path d="M294.76 511.332C301.874 511.332 301.874 500.308 294.76 500.308C287.651 500.308 287.651 511.332 294.76 511.332Z" fill="#7D4E24"/>
<path d="M348.216 477.927C355.325 477.927 355.325 466.904 348.216 466.904C341.102 466.904 341.102 477.927 348.216 477.927Z" fill="#7D4E24"/>
<path d="M466.24 462.341C473.349 462.341 473.349 451.313 466.24 451.313C459.127 451.313 459.127 462.341 466.24 462.341Z" fill="#7D4E24"/>
<path d="M455.107 613.77C462.216 613.77 462.216 602.747 455.107 602.747C447.993 602.747 447.993 613.77 455.107 613.77Z" fill="#7D4E24"/>
<path d="M361.577 771.888C368.687 771.888 368.687 760.864 361.577 760.864C354.46 760.868 354.46 771.888 361.577 771.888Z" fill="#7D4E24"/>
<path d="M305.894 673.902C313.007 673.902 313.007 662.875 305.894 662.875C298.788 662.875 298.788 673.902 305.894 673.902Z" fill="#7D4E24"/>
</svg>
