<svg width="869" height="639" viewBox="0 0 869 639" fill="none" xmlns="http://www.w3.org/2000/svg">
<path d="M864.219 638.438H28.147C25.5173 638.438 23.3655 636.286 23.3655 633.657C23.3655 631.027 25.5173 628.875 28.147 628.875H864.219C866.848 628.875 869 631.027 869 633.657C869 636.286 866.849 638.438 864.219 638.438Z" fill="#8F93AE"/>
<path d="M181.329 463.988C182.261 465.739 182.214 467.823 181.303 469.548C179.734 472.519 176.34 474.756 173.423 477.151C164.046 484.85 159.043 495.117 159.624 505.472C159.932 510.963 161.745 516.45 161.553 521.926C161.235 531.002 155.097 539.702 145.118 545.223C135.898 550.324 123.539 552.632 111.514 551.577C108.788 544.95 105.653 536.774 111.716 531.399C113.711 529.63 116.517 528.389 118.639 526.695C128.442 518.87 120.09 506.089 123.297 495.798C125.682 488.149 134.287 482.496 142.494 477.311C149.342 472.983 156.191 468.656 163.039 464.329C167.083 461.774 172.71 459.071 177.731 460.971C179.471 461.629 180.655 462.721 181.329 463.988Z" fill="#A6B78A"/>
<path d="M152.606 501.507C149.544 517.282 149.204 534.429 135.597 545.06C130.99 548.632 125.922 550.713 120.585 551.745C129.551 551.296 138.214 549.043 145.117 545.224C155.096 539.703 161.234 531.003 161.553 521.927C161.746 516.45 159.932 510.964 159.624 505.472C159.043 495.118 164.045 484.851 173.423 477.151C176.34 474.756 179.734 472.519 181.303 469.548C181.461 469.249 181.591 468.938 181.697 468.621C167.102 473.446 155.692 483.28 152.606 501.507Z" fill="#8DA164"/>
<path d="M16.4879 476.452C22.9827 468.756 29.6999 461.251 36.629 453.95C38.5908 451.883 40.6255 449.79 43.1798 448.543C49.5102 445.453 57.2348 448.407 62.6544 452.926C68.0745 457.445 72.1753 463.425 77.713 467.797C82.6808 471.719 88.8296 474.387 92.4691 479.583C96.3755 485.162 96.5698 492.462 96.7054 499.289C97.0652 517.368 98.0262 535.436 99.5859 553.451C95.2239 544.899 92.4378 535.533 91.4133 525.972C90.7164 519.464 90.778 512.673 88.0274 506.745C84.5932 499.343 77.3996 494.577 70.5468 490.213C63.8941 485.976 56.2738 481.57 48.6161 483.396C43.598 484.592 39.6034 488.271 35.286 491.114C25.0127 497.879 11.8927 500.078 0.000488281 497.029C5.32152 490.031 10.8198 483.169 16.4879 476.452Z" fill="#A6B78A"/>
<path d="M95.1177 540.601C92.3965 527.57 95.4576 515.567 93.0768 502.535C91.3758 494.991 83.4019 490.193 76.743 483.48C70.0836 476.766 58.8348 465.692 40.351 471.328C31.052 474.164 14.7959 489.865 0.50631 496.372C0.338487 496.592 0.167349 496.809 0 497.029C11.8917 500.078 25.0123 497.879 35.2855 491.114C39.6029 488.271 43.5975 484.592 48.6156 483.396C56.2733 481.57 63.8941 485.976 70.5464 490.213C77.3991 494.578 84.5928 499.343 88.027 506.745C90.7775 512.673 90.7154 519.465 91.4123 525.972C92.1035 532.425 93.6007 538.789 95.8402 544.875C95.8857 543.423 95.5017 541.958 95.1177 540.601Z" fill="#8DA164"/>
<path d="M126.848 401.193C126.877 401.129 126.907 401.066 126.937 401.002C115.733 406.961 110.531 420.143 107.391 432.515C105.105 441.523 103.431 450.689 102.385 459.927C101.43 468.367 101.007 476.987 102.771 485.293C104.261 492.306 107.303 499.123 107.039 506.29C106.697 515.585 100.844 523.898 99.966 533.157C99.2701 540.491 101.978 548.06 107.063 553.333C110.289 551.531 113.516 549.728 116.742 547.926C118.191 547.117 119.757 546.17 120.283 544.586C120.92 542.667 119.784 540.669 118.946 538.83C115.725 531.763 116.671 523.496 118.59 515.964C121.555 504.331 126.644 493.373 130.464 481.996C134.284 470.619 136.843 458.395 134.51 446.616C132.975 438.862 129.398 431.69 127.025 424.154C124.673 416.686 123.582 408.29 126.848 401.193Z" fill="#A6B78A"/>
<path d="M141.96 549.41H83.885V628.105H141.96V549.41Z" fill="#8F93AE"/>
<path d="M148.694 622.235H76.7849V629.69H148.694V622.235Z" fill="#A5A9BE"/>
<path d="M545.767 87.8694H507.716V133.129H545.767V87.8694Z" fill="#F0B297"/>
<path d="M545.766 87.8694V101.789C536.304 109.447 523.513 114.617 507.715 115.708V87.8699H545.766V87.8694Z" fill="#D1785E"/>
<path d="M546.812 81.7621C548.504 82.2362 550.359 81.8788 551.927 81.1046C553.496 80.3309 554.819 79.1699 556.065 77.9695C559.354 74.8013 562.413 70.8095 562.18 66.3347C562.101 64.8381 561.595 63.2864 560.425 62.2989C559.031 61.1227 556.907 60.9801 555.186 61.64C553.464 62.2999 552.109 63.6486 551.109 65.151L546.812 81.7621Z" fill="#F0B297"/>
<path d="M505.679 81.7621C503.987 82.2362 502.132 81.8788 500.563 81.1046C498.995 80.3309 497.672 79.1699 496.426 77.9695C493.137 74.8013 490.078 70.8095 490.311 66.3347C490.389 64.8381 490.896 63.2864 492.066 62.2989C493.46 61.1227 495.583 60.9801 497.305 61.64C499.027 62.2999 500.381 63.6486 501.382 65.151L505.679 81.7621Z" fill="#F0B297"/>
<path d="M553.537 83.9284C554.839 69.9299 558.489 61.7677 560.745 53.6795C562.356 47.6198 563.988 37.2674 556.943 28.1405C549.98 18.658 532.507 13.272 516.509 17.8052C500.397 22.3449 491.459 31.7653 493.41 42.4884C494.395 48.9093 495.32 57.7911 496.393 64.4149C497.283 69.9213 495.608 75.4443 497.644 80.809C501.436 90.0392 516.09 106.23 527.633 106.23C537.065 106.23 552.637 90.0364 553.537 83.9284Z" fill="#F0B297"/>
<path d="M529.657 70.5639C529.562 70.846 529.445 71.0902 529.313 71.3395C529.176 71.5818 529.036 71.8496 528.787 71.9795C528.551 72.1061 528.194 72.0165 527.918 71.615C527.78 71.4177 527.682 71.1509 527.642 70.8451C527.609 70.5412 527.64 70.2003 527.754 69.8694C527.872 69.5404 528.062 69.2569 528.277 69.0436C528.498 68.8326 528.74 68.6904 528.97 68.6273C529.434 68.496 529.765 68.6577 529.869 68.9085C529.98 69.1702 529.921 69.4674 529.875 69.7428C529.822 70.0211 529.76 70.2852 529.657 70.5639Z" fill="#F2F2F2"/>
<path d="M526.726 71.5155C526.681 71.3235 526.643 71.1514 526.613 70.9983C526.586 70.8447 526.56 70.7105 526.541 70.5749C526.524 70.4356 526.514 70.2782 526.52 70.0985C526.525 69.9198 526.547 69.7216 526.572 69.5196C526.625 69.1143 526.687 68.6981 526.666 68.3453C526.647 67.9922 526.548 67.702 526.347 67.5252C526.146 67.3493 525.952 67.3526 525.738 67.4991C525.526 67.6465 525.289 67.94 525.046 68.369C524.809 68.7957 524.555 69.385 524.491 70.0933C524.458 70.4441 524.487 70.8196 524.566 71.1685C524.643 71.5207 524.772 71.8521 524.921 72.1678C525.072 72.4836 525.247 72.7637 525.428 73.0211C525.611 73.279 525.806 73.509 525.992 73.709C526.368 74.1129 526.723 74.4244 527.019 74.6572C527.617 75.118 527.975 75.2858 528.172 74.9668C528.357 74.6676 528.339 74.2993 528.016 73.7659C527.859 73.499 527.625 73.1904 527.369 72.8192C527.242 72.6334 527.111 72.4314 526.995 72.2129C526.885 72 526.787 71.762 526.726 71.5155Z" fill="#D1785E"/>
<path d="M536.557 57.1488C538.115 56.7895 539.737 56.7207 541.325 56.927C542.913 57.1322 544.471 57.6172 545.902 58.3672C547.325 59.1253 546.695 60.5698 545.273 60.227C543.858 59.8762 542.452 59.6098 541.037 59.422C539.621 59.2362 538.196 59.1324 536.743 59.1082C535.286 59.0741 535.004 57.5181 536.557 57.1488Z" fill="#1A1A1A"/>
<path d="M517.291 57.022C515.726 56.6958 514.104 56.6617 512.52 56.902C510.936 57.141 509.389 57.6591 507.974 58.439C506.565 59.2269 507.224 60.6576 508.639 60.285C510.047 59.9039 511.446 59.608 512.858 59.3904C514.27 59.1742 515.692 59.0406 517.145 58.9856C518.601 58.9197 518.852 57.3581 517.291 57.022Z" fill="#1A1A1A"/>
<path d="M515.801 68.9463L515.781 65.2258C515.771 63.4352 514.298 61.9784 512.508 61.9883C510.717 61.9983 509.261 63.4712 509.271 65.2618L509.291 68.9824C509.3 70.7725 515.811 70.7365 515.801 68.9463Z" fill="#1A1A1A"/>
<path d="M538.177 68.9463L538.198 65.2258C538.208 63.4352 539.681 61.9784 541.471 61.9883C543.261 61.9983 544.718 63.4712 544.708 65.2618L544.688 68.9824C544.678 70.7725 538.167 70.7365 538.177 68.9463Z" fill="#1A1A1A"/>
<path d="M519.996 83.1502C525.556 85.4779 532.167 84.4648 536.869 80.7424C537.595 80.1678 536.57 79.1552 535.851 79.7245C531.532 83.144 525.433 83.8784 520.379 81.7626C520.018 81.6114 519.591 81.9257 519.494 82.2651C519.375 82.678 519.64 83.0009 519.996 83.1502Z" fill="#A33939"/>
<path d="M598.653 135.966C602.806 139.205 609.964 145.876 610.39 149.451C610.816 153.027 624.413 248.029 625.262 254.18C626.966 266.514 587.644 253.853 586.156 245.81C584.669 237.768 568.242 179.193 568.242 179.193L584.11 132.681C584.11 132.681 594.271 132.548 598.653 135.966Z" fill="#393734"/>
<path d="M577.176 275.713C587.151 336.942 578.52 449.781 575.934 466.387C573.319 483.179 538.638 455.449 537.518 438.516C537.116 432.43 538.715 426.373 538.727 420.275C538.737 414.888 536.378 409.711 536.289 404.304C535.515 357.102 526.212 350.475 519.465 321.366L508.544 275.713H577.176Z" fill="#2C2A28"/>
<path d="M474.659 628.059C482.037 624.533 488.541 620.81 490.37 617.018L491.185 583.48C491.47 580.987 492.011 577.941 489.574 577.605L478.497 576.075C476.326 575.775 474.297 577.137 473.722 579.289C472.488 583.911 468.152 599.205 468.152 599.205C460.944 606.312 453.735 613.42 446.527 620.527C444.328 622.695 441.99 624.909 441.775 628.059C441.768 628.16 474.659 628.059 474.659 628.059Z" fill="#B3B3B3"/>
<path d="M490.969 592.343C490.271 592.236 492.773 610.264 484.558 611.607C484.031 611.691 483.499 611.731 482.965 611.741L482.314 604.128C482.314 604.128 470.642 598.738 461.896 599.419L459.874 603.572L435.009 617.256C432.952 619.284 429.843 622.35 429.555 626.581C429.514 627.177 429.779 627.853 430.265 628.575H493.107C493.107 628.575 491.667 592.449 490.969 592.343Z" fill="#1A1A1A"/>
<path d="M600.049 627.939C600.049 627.939 598.541 622.63 596.87 620.441L580.44 598.914C580.44 598.914 578.372 584.987 577.813 580.789C577.553 578.834 575.941 577.371 574.019 577.339L564.216 577.172C562.06 577.135 560.284 578.903 560.255 581.117L559.137 611.441C561.043 617.242 563.27 622.301 565.788 627.851L600.049 627.939Z" fill="#B3B3B3"/>
<path d="M598.505 619.127L587.391 604.563L585.856 599.949C578.326 598.17 567.576 601.289 567.576 601.289L566.163 607.842C565.7 607.76 565.242 607.653 564.793 607.509C557.798 605.225 560.039 593.238 559.421 593.236C558.802 593.235 551.471 628.575 551.471 628.575H602.153C602.178 628.384 602.199 628.192 602.21 627.999C602.43 624.269 600.068 621.174 598.505 619.127Z" fill="#1A1A1A"/>
<path d="M477.364 272.221C467.17 333.451 472.21 446.289 474.853 462.895C477.525 479.687 512.965 451.958 514.11 435.024C514.521 428.938 512.887 422.881 512.875 416.783C512.864 411.396 514.118 406.08 515.365 400.812C522.26 371.703 536.823 342.594 543.718 313.485V272.221H477.364Z" fill="#2C2A28"/>
<path d="M468.49 588.109C468.058 563.995 468.469 539.875 468.879 515.76C469.085 503.645 469.292 491.529 469.498 479.413C469.788 462.344 470.786 445.053 477.071 428.951C478.946 424.147 509.148 411.745 512.875 416.783C512.875 416.783 515.39 440.536 516.965 451.292C518.001 458.372 516.593 465.535 515.191 472.563C507.567 510.755 503.582 549.918 495.959 588.109H468.49Z" fill="#2C2A28"/>
<path d="M582.766 590.054C583.189 565.939 582.182 543.368 581.78 519.253C581.578 507.137 581.377 495.021 581.175 482.906C580.89 465.837 579.914 448.546 573.764 432.444C571.929 427.639 542.374 415.237 538.726 420.276C538.726 420.276 536.265 444.028 534.724 454.785C533.71 461.864 535.087 469.028 536.46 476.056C543.921 514.248 547.475 551.964 554.936 590.155L582.766 590.054Z" fill="#2C2A28"/>
<path d="M500.107 297.69C498.98 297.69 498.225 297.686 497.923 297.683C492.256 297.612 475.393 292.714 472.95 288.9C479.231 256.43 475.409 236.861 471.712 217.93C469.633 207.281 467.262 184.209 467.262 184.209C464.991 179.947 462.368 148.088 464.303 134.949L506.038 117.405L525.365 123.19H529.264L548.592 117.405L590.327 134.949C592.261 148.088 589.639 179.947 587.368 184.209C587.368 184.209 584.44 207.834 581.777 218.58C577.27 236.766 572.611 255.572 578.93 287.724L578.958 287.867C577.703 289.762 568.318 294.624 563.74 295.346C549.043 297.663 502.097 297.69 500.107 297.69Z" fill="#DCD0C8"/>
<path d="M534.658 141.035L541.949 133.963L537.614 122.114L527.314 121.199L517.014 122.114L512.68 133.963L519.97 141.035L508.544 252.15L527.314 274.098L546.084 252.15L534.658 141.035Z" fill="#D6513A"/>
<path d="M547.379 107.845L527.314 121.199L534.658 122.7L540.546 153.169L560.122 122.356L547.379 107.845Z" fill="#EAE3DE"/>
<path d="M507.25 107.845L527.314 121.199L519.97 122.7L514.083 153.169L494.506 122.356L507.25 107.845Z" fill="#EAE3DE"/>
<path d="M456.215 135.426C452.062 138.665 444.904 145.336 444.478 148.912C444.052 152.487 434.91 228.082 432.537 248.834C431.063 268.834 468.92 269.061 471.251 263.537C473.582 258.013 486.626 178.653 486.626 178.653L470.758 132.142C470.758 132.142 460.597 132.008 456.215 135.426Z" fill="#393734"/>
<path d="M595.287 134.254L556.97 118.767L545.207 209.605L543.718 322.522C558.417 332.544 585.523 329.092 588.495 325.324C591.468 321.555 586.615 296.264 585.986 291.405C579.331 240.01 589.124 185.147 589.124 185.147C589.124 185.147 597.55 146.708 595.287 134.254Z" fill="#393734"/>
<path d="M510.91 208.833L497.658 118.767L460.388 133.457C458.124 145.911 465.504 185.147 465.504 185.147C465.504 185.147 478.471 239.112 470.158 289.744C469.797 294.163 464.639 321.766 466.781 324.838C468.922 327.91 500.936 334.978 513.966 326.351L510.91 208.833Z" fill="#393734"/>
<path d="M551.346 50.616C549.93 50.5269 548.513 50.1742 547.266 49.6053C543.897 48.0669 540.197 47.0472 538.341 44.1013C535.852 40.1522 538.267 34.6643 534.683 33.5801C528.997 31.8592 517.697 37.1627 512.651 34.2566C511.582 33.6413 510.69 32.8012 510.027 31.8341C508.816 33.5479 507.035 35.0696 505.311 36.4151C502.202 38.8423 498.778 41.637 498.57 45.3216C498.442 47.5857 499.588 49.73 500.21 51.9278C501.391 56.0997 498.054 68.5812 498.054 68.5812C496.818 66.8868 493.321 60.5512 492.43 57.8656C491.399 54.7538 491.897 51.3897 491.128 48.2172C490.302 44.8105 488.051 41.7679 487.355 38.3379C486.562 34.4287 488.037 30.2331 491.078 27.3521C490.843 25.4511 490.774 23.5387 490.991 21.632C491.451 17.5729 493.356 13.493 496.956 10.9833C500.15 8.75605 504.797 8.0634 508.39 9.6051C514.69 4.17977 522.092 -0.752974 530.551 0.0956226C538.165 0.859834 544.112 6.16096 551.122 8.92388C555.228 10.5419 559.705 11.2829 563.854 12.8108C568.002 14.3388 572.019 16.922 573.419 20.7317C574.125 22.6541 573.864 24.8779 572.861 26.679C574.06 27.5337 574.98 28.7763 575.306 30.1089C576.029 33.0529 574.687 36.0766 573.094 38.7333C571.502 41.39 564.623 44.9409 564.083 47.9162C563.473 51.2759 557.52 68.5812 557.52 68.5812L553.47 50.543C552.777 50.6388 552.061 50.6611 551.346 50.616Z" fill="#2C1E1C"/>
<path d="M614.697 260.712C615.074 258.197 606.659 233.933 596.671 230.477C586.684 227.021 491.68 217.133 491.68 217.133C491.68 217.133 486.764 225.377 488.451 231.772C488.451 231.772 558.616 255.492 567.892 258.345C577.168 261.199 614.32 263.226 614.697 260.712Z" fill="#F0B297"/>
<path d="M495.753 218.398C495.753 218.398 476.615 210.698 475.385 210.064V237.893L493.002 231.947L495.753 218.398Z" fill="#F0B297"/>
<path d="M506.703 213.389L500.625 241.542C500.625 241.542 564.055 261.171 590.097 266.626C616.14 272.082 627.132 262.29 624.92 253.394C622.707 244.497 615.18 231.317 599.045 227.37C582.909 223.423 506.703 213.389 506.703 213.389Z" fill="#393734"/>
<path d="M446.067 261.732C446.164 259.191 454.318 230.482 464.773 228.94C475.229 227.398 581.865 243.137 581.865 243.137C581.865 243.137 577.109 257.794 573.214 259.374C573.214 259.374 519.763 261.401 500.748 263.735C491.115 264.918 445.971 264.273 446.067 261.732Z" fill="#F0B297"/>
<path d="M565.097 257.611C570.877 260.759 577.485 261.558 583.727 263.321C586.271 264.039 589.31 264.627 591.104 262.859C592.111 261.867 592.443 260.361 592.733 258.934C593.668 254.345 589.687 247.769 590.623 241.771C591.279 237.561 591.51 228.614 589.351 228.864C583.664 229.523 574.375 238.696 568.4 241.703C567.542 242.135 566.824 242.803 566.317 243.643C564.344 246.917 560.194 254.941 565.097 257.611Z" fill="#F0B297"/>
<path d="M589.21 245.499C595.251 245.644 599.347 245.369 604.126 244.245C607.121 243.54 610.404 240.944 619.41 235.556C622.758 233.553 618.207 231.077 614.648 232.705C609.327 235.138 610.341 234.967 603.77 237.097C598.435 238.827 593.488 236.612 588.22 237.401C584.675 237.932 585.606 245.413 589.21 245.499Z" fill="#F0B297"/>
<path d="M589.637 252.296C598.134 251.707 601.064 252.611 606.479 251.208C610.592 250.142 612.607 248.44 619.21 245.93C623.739 244.208 620.956 239.221 616.434 240.94C609.675 243.51 607.3 244.486 607.3 244.486C600.378 246.417 593.179 244.737 586.156 245.81C581.43 246.531 584.851 252.628 589.637 252.296Z" fill="#F0B297"/>
<path d="M589.152 257.705C596.363 259.079 603.233 259.663 606.658 259.094C608.246 258.831 614.911 256.138 616.762 255.49C619.619 254.489 621.826 252.44 621.826 252.44C623.067 251.014 621.455 248.647 619.491 249.105C617.2 249.64 609.83 252.285 604.841 253.131C597.764 254.332 593.634 250.524 586.565 250.878C581.808 251.117 584.427 256.805 589.152 257.705Z" fill="#F0B297"/>
<path d="M586.684 264.014C593.055 265.032 595.314 264.618 598.106 264.697C599.401 264.733 604.106 263.9 607.03 263.806C608.602 263.755 612.981 262.939 612.981 262.939C614.13 261.861 613.193 259.852 611.577 259.927C609.691 260.014 606.172 260.287 602.102 260.188C596.329 260.049 590.961 257.355 585.29 256.448C581.473 255.838 582.859 263.403 586.684 264.014Z" fill="#F0B297"/>
<path d="M587.36 243.74C589.974 238.553 591.509 235.001 593.955 234.107C596.604 233.138 600.157 231.798 601.701 230.834C603.246 229.869 604.853 227.598 605.019 225.717C605.352 221.937 598.411 224.467 593.216 225.44C589.083 226.213 586.905 227.707 585.096 229.441C582.848 231.594 575.165 239.277 575.165 239.277L587.36 243.74Z" fill="#F0B297"/>
<path d="M560.122 264.307L566.228 235.215C566.228 235.215 471.698 224.87 463.629 223.875C455.56 222.881 442.198 233.438 440.485 244.091C438.772 254.744 440.142 263.381 451.106 265.744C462.07 268.106 560.122 264.307 560.122 264.307Z" fill="#393734"/>
<path d="M612.763 262.123C610.406 258.718 607.204 248.164 608.11 242.473C609.016 236.782 640.405 177.556 640.405 177.556C640.405 177.556 667.766 189.809 667.399 202.022C667.399 202.022 636.281 262.074 633.563 263.255C630.844 264.437 615.254 265.722 612.763 262.123Z" fill="#F8A588"/>
<path d="M670.741 135.711C665.025 137.529 656.624 140.143 654.756 143.793C652.888 147.443 628.606 194.537 617.871 215.761C623.087 229.836 637.173 239.994 651.343 244.989C664.296 230.183 671.333 203.908 679.688 186.101L689.919 135.864C689.919 135.864 676.772 133.793 670.741 135.711Z" fill="#88996D"/>
<path d="M747.93 92.939H710.206V137.809H747.93V92.939Z" fill="#F0B297"/>
<path d="M747.93 92.9387V106.738C738.548 114.329 725.868 119.456 710.206 120.537V92.9382L747.93 92.9387Z" fill="#B36650"/>
<path d="M749.971 86.4725C751.643 86.9405 753.475 86.5877 755.024 85.8231C756.574 85.0589 757.881 83.9121 759.111 82.7264C762.36 79.597 765.382 75.6541 765.151 71.2343C765.074 69.7557 764.574 68.2235 763.417 67.2478C762.041 66.0858 759.943 65.945 758.243 66.5969C756.542 67.2488 755.204 68.5809 754.216 70.0648L749.971 86.4725Z" fill="#F0B297"/>
<path d="M709.343 86.4725C707.671 86.9405 705.839 86.5877 704.289 85.8231C702.74 85.0589 701.433 83.9121 700.202 82.7264C696.953 79.597 693.932 75.6541 694.162 71.2343C694.24 69.7557 694.74 68.2235 695.896 67.2478C697.273 66.0858 699.37 65.945 701.071 66.5969C702.771 67.2488 704.109 68.5809 705.098 70.0648L709.343 86.4725Z" fill="#F0B297"/>
<path d="M756.614 88.6121C757.9 74.7847 761.505 66.7231 763.734 58.7339C765.325 52.7483 766.937 42.5229 759.978 33.5079C753.101 24.1415 735.841 18.8215 720.039 23.2991C704.124 27.7834 695.296 37.0881 697.223 47.6799C698.196 54.0221 699.109 62.7949 700.169 69.3376C701.049 74.7767 699.394 80.2319 701.405 85.5306C705.151 94.6481 719.626 110.641 731.027 110.641C740.344 110.641 755.726 94.6452 756.614 88.6121Z" fill="#F0B297"/>
<path d="M732.607 77.6481C732.513 77.9264 732.398 78.1677 732.267 78.4142C732.132 78.6536 731.994 78.9181 731.748 79.0466C731.515 79.1713 731.162 79.0831 730.889 78.6863C730.753 78.4915 730.656 78.2279 730.617 77.9259C730.584 77.6258 730.615 77.2888 730.728 76.9626C730.844 76.6374 731.031 76.3576 731.243 76.1472C731.462 75.939 731.701 75.7982 731.928 75.7357C732.387 75.6058 732.714 75.766 732.816 76.013C732.926 76.2714 732.868 76.5648 732.823 76.8369C732.77 77.1119 732.709 77.3727 732.607 77.6481Z" fill="#F2F2F2"/>
<path d="M729.712 78.5878C729.667 78.3982 729.63 78.2285 729.6 78.0768C729.573 77.925 729.548 77.7923 729.53 77.6586C729.512 77.5207 729.502 77.3657 729.508 77.1883C729.513 77.0115 729.534 76.8162 729.56 76.6166C729.612 76.2165 729.673 75.805 729.652 75.457C729.634 75.1081 729.536 74.8217 729.338 74.6468C729.139 74.4728 728.947 74.4766 728.736 74.6212C728.527 74.7667 728.292 75.0569 728.052 75.4807C727.818 75.9022 727.568 76.4843 727.504 77.1841C727.472 77.5306 727.5 77.9018 727.578 78.246C727.654 78.594 727.782 78.9216 727.93 79.233C728.078 79.545 728.251 79.8218 728.431 80.076C728.611 80.331 728.804 80.5576 728.988 80.7553C729.359 81.154 729.71 81.4621 730.003 81.6921C730.593 82.1472 730.947 82.3131 731.142 81.9978C731.324 81.702 731.306 81.3389 730.988 80.8117C730.832 80.5481 730.601 80.2433 730.348 79.8764C730.223 79.6929 730.093 79.4933 729.979 79.2776C729.869 79.0666 729.772 78.8315 729.712 78.5878Z" fill="#D1785E"/>
<path d="M741.862 59.0154C743.562 58.7556 745.292 58.8519 746.953 59.2757C748.614 59.6976 752.2 64.2478 750.733 63.6789C749.274 63.1005 747.815 62.6255 746.335 62.2434C744.854 61.8632 743.355 61.5816 741.815 61.392C740.271 61.1891 740.166 59.288 741.862 59.0154Z" fill="#2C120D"/>
<path d="M716.746 59.2713C715.03 59.3414 713.351 59.7667 711.8 60.501C710.249 61.2339 707.574 66.3942 708.908 65.5542C710.232 64.7065 711.575 63.9599 712.956 63.3014C714.338 62.6443 715.757 62.0802 717.232 61.5995C718.709 61.1045 718.46 59.2148 716.746 59.2713Z" fill="#2C120D"/>
<path d="M718.782 73.9838L718.762 70.3088C718.752 68.5405 717.297 67.1012 715.528 67.1111C713.76 67.1211 712.321 68.5756 712.33 70.3443L712.351 74.0194C712.355 74.8471 714.056 72.6303 715.556 72.6749C717.26 72.7252 718.787 74.9244 718.782 73.9838Z" fill="#2C120D"/>
<path d="M740.884 73.9838L740.904 70.3088C740.914 68.5405 742.368 67.1012 744.137 67.1111C745.905 67.1211 747.345 68.5756 747.335 70.3443L747.314 74.0194C747.31 74.9007 745.711 72.618 744.109 72.6128C742.495 72.6066 740.879 74.8713 740.884 73.9838Z" fill="#2C120D"/>
<path d="M723.97 85.7553C726.549 89.5133 731.607 90.9963 735.813 89.2654C736.188 89.1109 736.281 88.5661 736.099 88.2433C735.882 87.8545 735.454 87.8014 735.077 87.956C731.679 89.3545 727.353 88.0428 725.279 85.02C724.738 84.2312 723.422 84.9565 723.97 85.7553Z" fill="#C2502F"/>
<path d="M805.896 263.107C809.794 261.952 815.389 257.811 816.701 252.308C818.013 246.804 810.866 172.006 810.866 172.006C810.866 172.006 781.446 172.865 777.2 184.084C777.2 184.084 790.534 249.703 791.688 252.374C792.856 255.073 801.518 264.405 805.896 263.107Z" fill="#F0B297"/>
<path d="M800.329 140.109C803.919 143.131 810.07 149.311 810.33 152.508C810.59 155.706 817.097 199.633 818.518 218.19C810.538 226.81 794.297 227.334 782.557 226.712C777.613 212.134 771.808 177.585 771.808 177.585L787.488 136.699C787.488 136.699 796.541 136.919 800.329 140.109Z" fill="#88996D"/>
<path d="M833.149 610.755L818.446 568.943H801.138L802.999 610.755C802.999 610.755 836.421 620.061 833.149 610.755Z" fill="#B3B3B3"/>
<path d="M794.438 628.875C794.438 628.875 795.928 607.366 803.371 604.811L805.977 598.058C805.977 598.058 818.633 595.138 827.566 598.058L832.032 605.237C832.032 605.237 840.221 610.347 840.965 614.606C841.71 618.865 842.454 628.876 842.454 628.876L794.438 628.875Z" fill="#393734"/>
<path d="M779.069 279.163C788.958 339.865 787.168 410.895 790.643 434.717C793.074 451.389 754.91 452.087 747.898 439.184C743.854 431.74 736.604 377.897 734.949 372.798C730.238 358.281 717.717 348.929 711.028 320.071V279.163H779.069Z" fill="#BD8F46"/>
<path d="M683.941 628.276C691.76 624.54 698.651 620.594 700.589 616.576L701.454 581.036C701.756 578.393 702.329 575.166 699.746 574.809L688.008 573.188C685.707 572.871 683.557 574.314 682.948 576.595C681.641 581.493 677.045 597.699 677.045 597.699C669.406 605.231 661.768 612.763 654.13 620.295C651.799 622.593 649.322 624.939 649.094 628.276C649.086 628.383 683.941 628.276 683.941 628.276Z" fill="#B3B3B3"/>
<path d="M701.225 590.427C700.485 590.315 703.137 609.419 694.431 610.842C693.872 610.93 693.309 610.974 692.743 610.984L692.054 602.916C692.054 602.916 679.685 597.205 670.417 597.926L668.274 602.327L641.924 616.828C639.744 618.977 636.45 622.226 636.145 626.709C636.102 627.341 636.382 628.057 636.897 628.822H703.492C703.491 628.823 701.964 590.54 701.225 590.427Z" fill="#393734"/>
<path d="M680.116 275.701C670.011 336.403 675.008 448.269 677.627 464.732C680.276 481.379 715.411 453.888 716.546 437.101C716.954 431.067 715.334 425.063 715.322 419.018C715.311 413.677 716.554 408.407 717.791 403.184C724.627 374.326 739.063 345.468 745.899 316.609V275.701H680.116Z" fill="#BD8F46"/>
<path d="M671.319 588.867C670.891 564.96 671.298 541.049 671.705 517.141C671.909 505.13 672.113 493.119 672.318 481.108C672.606 464.186 673.596 447.044 679.826 431.08C681.686 426.317 711.627 414.022 715.322 419.017C715.322 419.017 717.815 442.565 719.376 453.229C720.404 460.247 721.122 471.795 719.731 478.762C712.516 514.907 708.78 550.962 703.296 588.867H671.319Z" fill="#BD8F46"/>
<path d="M827.856 584.206C822.796 560.837 815.748 530.367 809.893 507.185C806.951 495.537 804.009 483.89 801.067 472.243C796.922 455.834 793.777 436.952 784.19 422.806C781.33 418.585 745.623 414.824 743.246 420.513C743.246 420.513 748.909 444.905 749.861 455.636C750.487 462.699 753.441 469.3 756.36 475.771C772.22 510.938 780.489 549.925 796.35 585.093L827.856 584.206Z" fill="#BD8F46"/>
<path d="M793.877 138.216L750.842 120.125L731.279 125.98H727.992L708.43 120.125L665.395 138.216C663.15 150.563 668.358 189.377 668.358 189.377C668.842 223.334 683.542 242.304 673.676 292.5C675.667 297.974 695.38 302.853 700.472 302.918C703.483 302.956 751.218 302.916 766.054 300.577C770.257 299.914 784.428 293.677 782.742 290.69C772.876 240.494 790.429 223.334 790.913 189.377C790.914 189.377 796.121 150.563 793.877 138.216Z" fill="#88996D"/>
<path d="M674.421 183.475C669.889 183.296 665.306 182.933 660.8 182.397C659.17 182.203 657.952 180.838 657.905 179.149C657.407 161.159 658.042 139.635 658.992 124.781C659.123 122.745 660.78 121.066 662.764 120.959C668.203 120.666 673.7 120.627 679.101 120.84C684.503 121.054 689.962 121.528 695.325 122.248C697.283 122.51 698.679 124.31 698.505 126.345C697.237 141.187 694.661 162.634 691.484 180.478C691.186 182.153 689.772 183.415 688.123 183.479C683.563 183.656 678.953 183.654 674.421 183.475Z" fill="#E6E6E6"/>
<path d="M688.122 183.041C678.983 183.396 669.898 183.036 660.865 181.962C659.442 181.792 658.37 180.602 658.329 179.119C657.874 162.666 658.389 140.833 659.416 124.793C659.532 122.966 661 121.492 662.769 121.396C673.674 120.81 684.502 121.239 695.254 122.683C697 122.917 698.238 124.498 698.082 126.323C696.712 142.35 693.972 164.095 691.067 180.416C690.805 181.887 689.562 182.985 688.122 183.041Z" fill="#CCCCCC"/>
<path d="M674.959 172.829C666.334 165.665 661.545 156.035 658.466 145.832C658.146 156.837 658.019 167.932 658.329 179.12C658.37 180.602 659.442 181.792 660.865 181.962C669.897 183.036 678.983 183.396 688.122 183.041C689.562 182.985 690.805 181.886 691.067 180.416C691.232 179.486 691.389 178.559 691.55 177.631C685.787 177.972 680.108 176.721 674.959 172.829Z" fill="#B3B3B3"/>
<path d="M665.677 143.437C664.436 143.329 663.502 142.149 663.604 140.816L664.493 129.111C664.595 127.778 665.693 126.777 666.935 126.885C668.177 126.994 669.11 128.173 669.009 129.506L668.119 141.212C668.018 142.544 666.919 143.546 665.677 143.437Z" fill="#B3B3B3"/>
<path d="M668.335 130.746C668.259 131.743 667.444 132.486 666.515 132.405C665.586 132.323 664.894 131.449 664.97 130.451C665.046 129.454 665.861 128.711 666.79 128.792C667.719 128.874 668.411 129.748 668.335 130.746Z" fill="#999999"/>
<path d="M666.525 132.275C665.663 132.2 665.02 131.387 665.09 130.462C665.16 129.537 665.918 128.847 666.779 128.922C667.641 128.997 668.284 129.811 668.214 130.735C668.144 131.66 667.387 132.35 666.525 132.275Z" fill="#1A1A1A"/>
<path d="M667.989 135.309C667.913 136.306 667.098 137.049 666.169 136.967C665.24 136.886 664.548 136.012 664.623 135.014C664.699 134.017 665.514 133.274 666.443 133.355C667.373 133.437 668.065 134.311 667.989 135.309Z" fill="#999999"/>
<path d="M666.178 136.838C665.316 136.762 664.673 135.949 664.743 135.024C664.813 134.1 665.572 133.409 666.433 133.485C667.294 133.56 667.938 134.374 667.868 135.298C667.798 136.223 667.04 136.913 666.178 136.838Z" fill="#1A1A1A"/>
<path d="M667.642 139.871C667.567 140.869 666.752 141.611 665.822 141.53C664.893 141.448 664.201 140.574 664.277 139.577C664.353 138.579 665.168 137.836 666.097 137.918C667.026 138 667.718 138.874 667.642 139.871Z" fill="#999999"/>
<path d="M665.832 141.401C664.97 141.325 664.327 140.512 664.397 139.587C664.467 138.663 665.225 137.972 666.086 138.048C666.948 138.123 667.592 138.936 667.522 139.861C667.451 140.785 666.693 141.476 665.832 141.401Z" fill="#1A1A1A"/>
<path d="M644.237 175.728C641.552 186.066 655.408 192.537 660.935 189.315C664.558 187.202 663.036 179.917 665.719 169.58C666.845 165.243 661.812 154.384 661.415 152.859C661.415 152.859 646.921 165.39 644.237 175.728Z" fill="#F0B297"/>
<path d="M672.169 180.27C671.487 180.028 668.882 180.241 668.123 181.105C666.145 183.356 664.819 187.13 661.625 189.073C660.581 189.708 659.158 188.982 658.154 188.149C657.282 187.426 656.987 185.826 657.858 184.959C660.421 182.411 663.297 178.431 666.268 176.325C667.617 175.368 671.463 175.76 673.976 176.127C678.03 176.719 681.599 177.161 685.444 178.619C688.177 179.655 685.246 182.124 682.372 181.39C682.372 181.39 672.431 180.363 672.169 180.27Z" fill="#F0B297"/>
<path d="M654.889 159.256C657.027 155.672 664.392 149.054 667.889 146.457C671.385 143.86 683.859 139.592 687.467 138.115C691.075 136.637 691.848 141.985 687.096 144.037C682.343 146.09 670.872 151.707 670.872 151.707C670.872 151.707 664.168 161.185 662.908 163.55C661.649 165.917 652.752 162.841 654.889 159.256Z" fill="#F0B297"/>
<path d="M662.452 162.74L675.032 156.329C675.032 156.329 689.201 154.283 692.842 154.074C696.484 153.864 695.737 158.861 691.315 159.416C686.893 159.972 676.01 162.052 676.01 162.052C676.01 162.052 662.996 170.502 661.814 171.699C660.632 172.896 662.452 162.74 662.452 162.74Z" fill="#F0B297"/>
<path d="M660.091 172.798L671.839 165.306C671.839 165.306 684.292 163.767 687.934 163.557C691.575 163.347 690.829 168.345 686.407 168.9C681.985 169.455 672.743 170.848 672.743 170.848C672.743 170.848 661.266 179.602 660.084 180.799C658.901 181.996 660.091 172.798 660.091 172.798Z" fill="#F0B297"/>
<path d="M605.851 245.665C603.721 256.602 606.495 263.419 614.329 266.733C622.807 270.319 632.986 268.982 636.391 257.545C639.795 246.108 659.337 178.933 659.337 178.933C659.337 178.933 650.975 170.095 646.715 173.391C644.368 175.207 607.684 236.258 605.851 245.665Z" fill="#F0B297"/>
<path d="M748.344 112.742L729.636 125.981L736.916 127.469L742.753 157.676L758.846 132.346C760.792 129.283 760.393 125.286 757.879 122.669L748.344 112.742Z" fill="#F9F1E8"/>
<path d="M709.745 112.742L729.636 125.981L722.356 127.469L716.519 157.676L700.276 132.111C698.401 129.158 698.698 125.321 701.006 122.693L709.745 112.742Z" fill="#F9F1E8"/>
<path d="M765.777 52.4977C766.513 48.56 766.833 44.5759 766.182 40.6434C765.168 34.5174 761.315 28.49 755.347 26.5003C758.609 24.347 758.908 19.4147 756.888 16.0986C754.867 12.7824 751.196 10.8055 747.54 9.39371C735.211 4.63209 720.559 4.8421 709.293 11.7001C698.072 18.531 691.78 34.6833 694.371 45.0485C696.962 55.4137 698.094 60.8163 705.254 60.4119C711.593 60.054 717.202 56.3258 722.029 52.2621C726.855 48.1983 734.092 40.879 739.803 38.1464C744.309 35.9903 749.885 35.2636 754.407 37.0499C759.672 48.4647 758.329 61.5492 758.88 75.0452C760.494 70.1348 762.895 64.1396 764.256 59.0262C764.827 56.8753 765.367 54.6941 765.777 52.4977Z" fill="#2C120D"/>
<path d="M700.439 74.5143L703.558 40.3262C703.558 40.3262 698.644 35.96 696.219 37.9843C693.793 40.0086 700.439 74.5143 700.439 74.5143Z" fill="#2C120D"/>
<path d="M801.606 238.284C799.421 237.829 788.654 251.391 784.223 258.686C779.792 265.98 761.676 322.092 761.676 322.092C761.676 322.092 769.044 330.054 775.242 329.221C775.242 329.221 815.735 262.663 816.691 254.934C818.61 239.413 803.791 238.739 801.606 238.284Z" fill="#F0B297"/>
<path d="M765.769 312.321C765.769 312.321 754.746 312.881 754.459 318.208C754.171 323.534 769.698 338.774 775.449 335.898C781.199 333.023 779.79 323.837 777.763 320.092C775.736 316.346 770.223 311.659 765.769 312.321Z" fill="#F0B297"/>
<path d="M386.45 97.2618C394.723 122.425 394.589 150.644 382.983 174.454C379.171 182.273 373.174 190.314 364.53 191.278C359.636 191.824 354.832 189.951 350.264 188.113C334.22 181.657 317.992 175.102 304.005 164.931C298.021 160.579 291.988 154.403 292.678 147.037C293.097 142.572 295.992 138.697 299.347 135.721C302.702 132.745 306.591 130.42 309.945 127.442C325.317 113.797 325.27 87.4347 341.804 75.2225C346.318 71.8892 383.764 89.092 386.45 97.2618Z" fill="#F57780"/>
<path d="M241.189 241.386C239.685 238.52 238.208 230.026 239.454 225.697C240.7 221.368 270.704 178.413 270.704 178.413C270.704 178.413 290.762 190.53 289.312 199.971C289.312 199.971 257.948 241.836 255.904 242.927C251.344 245.36 242.779 244.416 241.189 241.386Z" fill="#F8A588"/>
<path d="M297.803 148.972C293.195 149.837 284.809 152.189 283.012 154.842C281.214 157.496 260.286 187.556 249.933 202.998C252.637 214.416 263.528 218.691 274.045 223.918C285.507 213.667 292.184 201.809 300.366 188.791L312.017 153.82C312.017 153.82 302.665 148.059 297.803 148.972Z" fill="#2B2927"/>
<path d="M250.111 220.732C248.397 220.053 239.454 225.697 233.212 233.164C228.691 238.572 209.507 285.618 209.507 285.618C209.507 285.618 209.505 293.187 212.503 296.082C212.503 296.082 252.719 252.76 257.32 242.253C259.901 236.36 251.826 221.41 250.111 220.732Z" fill="#F8A588"/>
<path d="M199.628 287.158C199.628 287.158 191.151 288.455 187.494 287.957C183.837 287.46 186.289 292.73 189.923 293.464C193.558 294.199 194.575 295.322 198.692 298.024C202.809 300.726 209.477 303.501 211.504 302.744C213.531 301.987 216.693 291.596 218.113 288.506C219.534 285.415 216.061 279.781 212.877 280.929C209.693 282.076 202.52 286.772 199.628 287.158Z" fill="#F8A588"/>
<path d="M230.426 222.608L226.053 217.124L160.468 251.751L171.11 253.422C171.11 253.422 193.925 255.897 230.426 222.608Z" fill="#856861"/>
<path d="M229.006 324.273L217.727 321.508L160.468 251.751L172.206 253.29L229.006 324.273Z" fill="#856861"/>
<path d="M192.895 281.959L171.829 255.633L164.481 254.669L187.732 282.994L192.895 281.959Z" fill="white"/>
<path d="M171.501 253.197C171.501 253.197 203.046 231.231 231.987 218.494L275.221 299.37L229.005 324.273L171.501 253.197Z" fill="#B28B81"/>
<path d="M199.696 290.296C199.696 290.296 197.891 291.913 192.23 296.55C186.568 301.188 191.229 304.489 194.502 301.816C197.774 299.144 202.23 293.674 204.539 291.638C206.848 289.601 202.798 287.652 199.696 290.296Z" fill="#F8A588"/>
<path d="M192.07 302.772C192.795 302.737 193.493 302.472 194.085 302.069C194.384 301.871 194.645 301.619 194.918 301.383C195.191 301.147 195.448 300.892 195.714 300.647C196.759 299.649 197.754 298.598 198.736 297.535L201.674 294.335C202.166 293.803 202.66 293.271 203.167 292.751C203.419 292.489 203.679 292.234 203.939 291.979C204.2 291.725 204.491 291.486 204.707 291.237C204.82 291.11 204.905 290.968 204.976 290.823C205.035 290.674 205.068 290.52 205.061 290.367C205.037 290.062 204.837 289.784 204.562 289.598C204.007 289.217 203.268 289.122 202.579 289.181C201.88 289.242 201.199 289.478 200.59 289.832C200.281 290.005 200.001 290.222 199.729 290.448L198.9 291.153C196.68 293.018 194.425 294.836 192.144 296.623L195.445 293.797C196.549 292.859 197.65 291.919 198.739 290.965L199.551 290.246C199.832 290.006 200.127 289.776 200.449 289.592C201.088 289.216 201.806 288.96 202.552 288.89C203.29 288.825 204.082 288.907 204.738 289.345C205.06 289.559 205.339 289.916 205.375 290.343C205.388 290.553 205.343 290.759 205.269 290.947C205.183 291.127 205.081 291.3 204.953 291.443C204.691 291.738 204.415 291.956 204.156 292.206C203.897 292.456 203.638 292.706 203.387 292.965C202.879 293.478 202.384 294.006 201.888 294.533C200.898 295.589 199.924 296.661 198.916 297.704C197.91 298.748 196.892 299.783 195.821 300.762C195.546 300.999 195.28 301.246 194.997 301.475C194.716 301.702 194.445 301.947 194.132 302.14C193.516 302.533 192.797 302.772 192.07 302.772Z" fill="#B36650"/>
<path d="M201.668 293.637C201.668 293.637 200.177 295.55 195.421 301.118C190.666 306.685 195.912 309.229 198.663 306.018C201.413 302.808 204.816 296.604 206.729 294.188C208.642 291.773 204.254 290.483 201.668 293.637Z" fill="#F8A588"/>
<path d="M194.46 307.037C195.14 307.453 195.99 307.484 196.73 307.255C197.479 307.026 198.126 306.541 198.621 305.946C199.619 304.731 200.513 303.43 201.371 302.109C202.226 300.785 203.069 299.452 203.908 298.115C204.758 296.783 205.579 295.436 206.545 294.166C206.782 293.864 206.987 293.546 207.029 293.196C207.051 293.025 207.032 292.855 206.965 292.7C206.896 292.547 206.78 292.414 206.641 292.306C206.362 292.086 205.989 291.981 205.62 291.936C205.246 291.898 204.863 291.926 204.491 292.006C203.744 292.165 203.046 292.533 202.46 293.028C202.161 293.275 201.906 293.557 201.661 293.863L200.907 294.778C199.896 295.991 198.871 297.192 197.842 298.389L196.283 300.172L195.502 301.06C195.246 301.36 195.001 301.669 194.75 301.974C194.988 301.66 195.221 301.34 195.465 301.029L196.218 300.116L197.721 298.287C198.726 297.07 199.729 295.852 200.715 294.621L201.449 293.695C201.693 293.382 201.97 293.075 202.279 292.817C202.893 292.291 203.63 291.896 204.428 291.72C204.826 291.633 205.239 291.599 205.651 291.639C206.059 291.687 206.48 291.796 206.828 292.063C207 292.194 207.154 292.365 207.249 292.574C207.342 292.782 207.368 293.016 207.341 293.235C207.289 293.68 207.041 294.049 206.797 294.364C205.844 295.602 205.01 296.948 204.155 298.272C203.304 299.601 202.466 300.94 201.576 302.246C200.69 303.554 199.771 304.845 198.739 306.048C198.21 306.647 197.527 307.126 196.753 307.337C195.989 307.552 195.121 307.483 194.46 307.037Z" fill="#B36650"/>
<path d="M206.172 295.882C206.172 295.882 204.793 297.795 200.382 303.384C195.969 308.974 201.088 311.138 203.64 307.914C206.192 304.691 209.284 298.563 211.054 296.145C212.824 293.727 208.568 292.722 206.172 295.882Z" fill="#F8A588"/>
<path d="M201.529 309.331C202.211 309.146 202.819 308.749 203.297 308.242C203.54 307.992 203.735 307.698 203.946 307.416C204.156 307.134 204.347 306.838 204.548 306.55C205.333 305.383 206.06 304.177 206.771 302.961L208.895 299.306C209.252 298.698 209.61 298.09 209.983 297.489C210.167 297.188 210.362 296.891 210.555 296.594C210.751 296.298 210.977 296.011 211.13 295.728C211.211 295.584 211.262 295.431 211.299 295.279C211.323 295.125 211.323 294.972 211.284 294.828C211.197 294.543 210.95 294.321 210.65 294.201C210.042 293.955 209.32 294.019 208.678 294.219C208.026 294.423 207.428 294.789 206.923 295.253C206.665 295.482 206.446 295.747 206.234 296.018L205.593 296.861C203.873 299.097 202.109 301.296 200.313 303.47L202.862 300.095C203.714 298.974 204.565 297.85 205.401 296.717L206.022 295.864C206.239 295.577 206.471 295.297 206.739 295.055C207.267 294.563 207.896 294.17 208.591 293.948C209.279 293.733 210.048 293.645 210.764 293.925C211.114 294.061 211.454 294.341 211.577 294.74C211.634 294.937 211.634 295.142 211.603 295.336C211.56 295.526 211.498 295.71 211.405 295.874C211.219 296.209 211.002 296.474 210.808 296.765C210.614 297.057 210.42 297.349 210.235 297.648C209.86 298.241 209.499 298.846 209.138 299.451C208.418 300.66 207.716 301.884 206.975 303.084C206.238 304.287 205.487 305.482 204.673 306.637C204.461 306.92 204.259 307.21 204.039 307.486C203.818 307.761 203.612 308.051 203.355 308.299C202.854 308.802 202.219 309.179 201.529 309.331Z" fill="#B36650"/>
<path d="M209.505 299.224C209.505 299.224 208.302 300.983 204.437 306.124C200.571 311.265 205.31 313.208 207.546 310.244C209.783 307.279 212.427 301.655 213.972 299.432C215.517 297.21 211.6 296.318 209.505 299.224Z" fill="#F8A588"/>
<path d="M203.918 311.367C204.536 311.694 205.283 311.675 205.919 311.434C206.564 311.193 207.104 310.732 207.506 310.183C208.315 309.063 209.026 307.874 209.707 306.669C210.385 305.461 211.051 304.247 211.714 303.029C212.386 301.815 213.033 300.588 213.81 299.422C214.001 299.145 214.164 298.855 214.182 298.546C214.191 298.395 214.165 298.246 214.099 298.115C214.03 297.984 213.921 297.874 213.793 297.787C213.536 297.609 213.203 297.538 212.877 297.519C212.547 297.506 212.213 297.551 211.891 297.641C211.246 297.822 210.653 298.182 210.167 298.648C209.918 298.881 209.71 299.142 209.512 299.424L208.901 300.267C208.081 301.386 207.248 302.495 206.41 303.6L205.141 305.248L204.504 306.07C204.297 306.347 204.098 306.631 203.895 306.912C204.086 306.623 204.273 306.33 204.47 306.045L205.081 305.203L206.299 303.517C207.113 302.396 207.926 301.273 208.724 300.14L209.317 299.288C209.514 299.001 209.739 298.716 209.996 298.473C210.506 297.979 211.13 297.592 211.821 297.394C212.165 297.295 212.525 297.243 212.889 297.255C213.249 297.275 213.624 297.348 213.944 297.563C214.102 297.669 214.245 297.81 214.34 297.988C214.433 298.165 214.468 298.369 214.457 298.563C214.436 298.955 214.239 299.293 214.042 299.582C213.273 300.72 212.616 301.946 211.938 303.153C211.265 304.364 210.603 305.584 209.894 306.777C209.189 307.973 208.453 309.154 207.615 310.266C207.184 310.82 206.611 311.277 205.944 311.505C205.285 311.734 204.521 311.722 203.918 311.367Z" fill="#B36650"/>
<path d="M285.621 189.406C290.125 186.5 305.062 151.405 305.062 151.405L339.754 156.918L379.895 168.831C379.895 168.831 370.56 205.797 373.255 210.43C382.894 227.002 364.406 239.49 357.648 246.003C345.545 266.564 342.447 287.523 337.398 308.005C325.755 307.25 315.166 305.668 304.597 303.46C294.176 300.632 284.022 297.238 273.304 292.628C278.098 272.085 284.846 252.002 283.389 228.187C280.321 219.317 269.512 199.801 285.621 189.406Z" fill="#2B2927"/>
<path d="M345.961 176.062L328.839 171.954C323.499 170.673 320.209 165.305 321.489 159.965L329.574 126.266L366.035 135.013L357.95 168.713C356.669 174.053 351.301 177.343 345.961 176.062Z" fill="#F8A588"/>
<path d="M329.575 126.266L326.375 139.603C333.682 149.116 344.749 157.011 359.636 161.688L366.035 135.013L329.575 126.266Z" fill="#B36650"/>
<path d="M453.353 206.662C452.756 203.481 448.647 195.902 444.985 193.279C441.323 190.656 391.148 175.562 391.148 175.562C391.148 175.562 382.926 197.507 389.917 204.013C389.917 204.013 436.399 221.557 442.553 218.849C449.947 215.595 453.985 210.025 453.353 206.662Z" fill="#F8A588"/>
<path d="M364.047 170.882C366.491 166.881 373.21 166.467 376.289 167.358C379.651 168.33 401.901 174.215 421.29 182.545C424.511 193.828 418.045 208.572 411.425 218.274C397.214 215.111 376.442 211.035 360.065 208.642C360.065 208.642 361.576 174.931 364.047 170.882Z" fill="#2B2927"/>
<path d="M335.109 127.556C333.455 127.341 331.967 126.34 330.884 125.081C329.802 123.822 329.077 122.316 328.434 120.804C326.738 116.814 325.549 112.19 327.415 108.367C328.04 107.089 329.058 105.921 330.448 105.493C332.103 104.984 334.011 105.648 335.27 106.864C336.529 108.081 337.212 109.762 337.527 111.447L335.109 127.556Z" fill="#F8A588"/>
<path d="M371.045 142.84C372.347 143.883 374.101 144.259 375.758 144.166C377.416 144.073 379.004 143.55 380.539 142.965C384.59 141.419 388.745 139.068 390.204 135.072C390.691 133.735 390.826 132.192 390.17 130.894C389.389 129.349 387.587 128.435 385.838 128.372C384.088 128.309 382.404 128.984 380.971 129.925L371.045 142.84Z" fill="#F8A588"/>
<path d="M329.483 124.471C333.329 112.269 333.046 104.081 333.955 96.4716C334.704 90.8002 336.965 81.5282 346.369 76.5064C355.828 71.1559 373.011 73.1399 385.375 82.8789C397.835 92.6657 404.253 107.583 398.731 115.834C395.584 120.842 389.652 124.224 386.356 129.37C383.617 133.648 383.114 138.894 379.426 142.628C372.827 148.946 354.259 157.054 344.175 152.765C335.933 149.26 328.094 129.918 329.483 124.471Z" fill="#F8A588"/>
<path d="M354.336 109.717C353.179 108.903 351.877 108.287 350.514 107.892C349.15 107.497 347.721 107.324 346.309 107.397C344.901 107.479 343.5 107.785 342.256 108.457C343.653 108.648 344.949 108.797 346.221 109.03C347.491 109.255 348.725 109.541 349.942 109.89C351.158 110.24 352.356 110.656 353.55 111.143C354.752 111.623 355.485 110.538 354.336 109.717Z" fill="#1A1A1A"/>
<path d="M371.339 116.699C372.723 116.995 374.059 117.532 375.275 118.266C376.491 118.998 377.588 119.929 378.492 121.014C379.387 122.103 380.114 123.339 380.464 124.707C379.376 123.811 378.386 122.962 377.351 122.187C376.324 121.408 375.276 120.696 374.194 120.041C373.111 119.386 371.992 118.79 370.824 118.243C369.655 117.688 369.955 116.413 371.339 116.699Z" fill="#1A1A1A"/>
<path d="M353.787 126.283C353.765 126.564 353.776 126.821 353.8 127.088C353.829 127.35 353.851 127.637 354.02 127.842C354.18 128.041 354.525 128.095 354.916 127.847C355.11 127.726 355.295 127.53 355.443 127.277C355.584 127.024 355.684 126.714 355.707 126.383C355.727 126.052 355.666 125.734 355.557 125.468C355.443 125.201 355.284 124.987 355.107 124.846C354.75 124.559 354.4 124.578 354.217 124.758C354.022 124.945 353.964 125.227 353.901 125.484C353.845 125.747 353.801 126.001 353.787 126.283Z" fill="#F2F2F2"/>
<path d="M355.995 128.203C356.106 128.052 356.203 127.916 356.286 127.793C356.367 127.669 356.439 127.561 356.506 127.449C356.574 127.334 356.64 127.201 356.702 127.041C356.764 126.883 356.819 126.702 356.872 126.516C356.977 126.143 357.077 125.756 357.226 125.456C357.374 125.154 357.569 124.938 357.81 124.858C358.05 124.779 358.219 124.854 358.351 125.061C358.481 125.269 358.58 125.613 358.632 126.078C358.681 126.539 358.683 127.148 358.477 127.791C358.375 128.11 358.21 128.428 358.011 128.702C357.814 128.982 357.577 129.223 357.329 129.443C357.081 129.663 356.823 129.844 356.569 130C356.313 130.158 356.058 130.286 355.821 130.392C355.343 130.605 354.916 130.745 354.571 130.839C353.877 131.02 353.502 131.033 353.448 130.681C353.399 130.351 353.551 130.036 354.031 129.69C354.268 129.516 354.587 129.333 354.948 129.104C355.128 128.989 355.318 128.861 355.5 128.713C355.676 128.567 355.85 128.396 355.995 128.203Z" fill="#D1785E"/>
<path d="M350.798 118.851C351.529 117.133 350.194 113.516 348.266 112.696C346.656 112.022 344.786 112.788 344.112 114.398L343.528 115.797C343.191 116.601 345.614 114.344 347.421 115.121C349.234 115.9 350.432 119.711 350.798 118.851Z" fill="#1A1A1A"/>
<path d="M348.906 113.086C348.906 113.086 346.989 111.747 344.623 112.239C342.257 112.731 341.28 111.491 341.28 111.491C341.28 111.491 342.175 113.587 344.374 113.499C346.573 113.41 347.296 114.164 347.296 114.164L348.906 113.086Z" fill="#1A1A1A"/>
<path d="M367.013 125.748C367.744 124.03 371.276 122.483 373.203 123.302C374.806 123.995 375.551 125.872 374.859 127.475L374.256 128.866C373.913 129.659 373.093 126.523 371.292 125.774C369.455 125.01 366.644 126.615 367.013 125.748Z" fill="#1A1A1A"/>
<path d="M372.479 123.111C372.479 123.111 374.773 123.564 376.059 125.609C377.346 127.655 378.916 127.498 378.916 127.498C378.916 127.498 376.786 128.308 375.324 126.662C373.863 125.017 372.818 125.018 372.818 125.018L372.479 123.111Z" fill="#1A1A1A"/>
<path d="M359.113 137.997C353.391 137.965 347.991 134.623 345.266 129.624C344.846 128.852 346.117 128.348 346.534 129.113C349.037 133.705 354.093 136.613 359.294 136.642C359.667 136.645 359.922 137.078 359.881 137.41C359.831 137.816 359.48 137.999 359.113 137.997Z" fill="#A33939"/>
<path d="M340.861 90.2052C341.213 89.5049 341.469 89.0816 341.601 89.0124C342.832 88.3667 338.134 101.098 338.134 101.098C351.86 105.394 385.04 121.749 385.04 121.749L391.707 110.147C392.847 113.789 380.214 139.908 380.214 139.908C387.486 132.16 398.759 117.884 403.408 108.698C406.035 103.507 403.298 98.0578 400.135 95.9405C401.797 86.2827 395.765 80.0049 387.95 73.6097C378.841 66.1553 365.656 64.396 354.613 68.1829C343.57 71.9698 335.819 78.12 333.441 89.4063C330.958 101.19 326.36 109.586 328.369 121.019C328.369 121.019 337.933 96.0292 340.861 90.2052Z" fill="#F57780"/>
<path d="M389.776 103.414C391.733 120.319 389.048 137.477 384.455 153.863C381.766 163.455 378.087 173.362 370.398 179.695C365.361 183.845 358.131 185.747 351.925 184.435C356.211 188.322 361.869 190.71 367.659 190.914C375.359 191.185 383.098 187.585 387.852 181.522C392.718 175.314 394.301 167.225 395.738 159.47C397.963 147.459 400.188 135.448 402.413 123.438C403.773 116.098 406.088 107.876 403.659 100.409C402.472 96.7582 389.776 103.414 389.776 103.414Z" fill="#F57780"/>
<path d="M357.381 529.958C357.096 552.694 356.833 575.507 356.958 580.893L344.44 581.451C342.105 565.998 339.066 547.593 335.99 529.958H357.381Z" fill="#F0B59C"/>
<path d="M340.36 581.917C340.441 575.058 344.807 573.629 344.807 573.629L359.165 579.263C359.165 579.263 381.825 627.803 378.259 628.875L353.7 628.85C346.337 629.012 348.245 617.315 345.396 611.114L345.53 629.012H342.326L340.832 604.081C340.588 603.205 340.419 602.458 340.353 601.902C339.999 598.959 340.252 591.084 340.36 581.917Z" fill="#B13117"/>
<path d="M356.825 572.271C358.08 575.785 363.45 589.361 364.832 593.674C365.903 597.017 368.322 604.514 369.903 609.41C370.647 611.714 368.979 614.087 366.56 614.172L351.413 614.491L343.433 576.598C343.296 575.479 343.214 569.715 345.627 568.278C348.039 566.84 355.571 568.758 356.825 572.271Z" fill="#F0B59C"/>
<path d="M222.689 501.002L235.584 511.922C223.565 524.682 211.675 537.489 207.808 541.503L197.857 533.808C207.674 524.202 215.727 512.736 222.689 501.002Z" fill="#F0B59C"/>
<path d="M199.578 528.796C199.578 528.796 171.133 548.879 166.616 552.325C162.099 555.771 158.531 563.065 158.65 565.892L177.321 581.703C181.081 583.373 209.396 539.755 209.396 539.755L199.578 528.796Z" fill="#B13117"/>
<path d="M214.388 534.102C211.939 536.994 202.877 548.505 199.749 551.953C195.993 556.093 185.044 568.229 185.044 568.229C185.044 568.229 173.471 559.743 173.231 557.3C172.55 550.361 180.831 544.043 180.831 544.043L199.973 528.01C200.954 527.259 206.478 523.792 209.713 524.5C212.948 525.207 216.836 531.211 214.388 534.102Z" fill="#F0B59C"/>
<path d="M343.93 282.913C343.93 282.913 363.272 337.011 363.106 346.836C362.94 356.661 363.106 427.314 363.106 427.314C363.106 427.314 335.055 450.607 324.128 434.347C318.242 425.589 318.17 351.611 318.17 351.611L300.834 343.776L304.208 281.485L343.93 282.913Z" fill="#90A3B5"/>
<path d="M363.77 565.078C363.77 565.078 337.358 573.547 335.359 565.078C333.359 556.609 329.216 476.921 326.817 459.465C324.417 442.009 320.291 419.7 321.702 411.71C323.113 403.719 361.265 405.515 362.186 416.414C363.106 427.314 366.577 446.291 366.441 456.877C366.305 467.464 363.77 565.078 363.77 565.078Z" fill="#90A3B5"/>
<path d="M277.387 274.904C277.387 274.904 254.843 321.764 256.04 331.59C257.236 341.415 267.814 427.418 267.814 427.418C267.814 427.418 298.306 450.711 307.528 434.451C312.496 425.693 304.208 340.579 304.208 340.579L317.618 340.683V282.477L277.387 274.904Z" fill="#90A3B5"/>
<path d="M197.694 522.247C197.694 522.247 213.451 545.884 219.375 540.608C225.3 535.332 271.063 480.858 281.96 468.871C292.858 456.884 307.299 442.113 308.575 428.539C309.659 417.005 282.477 400.119 276.114 407.977C269.751 415.836 257.246 428.31 251.852 436.607C246.457 444.905 197.694 522.247 197.694 522.247Z" fill="#90A3B5"/>
<path d="M425.197 212.554C425.497 214.465 439.131 221.805 446.947 223.162C454.764 224.519 511.676 222.182 511.676 222.182C511.676 222.182 524.043 217.641 521.001 212.46C517.958 207.279 450.429 196.941 439.977 197.578C432.737 198.02 424.898 210.644 425.197 212.554Z" fill="#F8A588"/>
<path d="M409.244 450.149H561.218V437.75H409.244V450.149Z" fill="#CCCCCC"/>
<path d="M522.477 447.649H543.51L566.25 628.565H562.27L522.477 447.649Z" fill="#8F93AE"/>
<path d="M445.021 447.649H423.987L401.248 628.565H405.228L445.021 447.649Z" fill="#8F93AE"/>
<path d="M405.467 444.562H562.031C564.86 444.562 567.174 442.247 567.174 439.419V437.227C567.174 434.398 564.86 432.083 562.031 432.083H405.467C402.638 432.083 400.324 434.398 400.324 437.227V439.419C400.324 442.247 402.638 444.562 405.467 444.562Z" fill="#333333"/>
<path d="M435.789 431.074H531.709C543.564 431.074 553.264 421.375 553.264 409.52V276.639C553.264 264.785 543.564 255.085 531.709 255.085H435.789C423.934 255.085 414.235 264.785 414.235 276.639V409.52C414.234 421.375 423.934 431.074 435.789 431.074Z" fill="#4D4D4D"/>
<path d="M548.31 409.023V277.135C548.31 268.008 540.912 260.609 531.785 260.609H435.713C426.587 260.609 419.188 268.008 419.188 277.135V409.023C419.188 418.15 426.586 425.549 435.713 425.549H531.785C540.912 425.549 548.31 418.15 548.31 409.023Z" fill="#999999"/>
<path d="M401.828 436.253H565.671C566.498 436.253 567.174 435.442 567.174 434.45V432.084C567.174 431.093 557.202 427.915 556.468 427.915H411.03C410.296 427.915 400.324 431.092 400.324 432.084V434.45C400.324 435.441 401.001 436.253 401.828 436.253Z" fill="#999999"/>
<path d="M401.828 433.887H565.671C566.498 433.887 567.174 433.076 567.174 432.084C567.174 431.093 557.202 425.549 556.468 425.549H411.03C410.296 425.549 400.324 431.092 400.324 432.084C400.324 433.075 401.001 433.887 401.828 433.887Z" fill="#4D4D4D"/>
<path d="M453.627 146.574C441.871 176.132 435.95 210.532 427.543 244.321C450.846 254.776 475.767 261.615 501.141 264.526C508.245 234.675 515.057 200.777 519.319 170.426C519.319 170.426 514.182 148.674 494.524 144.958C474.865 141.242 453.627 146.574 453.627 146.574Z" fill="#3F1B1B"/>
<path d="M572.317 338.688C574.49 335.709 575.284 328.463 574.603 323.378C573.922 318.293 547.375 260.657 547.375 260.657C547.375 260.657 522.753 270.963 522.811 281.842C522.811 281.842 549.688 335.254 551.586 337.088C563.123 348.234 570.02 341.836 572.317 338.688Z" fill="#F0B297"/>
<path d="M523.717 225.46C529.668 226.516 535.194 230.194 536.67 233.262C538.146 236.331 561.983 279.716 570.462 297.558C560.722 308.133 549.301 313.5 537.433 317.358C537.433 317.358 526.776 284.69 520.202 269.733L507.762 224.296C507.762 224.296 518.542 224.541 523.717 225.46Z" fill="#DB9487"/>
<path d="M435.42 420.063C434.305 404.448 432.434 392.896 447.694 392.372C458.01 392.017 464.286 393.119 466.649 402.688C466.649 402.688 468.089 452.462 469.631 479.848C471.025 504.587 475.026 546.628 478.711 579.861L465.696 583.766C463.237 573.47 443.17 501.225 438.223 482.749C426.551 439.156 436.464 434.673 435.42 420.063Z" fill="#F8A588"/>
<path d="M484.253 582.498C483.678 575.448 479.088 573.98 479.088 573.98L464.735 579.77C464.735 579.77 443.853 628.929 447.595 630.031L473.91 630.734C481.49 630.901 478.69 618.879 481.172 612.506L482.319 630.901H485.613L485.359 605.278C485.547 604.378 485.666 603.61 485.695 603.038C485.847 600.014 485.023 591.92 484.253 582.498Z" fill="#92372B"/>
<path d="M466.639 572.585C465.601 576.196 461.056 590.149 459.946 594.582C459.044 598.185 456.946 606.478 455.684 611.465C455.161 613.529 456.679 615.546 458.807 615.62L471.759 616.072L480.713 577.032C480.774 575.882 480.445 569.958 477.862 568.481C475.279 567.003 467.675 568.975 466.639 572.585Z" fill="#F8A588"/>
<path d="M482.463 416.374C482.463 411.738 483.327 401.547 498.679 401.023C509.058 400.668 513.209 404.727 513.901 414.295C513.901 414.295 518.098 432.652 523.793 457.813C529.091 481.22 504.097 531.541 508.519 578.643L495.604 578.069C494.943 567.774 492.813 517.826 491.093 499.35C487.036 455.756 482.463 416.374 482.463 416.374Z" fill="#F8A588"/>
<path d="M510.499 573.568C510.499 573.568 519.471 608.213 520.724 613.916C521.977 619.619 519.932 627.319 517.961 629.458C515.989 631.596 496.874 631.037 492.815 629.848C488.756 628.66 495.519 575.643 495.519 575.643L510.499 573.568Z" fill="#92372B"/>
<path d="M495.359 567.894C495.359 571.788 494.821 586.835 494.984 591.617C495.18 597.358 495.707 614.15 495.707 614.15C495.707 614.15 510.421 615.181 512.232 613.424C517.374 608.434 515.076 597.979 515.076 597.979L510.711 572.689C510.441 571.449 508.411 565.06 505.403 563.467C502.396 561.873 495.359 564 495.359 567.894Z" fill="#F8A588"/>
<path d="M386.949 358.922C383.991 356.72 379.775 346.084 382.351 335.459C383.559 330.472 401.677 273.986 401.677 273.986C401.677 273.986 427.073 282.205 427.921 293.051C427.921 293.051 407.463 351.459 405.17 352.766C402.878 354.072 390.643 361.674 386.949 358.922Z" fill="#F8A588"/>
<path d="M429.888 226.79C425.054 227.998 416.973 232.034 415.757 235.215C414.542 238.396 396.316 285.509 389.353 303.996C396.712 311.719 409.854 316.226 422.002 319.082C431.373 305.696 434.829 283.37 440.134 267.917L444.5 225.064C444.5 225.064 436.314 225.184 429.888 226.79Z" fill="#DB9487"/>
<path d="M431.007 480.228C431.007 480.228 415.244 437.212 413.716 414.743C412.188 392.275 434.605 383.941 434.605 383.941L445.23 360.952L509.838 360.454C509.838 360.454 543.661 390.78 548.646 399.671C552.924 407.3 554.224 433.741 534.835 431.152L536.681 480.228H431.007V480.228Z" fill="#E5D2B8"/>
<path d="M527.649 271.756C523.715 267.637 513.549 224.77 513.549 224.77H479.77L444.082 225.52C444.082 225.52 435.825 267.637 431.891 271.756C417.823 286.489 433.831 304.806 439.199 313.21C446.607 337.454 444.613 344.498 444.752 366.913C456.969 369.018 468.302 370.009 479.77 370.347C491.237 370.008 502.57 369.018 514.787 366.913C514.926 344.498 512.932 337.454 520.34 313.21C525.709 304.805 541.717 286.489 527.649 271.756Z" fill="#E5D2B8"/>
<path d="M497.885 195.623H458.045V243.011H497.885V195.623Z" fill="#F8A588"/>
<path d="M497.885 195.623V210.196C487.978 218.214 474.586 223.628 458.045 224.77V195.622L497.885 195.623Z" fill="#1A1A1A"/>
<path d="M458.912 229.032C458.912 229.032 453.459 236.71 453.393 241.239C453.345 244.505 473.15 276.702 477.038 276.702C480.926 276.702 506.363 241.944 506.914 239.859C507.691 236.919 506.01 233.771 503.598 231.919C501.185 230.067 498.165 229.235 495.228 228.444L458.912 229.032Z" fill="#F8A588"/>
<path d="M494.724 203.735C496.133 204.536 497.874 204.629 499.45 204.286C501.026 203.943 502.469 203.198 503.852 202.402C507.502 200.299 511.129 197.407 511.917 193.35C512.181 191.992 512.073 190.491 511.245 189.346C510.26 187.983 508.391 187.382 506.703 187.589C505.015 187.796 503.501 188.702 502.271 189.823L494.724 203.735Z" fill="#F8A588"/>
<path d="M457.906 194.571C456.286 194.619 454.705 193.885 453.474 192.843C452.242 191.801 451.316 190.467 450.468 189.115C448.23 185.547 446.381 181.292 447.587 177.339C447.991 176.016 448.789 174.74 450.057 174.117C451.567 173.374 453.499 173.72 454.893 174.694C456.287 175.668 457.2 177.178 457.76 178.745L457.906 194.571Z" fill="#F8A588"/>
<path d="M500.893 204.633C505.047 192.917 510.056 186.731 513.802 180.296C516.538 175.458 520.209 166.943 515.85 157.546C511.642 147.862 497.151 139.35 481.863 139.674C466.472 139.978 452.768 147.796 452.225 157.427C451.736 163.153 454.361 169.247 453.908 175.166C453.529 180.087 450.851 184.451 451.528 189.505C452.952 198.266 462.614 215.417 472.946 217.989C481.389 220.09 498.785 209.671 500.893 204.633Z" fill="#F8A588"/>
<path d="M490.243 178.65C491.617 178.694 492.987 178.978 494.276 179.47C495.566 179.961 496.775 180.664 497.827 181.546C498.872 182.433 499.78 183.49 500.352 184.739C499.157 184.07 498.064 183.427 496.941 182.864C495.824 182.296 494.7 181.796 493.551 181.355C492.403 180.915 491.23 180.537 490.019 180.216C488.806 179.885 488.872 178.614 490.243 178.65Z" fill="#1A1A1A"/>
<path d="M472.969 174.121C471.722 173.541 470.371 173.176 468.999 173.033C467.627 172.89 466.232 172.971 464.896 173.284C463.565 173.605 462.278 174.139 461.207 174.996C462.574 174.937 463.839 174.857 465.095 174.862C466.347 174.858 467.576 174.919 468.8 175.043C470.023 175.169 471.239 175.361 472.465 175.621C473.697 175.872 474.21 174.708 472.969 174.121Z" fill="#1A1A1A"/>
<path d="M480.979 191.822C480.831 192.053 480.672 192.246 480.498 192.44C480.322 192.626 480.137 192.834 479.885 192.896C479.645 192.956 479.346 192.797 479.188 192.376C479.108 192.168 479.08 191.908 479.113 191.625C479.151 191.346 479.254 191.047 479.431 190.777C479.609 190.509 479.842 190.297 480.082 190.154C480.327 190.015 480.576 189.942 480.795 189.936C481.24 189.922 481.5 190.14 481.537 190.388C481.579 190.647 481.46 190.899 481.357 191.136C481.248 191.372 481.133 191.595 480.979 191.822Z" fill="#F2F2F2"/>
<path d="M478.144 192.02C478.146 191.838 478.151 191.676 478.158 191.532C478.168 191.388 478.175 191.262 478.188 191.137C478.204 191.008 478.229 190.865 478.275 190.706C478.319 190.547 478.382 190.375 478.45 190.2C478.587 189.849 478.736 189.489 478.795 189.169C478.858 188.849 478.833 188.567 478.693 188.364C478.553 188.162 478.377 188.122 478.154 188.205C477.932 188.29 477.653 188.5 477.34 188.83C477.033 189.159 476.675 189.63 476.459 190.249C476.351 190.556 476.294 190.899 476.287 191.228C476.277 191.561 476.319 191.886 476.382 192.202C476.446 192.518 476.541 192.808 476.646 193.079C476.752 193.351 476.875 193.6 476.997 193.821C477.244 194.266 477.493 194.624 477.705 194.899C478.138 195.444 478.421 195.674 478.669 195.432C478.901 195.205 478.967 194.872 478.797 194.323C478.715 194.049 478.575 193.721 478.428 193.331C478.356 193.137 478.283 192.927 478.228 192.706C478.178 192.489 478.143 192.254 478.144 192.02Z" fill="#D1785E"/>
<path d="M487.646 187.805C488.084 186.045 491.235 184.02 493.21 184.512C494.853 184.93 495.856 186.618 495.437 188.262L495.072 189.689C494.653 191.332 487.207 189.564 487.646 187.805Z" fill="#1A1A1A"/>
<path d="M492.485 184.439C492.485 184.439 494.755 184.521 496.303 186.287C497.85 188.053 499.333 187.662 499.333 187.662C499.333 187.662 497.413 188.765 495.759 187.41C494.105 186.055 493.103 186.216 493.103 186.216L492.485 184.439Z" fill="#1A1A1A"/>
<path d="M471.032 183.67C471.47 181.91 469.635 178.644 467.661 178.153C466.012 177.752 464.336 178.773 463.935 180.421L463.589 181.853C463.188 183.501 470.594 185.43 471.032 183.67Z" fill="#1A1A1A"/>
<path d="M468.334 178.428C468.334 178.428 466.29 177.437 464.095 178.271C461.901 179.106 460.774 178.065 460.774 178.065C460.774 178.065 461.953 179.939 464.049 179.517C466.146 179.096 466.955 179.708 466.955 179.708L468.334 178.428Z" fill="#1A1A1A"/>
<path d="M469.996 197.794C474.453 201.116 480.597 201.683 485.635 199.398C486.413 199.045 485.721 197.91 484.95 198.26C480.322 200.359 474.7 199.657 470.647 196.637C470.357 196.421 469.906 196.608 469.743 196.89C469.545 197.233 469.71 197.581 469.996 197.794Z" fill="#A33939"/>
<path d="M512.11 171.395C512.247 170.646 512.296 170.168 512.234 170.037C511.657 168.816 507.854 181.441 507.854 181.441C494.693 176.745 459.386 170.024 459.386 170.024L461.001 157.124C457.986 159.282 452.508 186.934 452.508 186.934C451.399 176.67 451.004 159.001 452.771 149.156C453.769 143.591 459.08 140.965 462.773 141.173C467.133 132.709 475.484 131.368 485.287 130.977C496.714 130.522 507.972 136.87 514.324 146.267C520.675 155.665 523.091 164.97 518.334 175.116C513.368 185.71 512.023 194.913 503.777 202.608C503.777 202.607 510.975 177.626 512.11 171.395Z" fill="#3F1B1B"/>
<path d="M437.785 225.526C437.785 225.526 434.094 268.988 431.365 271.738C414.386 288.849 438.403 317.561 438.403 317.561C444.264 336.81 437.674 364.453 434.353 376.613C433.376 380.192 457.106 387.431 458.045 387.582C459.375 334.063 462.466 276.794 458.045 223.217L437.785 225.526Z" fill="#DB9487"/>
<path d="M529.133 271.737C526.608 268.799 517.298 225.063 517.298 225.063L497.886 222.535C496.814 275.45 490.629 333.894 500.143 386.607C501.768 386.361 530.894 374.057 530.844 370.347C530.844 370.347 516.234 336.809 522.094 317.561C522.095 317.561 544.181 289.25 529.133 271.737Z" fill="#DB9487"/>
<path d="M449.935 369.753C449.935 369.753 406.124 367.689 389.093 360.345C382.469 357.489 383.762 346.983 388.288 343.502C390.955 341.452 396.048 339.031 402.133 338.771C408.22 338.512 447.624 356.603 451.6 358.418C455.577 360.233 459.585 365.781 449.935 369.753Z" fill="#F8A588"/>
<path d="M469.254 355.844C469.254 355.844 474.785 355.69 478.028 357.941C481.272 360.192 489.083 373.222 490.063 374.7C491.164 376.362 487.033 377.052 485.635 376.083C482.828 374.136 476.199 362.449 474.345 361.519C472.49 360.59 464.94 360.519 464.94 360.519L469.254 355.844Z" fill="#F8A588"/>
<path d="M464.574 359.108C464.574 359.108 470.105 358.955 473.349 361.206C476.592 363.457 483.239 375.002 484.651 377.091C486.062 379.179 481.388 379.409 479.877 378.223C477.192 376.117 470.781 366.439 468.926 365.509C467.071 364.579 460.261 363.784 460.261 363.784L464.574 359.108Z" fill="#F8A588"/>
<path d="M458.226 363.916C458.226 363.916 463.569 362.882 466.78 364.31C469.99 365.739 476.797 374.694 478.231 376.279C479.664 377.865 475.151 378.826 473.651 378.041C470.986 376.648 464.468 369.278 462.644 368.772C460.82 368.266 454.208 368.683 454.208 368.683L458.226 363.916Z" fill="#F8A588"/>
<path d="M452.8 366.141C452.8 366.141 457.879 364.655 460.365 366.49C462.206 367.848 468.956 374.377 470.224 375.779C471.491 377.182 469.825 379.06 468.498 378.366C466.14 377.133 459.648 371.498 458.036 371.05C456.422 370.602 449.246 370.357 449.246 370.357L452.8 366.141Z" fill="#F8A588"/>
<path d="M460.998 354.497C460.998 354.497 465.519 352.501 467.904 352.796C469.571 353.002 472.381 356.338 472.381 356.338L469.539 356.857L460.998 354.497Z" fill="#F8A588"/>
<path d="M470.143 356.222L457.809 370.897C457.809 370.897 449.55 372.919 446.682 369.672C443.814 366.426 440.984 365.321 442.103 363.373C443.221 361.425 455.229 354.93 460.233 354.054C465.236 353.179 470.143 356.222 470.143 356.222Z" fill="#F8A588"/>
<path d="M515.123 365.915C515.123 365.915 556.693 351.93 571.061 340.201C576.649 335.64 572.528 325.89 567.221 323.782C564.095 322.54 558.534 321.607 552.609 323.024C546.685 324.442 513.744 352.635 510.416 355.47C507.089 358.305 504.754 364.737 515.123 365.915Z" fill="#F8A588"/>
<path d="M504.138 353.722C504.138 353.722 499.022 355.829 496.973 359.204C494.923 362.578 493.079 377.658 492.784 379.406C492.453 381.372 496.508 380.325 497.392 378.871C499.165 375.952 500.475 362.58 501.792 360.977C503.109 359.374 509.979 356.243 509.979 356.243L504.138 353.722Z" fill="#F8A588"/>
<path d="M509.74 354.804C509.74 354.804 504.624 356.911 502.575 360.285C500.525 363.659 499.142 376.91 498.701 379.392C498.259 381.873 502.624 380.184 503.523 378.487C505.121 375.472 507.047 364.024 508.364 362.421C509.681 360.818 515.582 357.324 515.582 357.324L509.74 354.804Z" fill="#F8A588"/>
<path d="M517.495 356.618C517.495 356.618 512.192 357.844 509.838 360.454C507.485 363.063 504.903 374.011 504.238 376.043C503.572 378.074 508.086 377.119 509.138 375.792C511.007 373.436 513.969 364.054 515.43 362.851C516.891 361.647 523.103 359.342 523.103 359.342L517.495 356.618Z" fill="#F8A588"/>
<path d="M523.356 356.448C523.356 356.448 518.112 357.153 516.585 359.84C515.454 361.829 511.939 370.537 511.35 372.333C510.761 374.13 513.047 375.169 513.978 373.996C515.631 371.912 519.274 364.125 520.566 363.06C521.859 361.996 528.317 358.857 528.317 358.857L523.356 356.448Z" fill="#F8A588"/>
<path d="M511.135 349.138C511.135 349.138 506.193 349.151 504.133 350.389C502.694 351.255 501.482 355.445 501.482 355.445L504.29 354.764L511.135 349.138Z" fill="#F8A588"/>
<path d="M503.48 354.43L520.712 362.829C520.712 362.829 529.08 361.321 530.382 357.19C531.683 353.058 533.821 350.899 532.007 349.573C530.194 348.247 516.583 347.191 511.655 348.423C506.727 349.656 503.48 354.43 503.48 354.43Z" fill="#F8A588"/>
<path d="M511.499 377.87H619.99C624.221 377.87 628.288 374.408 629.027 370.177L642.192 294.853C642.931 290.622 640.075 287.161 635.844 287.161H527.352C523.121 287.161 519.054 290.622 518.315 294.853L505.15 370.177C504.411 374.408 507.268 377.87 511.499 377.87Z" fill="white"/>
<path d="M513.515 377.87H622.007C626.238 377.87 630.304 374.408 631.044 370.177L644.209 294.853C644.948 290.622 642.091 287.161 637.86 287.161H529.369C525.138 287.161 521.071 290.622 520.332 294.853L507.167 370.177C506.427 374.408 509.284 377.87 513.515 377.87Z" fill="#E6E6E6"/>
<path d="M462.863 382.039H621.995C623.261 382.039 624.369 381.003 624.457 379.738C624.545 378.472 623.582 377.437 622.316 377.437H463.184C461.918 377.437 460.81 378.472 460.722 379.738C460.634 381.003 461.597 382.039 462.863 382.039Z" fill="#E6E6E6"/>
<path d="M642.326 471.919H312.631L327.134 392.631H627.824L642.326 471.919Z" fill="#CCE3F2"/>
<path d="M552.384 471.919H590.335L511.568 392.631H473.096L552.384 471.919Z" fill="#E6E6E6"/>
<path d="M435.893 471.919H474.122L394.834 392.631H356.756L435.893 471.919Z" fill="#E6E6E6"/>
<path d="M284.238 629.011L344.664 389.755H309.232L274.705 629.001L284.238 629.011Z" fill="#8F93AE"/>
<path d="M679.403 630.337L644.678 389.755H609.246L670.003 630.289L679.403 630.337Z" fill="#8F93AE"/>
<path d="M700.788 387.097H253.123V394.899H700.788V387.097Z" fill="#6B6E83"/>
<path d="M708.737 390.427H245.173C243.132 390.427 241.463 388.757 241.463 386.717V385.749C241.463 383.709 243.133 382.039 245.173 382.039H708.738C710.779 382.039 712.448 383.709 712.448 385.749V386.717C712.448 388.757 710.778 390.427 708.737 390.427Z" fill="#8F93AE"/>
<path d="M531.687 219.655C536.349 225.284 541.942 230.114 542.993 232.98C544.044 235.847 546.276 250.918 546.206 253.294C546.136 255.67 542.868 252.061 542.402 249.449C541.937 246.838 537.371 235.292 537.371 235.292C537.371 235.292 524.557 227.432 522.482 225.641L515.65 224.673C515.65 224.673 508.724 231.917 507.121 233.354C505.517 234.791 502.275 233.961 505.174 229.551C508.072 225.142 512.573 215.166 514.699 213.095C517.125 210.731 519.441 209.436 523.405 211.451C527.369 213.466 531.687 219.655 531.687 219.655Z" fill="#F8A588"/>
<path d="M526.326 215.322C526.326 215.322 536.85 223.19 539.072 225.437C541.295 227.684 546.72 238.085 547.485 239.085C548.25 240.084 546.572 242.119 544.262 238.729C541.951 235.337 536.645 229.983 535.952 229.459C535.259 228.935 525.936 223.062 523.729 221.963C521.522 220.864 523.531 213.211 526.326 215.322Z" fill="#F8A588"/>
</svg>
