<svg width="1007" height="683" viewBox="0 0 1007 683" fill="none" xmlns="http://www.w3.org/2000/svg">
<path fill-rule="evenodd" clip-rule="evenodd" d="M15.8247 228.263C15.8247 156.151 80.4881 97.6811 160.253 97.6811C240.025 97.6811 304.685 156.151 304.685 228.263" fill="#BFEEEA"/>
<path d="M169.426 0H151.087V395.701H169.426V0Z" fill="#088F4A"/>
<path fill-rule="evenodd" clip-rule="evenodd" d="M62.6002 239.835C45.8092 228.341 45.8092 195.644 53.7621 178.857C64.3635 159.407 84.6919 154.991 104.135 162.062C107.665 150.569 104.135 140.852 113.855 129.362C121.808 120.524 134.183 115.22 146.551 116.99C166.88 120.524 183.671 143.501 182.782 162.937C196.924 150.565 200.458 139.078 220.783 138.2C237.57 138.2 254.365 143.497 265.852 154.984C290.596 179.731 278.224 214.199 261.433 236.29" fill="#936037"/>
<path d="M147.694 212.502C154.074 212.502 154.074 202.61 147.694 202.61C141.314 202.61 141.314 212.502 147.694 212.502Z" fill="#7D4E24"/>
<path d="M218.262 165.014C224.642 165.014 224.642 155.122 218.262 155.122C211.882 155.125 211.882 165.014 218.262 165.014Z" fill="#7D4E24"/>
<path d="M67.2344 213.165C73.6143 213.165 73.6143 203.273 67.2344 203.273C60.8545 203.273 60.8545 213.165 67.2344 213.165Z" fill="#7D4E24"/>
<path d="M216.28 219.757C222.66 219.757 222.66 209.864 216.28 209.864C209.9 209.864 209.9 219.757 216.28 219.757Z" fill="#7D4E24"/>
<path d="M110.102 180.846C116.482 180.846 116.482 170.953 110.102 170.953C103.722 170.953 103.722 180.846 110.102 180.846Z" fill="#7D4E24"/>
<path d="M151.648 140.616C158.028 140.616 158.028 130.723 151.648 130.723C145.268 130.723 145.268 140.616 151.648 140.616Z" fill="#7D4E24"/>
<path d="M267.724 192.061C274.104 192.061 274.104 182.169 267.724 182.169C261.348 182.169 261.348 192.061 267.724 192.061Z" fill="#7D4E24"/>
<path fill-rule="evenodd" clip-rule="evenodd" d="M126.777 142.09C120.238 146.044 119.536 156.86 125.218 166.238C130.886 175.619 140.785 180.017 147.324 176.06C153.859 172.107 154.557 161.29 148.883 151.912C143.212 142.538 133.316 138.14 126.777 142.09Z" fill="#683C11"/>
<path fill-rule="evenodd" clip-rule="evenodd" d="M126.943 141.991C125.772 142.7 129.418 150.883 135.093 160.26C140.768 169.638 146.319 176.663 147.493 175.961C148.664 175.252 145.01 167.074 139.343 157.693C133.665 148.315 128.117 141.282 126.943 141.991Z" fill="#7D4E24"/>
<path fill-rule="evenodd" clip-rule="evenodd" d="M251.519 173.503C258.057 177.46 258.752 188.277 253.081 197.655C247.407 207.025 237.503 211.423 230.972 207.477C224.437 203.52 223.735 192.707 229.41 183.325C235.081 173.948 244.984 169.55 251.519 173.503Z" fill="#683C11"/>
<path fill-rule="evenodd" clip-rule="evenodd" d="M251.356 173.404C252.531 174.113 248.88 182.295 243.202 191.673C237.528 201.051 231.977 208.076 230.809 207.367C229.631 206.658 233.282 198.487 238.956 189.099C244.631 179.724 250.182 172.696 251.356 173.404Z" fill="#7D4E24"/>
<path fill-rule="evenodd" clip-rule="evenodd" d="M188.026 173.567C182.278 171.5 175.207 176.512 172.233 184.768C169.271 193.017 171.525 201.382 177.277 203.456C183.029 205.523 190.1 200.504 193.066 192.255C196.032 184.006 193.775 175.633 188.026 173.567Z" fill="#683C11"/>
<path fill-rule="evenodd" clip-rule="evenodd" d="M188.171 173.616C187.145 173.249 183.9 179.636 180.927 187.885C177.961 196.141 176.392 203.132 177.425 203.505C178.455 203.876 181.699 197.485 184.666 189.236C187.632 180.98 189.205 173.986 188.171 173.616Z" fill="#7D4E24"/>
<path fill-rule="evenodd" clip-rule="evenodd" d="M80.897 185.688C77.3279 190.647 80.1987 198.822 87.3122 203.95C94.4292 209.078 103.095 209.212 106.66 204.26C110.233 199.298 107.365 191.119 100.248 185.991C93.1349 180.867 84.4696 180.729 80.897 185.688Z" fill="#683C11"/>
<path fill-rule="evenodd" clip-rule="evenodd" d="M80.9889 185.561C80.347 186.454 85.5984 191.331 92.7084 196.459C99.8254 201.58 106.114 205.018 106.752 204.133C107.394 203.241 102.143 198.364 95.029 193.236C87.9155 188.108 81.6343 184.676 80.9889 185.561Z" fill="#7D4E24"/>
<path opacity="0.4" fill-rule="evenodd" clip-rule="evenodd" d="M201.809 228.263C201.809 156.151 80.4917 97.6811 160.257 97.6811C240.029 97.6811 304.689 156.151 304.689 228.263" fill="white"/>
<path fill-rule="evenodd" clip-rule="evenodd" d="M255.659 679.846H64.857L17.7676 286.032H302.748L255.659 679.846Z" fill="#95E3DC"/>
<path fill-rule="evenodd" clip-rule="evenodd" d="M243.259 651.12H77.2574L36.2869 291.029H284.223L243.259 651.12Z" fill="#7D4E24"/>
<path opacity="0.4" fill-rule="evenodd" clip-rule="evenodd" d="M107.665 679.846H64.857L17.7676 286.032H60.5791L107.665 679.846Z" fill="white"/>
<path d="M312.606 224.31H7.91064V255.963H312.606V224.31Z" fill="#D9D9D9"/>
<path d="M312.606 224.31H226.084V255.963H312.606V224.31Z" fill="#C5C5C5"/>
<path d="M320.52 252.006H0V295.533H320.52V252.006Z" fill="#C5C5C5"/>
<path d="M320.52 252.006H241.242V295.533H320.52V252.006Z" fill="#B1B1B1"/>
<path fill-rule="evenodd" clip-rule="evenodd" d="M160.253 507.795C124.851 507.795 96.0483 478.992 96.0483 443.583C96.0483 408.175 124.851 379.372 160.253 379.372C195.662 379.372 224.469 408.175 224.469 443.583C224.469 478.992 195.662 507.795 160.253 507.795Z" fill="white"/>
<path d="M160.253 383.039C193.694 383.039 220.797 410.15 220.797 443.583C220.797 477.017 193.694 504.127 160.253 504.127C126.823 504.127 99.7161 477.017 99.7161 443.583C99.7161 410.146 126.823 383.039 160.253 383.039ZM160.253 375.7C122.827 375.7 92.377 406.154 92.377 443.583C92.377 481.013 122.827 511.467 160.253 511.467C197.683 511.467 228.137 481.013 228.137 443.583C228.14 406.154 197.686 375.7 160.253 375.7Z" fill="#3AA970"/>
<path fill-rule="evenodd" clip-rule="evenodd" d="M206.556 443.583C206.556 469.145 185.818 489.879 160.253 489.879C134.694 489.879 113.96 469.145 113.96 443.583C113.96 418.018 134.694 397.281 160.253 397.281C185.822 397.281 206.556 418.018 206.556 443.583Z" fill="#088F4A"/>
<path fill-rule="evenodd" clip-rule="evenodd" d="M160.253 460.015C151.193 460.015 143.818 452.644 143.818 443.583C143.818 434.523 151.189 427.152 160.253 427.152C169.32 427.152 176.698 434.523 176.698 443.583C176.698 452.644 169.32 460.015 160.253 460.015Z" fill="white"/>
<path d="M160.253 428.517C168.566 428.517 175.327 435.274 175.327 443.583C175.327 451.889 168.566 458.646 160.253 458.646C151.948 458.646 145.19 451.889 145.19 443.583C145.194 435.274 151.951 428.517 160.253 428.517ZM160.253 425.78C150.424 425.78 142.45 433.747 142.45 443.583C142.45 453.413 150.424 461.387 160.253 461.387C170.089 461.387 178.067 453.413 178.067 443.583C178.067 433.747 170.093 425.78 160.253 425.78Z" fill="white"/>
<path d="M97.5115 338.842C110.271 338.842 110.271 319.057 97.5115 319.057C84.7445 319.053 84.7445 338.842 97.5115 338.842Z" fill="#683C11"/>
<path d="M241.4 394.794C254.157 394.794 254.157 375.012 241.4 375.012C228.647 375.012 228.647 394.794 241.4 394.794Z" fill="#683C11"/>
<path d="M117.476 566.488C130.233 566.488 130.233 546.703 117.476 546.703C104.717 546.703 104.717 566.488 117.476 566.488Z" fill="#683C11"/>
<path d="M211.426 636.614C224.182 636.614 224.182 616.829 211.426 616.829C198.666 616.829 198.666 636.614 211.426 636.614Z" fill="#683C11"/>
<path d="M221.414 536.214C230.986 536.214 230.986 521.377 221.414 521.377C211.846 521.373 211.846 536.214 221.414 536.214Z" fill="#683C11"/>
<path d="M209.423 334.37C218.995 334.37 218.995 319.533 209.423 319.533C199.855 319.533 199.855 334.37 209.423 334.37Z" fill="#683C11"/>
<path d="M129.489 624.151C139.053 624.151 139.053 609.314 129.489 609.314C119.92 609.314 119.92 624.151 129.489 624.151Z" fill="#683C11"/>
<path d="M187.222 567.881C193.602 567.881 193.602 557.985 187.222 557.985C180.839 557.985 180.839 567.881 187.222 567.881Z" fill="#683C11"/>
<path d="M101.507 385.857C107.887 385.857 107.887 375.965 101.507 375.965C95.1239 375.965 95.1239 385.857 101.507 385.857Z" fill="#683C11"/>
<path d="M161.463 345.888C167.843 345.888 167.843 335.996 161.463 335.996C155.083 335.996 155.083 345.888 161.463 345.888Z" fill="#683C11"/>
<path d="M255.391 343.881C261.771 343.881 261.771 333.989 255.391 333.989C249.011 333.992 249.011 343.881 255.391 343.881Z" fill="#683C11"/>
<path d="M243.404 461.803C249.784 461.803 249.784 451.907 243.404 451.907C237.02 451.907 237.02 461.803 243.404 461.803Z" fill="#683C11"/>
<path d="M161.463 609.691C167.843 609.691 167.843 599.795 161.463 599.795C155.083 599.798 155.083 609.691 161.463 609.691Z" fill="#683C11"/>
<path d="M109.499 527.746C115.883 527.746 115.883 517.854 109.499 517.854C103.119 517.854 103.119 527.746 109.499 527.746Z" fill="#683C11"/>
<path fill-rule="evenodd" clip-rule="evenodd" d="M185.344 229.267C185.344 157.148 250.003 98.6881 329.768 98.6881C409.54 98.6881 474.2 157.151 474.2 229.267" fill="#BFEEEA"/>
<path d="M338.945 1H320.602V396.704H338.945V1Z" fill="#088F4A"/>
<path fill-rule="evenodd" clip-rule="evenodd" d="M324.288 114.844C339.016 153.484 310.488 155.325 279.209 155.325C267.249 155.325 250.691 152.563 242.407 163.605C235.97 171.886 235.97 189.365 242.407 196.725C232.126 197.702 224.011 195.805 216.647 205.006C210.204 214.208 209.283 231.686 217.568 239.047C235.97 258.37 288.414 253.767 311.408 253.767C347.29 253.767 420.304 253.743 435.614 245.487C464.604 229.849 436.534 193.043 412.612 191.206C439.289 167.287 407.09 144.282 382.254 139.683C353.729 135.081 349.13 124.966 325.208 113.003" fill="#D5B185"/>
<path d="M357.958 132.524C361.319 157.225 283.642 143.778 268.974 146.515C257.953 148.574 250.455 164.78 258.686 173.572C270.092 185.754 290.544 185.468 305.786 184.498C335.284 182.618 363.777 169.47 393.635 175.512C397.92 176.379 401.979 178.044 405.894 179.952C419.461 186.568 406.927 198.133 397.655 200.238C386.535 202.763 374.354 201.321 363.036 201.624C333.715 202.407 304.238 199.868 275.146 196.426C261.518 194.817 242.851 193.322 235.79 207.856C233.015 213.569 241.546 218.588 244.332 212.85C252.158 196.739 303.519 209.288 316.924 210.258C342.341 212.095 370.809 214.409 396.202 210.42C410.45 208.18 426.896 200.781 422.625 183.5C418.985 168.762 395.536 165.503 383.506 164.198C353.482 160.932 323.625 174.754 293.647 175.053C288.026 175.11 282.556 174.15 277.121 172.867C265.144 170.042 265.486 156.026 278.415 155.243C286.4 154.76 294.853 155.836 302.866 156.326C323.138 157.568 371.998 162.918 367.501 129.893C366.641 123.598 357.111 126.289 357.958 132.524Z" fill="#B17F4A"/>
<path opacity="0.4" fill-rule="evenodd" clip-rule="evenodd" d="M371.321 229.267C371.321 157.148 250.003 98.6881 329.768 98.6881C409.54 98.6881 474.2 157.151 474.2 229.267" fill="white"/>
<path fill-rule="evenodd" clip-rule="evenodd" d="M425.175 680.849H234.369L187.283 287.039H472.264L425.175 680.849Z" fill="#95E3DC"/>
<path fill-rule="evenodd" clip-rule="evenodd" d="M412.774 652.12H246.773L205.802 292.026H453.738L412.774 652.12Z" fill="#CA9E67"/>
<path opacity="0.4" fill-rule="evenodd" clip-rule="evenodd" d="M277.181 680.849H234.369L187.283 287.039H230.095L277.181 680.849Z" fill="white"/>
<path d="M482.118 225.31H177.426V256.966H482.118V225.31Z" fill="#D9D9D9"/>
<path d="M482.118 225.31H395.596V256.966H482.118V225.31Z" fill="#C5C5C5"/>
<path d="M490.035 253.006H169.515V296.537H490.035V253.006Z" fill="#C5C5C5"/>
<path d="M490.035 253.006H410.757V296.537H490.035V253.006Z" fill="#B1B1B1"/>
<path fill-rule="evenodd" clip-rule="evenodd" d="M329.768 508.795C294.366 508.795 265.563 479.989 265.563 444.583C265.563 409.175 294.366 380.368 329.768 380.368C365.177 380.368 393.98 409.175 393.98 444.583C393.98 479.992 365.177 508.795 329.768 508.795Z" fill="white"/>
<path d="M329.768 384.036C363.202 384.036 390.313 411.143 390.313 444.583C390.313 478.024 363.202 505.124 329.768 505.124C296.338 505.124 269.231 478.021 269.231 444.583C269.231 411.146 296.342 384.036 329.768 384.036ZM329.768 376.697C292.342 376.697 261.892 407.15 261.892 444.583C261.892 482.013 292.342 512.463 329.768 512.463C367.198 512.463 397.652 482.013 397.652 444.583C397.652 407.154 367.198 376.697 329.768 376.697Z" fill="#3AA970"/>
<path fill-rule="evenodd" clip-rule="evenodd" d="M376.071 444.583C376.071 470.149 355.338 490.879 329.768 490.879C304.21 490.879 283.476 470.149 283.476 444.583C283.476 419.014 304.21 398.284 329.768 398.284C355.338 398.287 376.071 419.014 376.071 444.583Z" fill="#088F4A"/>
<path fill-rule="evenodd" clip-rule="evenodd" d="M329.768 461.018C320.708 461.018 313.337 453.647 313.337 444.583C313.337 435.52 320.708 428.145 329.768 428.145C338.835 428.145 346.21 435.52 346.21 444.583C346.21 453.647 338.835 461.018 329.768 461.018Z" fill="white"/>
<path d="M329.768 429.517C338.077 429.517 344.841 436.278 344.841 444.583C344.841 452.889 338.077 459.646 329.768 459.646C321.459 459.646 314.702 452.889 314.702 444.583C314.705 436.278 321.463 429.517 329.768 429.517ZM329.768 426.78C319.939 426.78 311.965 434.754 311.965 444.587C311.965 454.416 319.939 462.39 329.768 462.39C339.604 462.39 347.582 454.416 347.582 444.587C347.582 434.751 339.604 426.78 329.768 426.78Z" fill="white"/>
<path d="M267.126 337.384C279.886 337.384 279.886 317.598 267.126 317.598C254.373 317.598 254.373 337.384 267.126 337.384Z" fill="#B17F4A"/>
<path d="M407.029 393.339C419.782 393.339 419.782 373.558 407.029 373.558C394.266 373.558 394.266 393.339 407.029 393.339Z" fill="#B17F4A"/>
<path d="M287.095 567.029C299.854 567.029 299.854 547.244 287.095 547.244C274.335 547.244 274.335 567.029 287.095 567.029Z" fill="#B17F4A"/>
<path d="M379.044 637.159C391.801 637.159 391.801 617.378 379.044 617.378C366.284 617.378 366.284 637.159 379.044 637.159Z" fill="#B17F4A"/>
<path d="M387.036 538.759C396.607 538.759 396.607 523.922 387.036 523.922C377.471 523.922 377.471 538.759 387.036 538.759Z" fill="#B17F4A"/>
<path d="M355.062 344.906C364.634 344.906 364.634 330.066 355.062 330.066C345.494 330.066 345.494 344.906 355.062 344.906Z" fill="#B17F4A"/>
<path d="M297.103 632.687C306.675 632.687 306.675 617.847 297.103 617.847C287.539 617.847 287.539 632.687 297.103 632.687Z" fill="#B17F4A"/>
<path d="M360.839 572.418C367.219 572.418 367.219 562.522 360.839 562.522C354.459 562.522 354.459 572.418 360.839 572.418Z" fill="#B17F4A"/>
<path d="M265.129 384.396C271.509 384.396 271.509 374.503 265.129 374.503C258.749 374.503 258.749 384.396 265.129 384.396Z" fill="#B17F4A"/>
<path d="M311.094 358.417C317.474 358.417 317.474 348.525 311.094 348.525C304.714 348.525 304.714 358.417 311.094 358.417Z" fill="#B17F4A"/>
<path d="M419.013 340.431C425.397 340.431 425.397 330.538 419.013 330.538C412.634 330.538 412.634 340.431 419.013 340.431Z" fill="#B17F4A"/>
<path d="M411.018 472.336C417.398 472.336 417.398 462.443 411.018 462.443C404.638 462.443 404.638 472.336 411.018 472.336Z" fill="#B17F4A"/>
<path d="M331.084 608.233C337.464 608.233 337.464 598.337 331.084 598.337C324.704 598.337 324.704 608.233 331.084 608.233Z" fill="#B17F4A"/>
<path d="M277.117 524.296C283.5 524.296 283.5 514.399 277.117 514.399C270.737 514.399 270.737 524.296 277.117 524.296Z" fill="#B17F4A"/>
<path fill-rule="evenodd" clip-rule="evenodd" d="M354.859 230.267C354.859 158.148 419.519 99.6846 499.291 99.6846C579.063 99.6846 643.723 158.151 643.723 230.267" fill="#BFEEEA"/>
<path d="M508.46 2H490.125V397.704H508.46V2Z" fill="#088F4A"/>
<path fill-rule="evenodd" clip-rule="evenodd" d="M383.644 240.198C373.039 216.34 378.347 190.711 403.972 180.987C431.365 171.267 442.851 175.687 450.804 144.757C457.879 118.242 476.437 104.989 498.532 126.195C508.248 136.8 510.904 147.405 525.928 150.057C536.53 151.824 548.027 147.405 558.625 150.057C573.649 154.477 573.649 163.311 580.716 172.153C587.791 181.872 601.93 178.339 611.653 189.825C624.025 203.964 624.025 240.198 599.278 241.965" fill="#FCE092"/>
<path d="M436.641 153.955C454.585 164.521 474.24 166.813 494.759 165.801C505.547 165.268 516.307 163.258 526.852 161.05C535.228 159.294 543.227 158.645 551.769 159.82C561.937 160.444 566.299 166.341 564.853 177.51C559.976 181.714 554.322 183.787 547.9 183.735C518.462 187.381 489.063 177.721 460.588 171.825C441.314 167.832 416.605 163.286 398.7 173.687C386.568 180.733 392.225 195.059 400.001 202.508C411.989 213.991 432.73 215.786 448.286 217.581C475.322 220.695 503.53 220.346 530.583 217.771C543.886 216.505 556.932 213.677 569.72 209.857C580.6 206.606 597.744 197.553 606.998 209.561C610.832 214.537 619.434 209.621 615.54 204.567C605.619 191.691 592.358 192.671 577.772 196.822C548.99 205.022 521.922 209.561 491.831 209.558C467.539 209.554 442.375 209.184 419.028 201.756C416.838 200.825 414.651 199.894 412.461 198.96C404.738 195.888 404.396 189.187 411.435 178.857C419.099 176.448 428.861 177.63 436.754 178.18C453.086 179.319 469.101 183.858 484.993 187.494C509.074 192.999 534.943 196.971 559.404 191.822C569.727 189.649 581.686 177.073 576.523 165.967C568.32 148.322 546.034 148.192 529.451 150.481C499.16 154.66 469.898 162.059 441.635 145.416C436.122 142.172 431.15 150.724 436.641 153.955Z" fill="#FFCC00"/>
<path opacity="0.4" fill-rule="evenodd" clip-rule="evenodd" d="M540.846 230.267C540.846 158.148 419.522 99.6846 499.294 99.6846C579.066 99.6846 643.726 158.151 643.726 230.267" fill="white"/>
<path fill-rule="evenodd" clip-rule="evenodd" d="M594.69 681.849H403.895L356.805 288.039H641.779L594.69 681.849Z" fill="#95E3DC"/>
<path fill-rule="evenodd" clip-rule="evenodd" d="M582.293 653.116H416.295L375.324 293.026H623.26L582.293 653.116Z" fill="#FBD877"/>
<path opacity="0.4" fill-rule="evenodd" clip-rule="evenodd" d="M446.703 681.849H403.895L356.805 288.039H399.61L446.703 681.849Z" fill="white"/>
<path d="M651.64 226.31H346.948V257.966H651.64V226.31Z" fill="#D9D9D9"/>
<path d="M651.64 226.31H565.121V257.966H651.64V226.31Z" fill="#C5C5C5"/>
<path d="M659.558 254.009H339.03V297.537H659.558V254.009Z" fill="#C5C5C5"/>
<path d="M659.558 254.009H580.279V297.537H659.558V254.009Z" fill="#B1B1B1"/>
<path fill-rule="evenodd" clip-rule="evenodd" d="M499.291 509.795C463.885 509.795 435.082 480.989 435.082 445.583C435.082 410.175 463.885 381.368 499.291 381.368C534.699 381.368 563.506 410.175 563.506 445.583C563.506 480.992 534.699 509.795 499.291 509.795Z" fill="white"/>
<path d="M499.29 385.039C532.731 385.039 559.835 412.146 559.835 445.583C559.835 479.024 532.731 506.124 499.29 506.124C465.857 506.124 438.75 479.021 438.75 445.583C438.75 412.146 465.857 385.039 499.29 385.039ZM499.29 377.7C461.861 377.7 431.411 408.154 431.411 445.583C431.411 483.013 461.861 513.463 499.29 513.463C536.72 513.463 567.174 483.013 567.174 445.583C567.177 408.154 536.724 377.7 499.29 377.7Z" fill="#3AA970"/>
<path fill-rule="evenodd" clip-rule="evenodd" d="M545.594 445.583C545.594 471.146 524.853 491.879 499.291 491.879C473.732 491.879 452.991 471.146 452.991 445.583C452.991 420.014 473.732 399.284 499.291 399.284C524.856 399.287 545.594 420.014 545.594 445.583Z" fill="#088F4A"/>
<path fill-rule="evenodd" clip-rule="evenodd" d="M499.29 462.022C490.23 462.022 482.856 454.647 482.856 445.583C482.856 436.52 490.227 429.145 499.29 429.145C508.354 429.145 515.729 436.52 515.729 445.583C515.729 454.647 508.354 462.022 499.29 462.022Z" fill="white"/>
<path d="M499.291 430.517C507.596 430.517 514.357 437.278 514.357 445.583C514.357 453.889 507.596 460.65 499.291 460.65C490.985 460.65 484.228 453.889 484.228 445.583C484.228 437.278 490.985 430.517 499.291 430.517ZM499.291 427.78C489.462 427.78 481.488 435.754 481.488 445.587C481.488 455.416 489.462 463.394 499.291 463.394C509.12 463.394 517.097 455.416 517.097 445.587C517.097 435.751 509.123 427.78 499.291 427.78Z" fill="white"/>
<path d="M427.443 338.204C440.203 338.204 440.203 318.419 427.443 318.419C414.676 318.419 414.676 338.204 427.443 338.204Z" fill="#FFCC00"/>
<path d="M577.327 408.15C590.087 408.15 590.087 388.365 577.327 388.365C564.571 388.365 564.571 408.15 577.327 408.15Z" fill="#FFCC00"/>
<path d="M449.408 563.857C462.167 563.857 462.167 544.072 449.408 544.072C436.651 544.069 436.651 563.857 449.408 563.857Z" fill="#FFCC00"/>
<path d="M553.353 643.971C566.112 643.971 566.112 624.19 553.353 624.19C540.589 624.19 540.589 643.971 553.353 643.971Z" fill="#FFCC00"/>
<path d="M555.345 531.584C564.916 531.584 564.916 516.743 555.345 516.743C545.776 516.743 545.776 531.584 555.345 531.584Z" fill="#FFCC00"/>
<path d="M525.367 343.727C534.936 343.727 534.936 328.886 525.367 328.886C515.796 328.886 515.796 343.727 525.367 343.727Z" fill="#FFCC00"/>
<path d="M463.42 627.512C472.981 627.512 472.981 612.671 463.42 612.671C453.848 612.671 453.848 627.512 463.42 627.512Z" fill="#FFCC00"/>
<path d="M531.144 569.243C537.524 569.243 537.524 559.347 531.144 559.347C524.761 559.347 524.761 569.243 531.144 569.243Z" fill="#FFCC00"/>
<path d="M433.439 383.22C439.818 383.22 439.818 373.327 433.439 373.327C427.059 373.327 427.059 383.22 433.439 383.22Z" fill="#FFCC00"/>
<path d="M477.407 353.242C483.787 353.242 483.787 343.349 477.407 343.349C471.027 343.349 471.027 353.242 477.407 353.242Z" fill="#FFCC00"/>
<path d="M581.327 351.242C587.707 351.242 587.707 341.35 581.327 341.35C574.95 341.353 574.95 351.242 581.327 351.242Z" fill="#FFCC00"/>
<path d="M579.327 487.143C585.707 487.143 585.707 477.25 579.327 477.25C572.947 477.25 572.947 487.143 579.327 487.143Z" fill="#FFCC00"/>
<path d="M495.393 613.049C501.773 613.049 501.773 603.156 495.393 603.156C489.013 603.156 489.013 613.049 495.393 613.049Z" fill="#FFCC00"/>
<path d="M445.433 525.112C451.813 525.112 451.813 515.22 445.433 515.22C439.05 515.223 439.05 525.112 445.433 525.112Z" fill="#FFCC00"/>
<path fill-rule="evenodd" clip-rule="evenodd" d="M534.832 231.263C534.832 159.144 599.492 100.681 679.257 100.681C759.029 100.681 823.689 159.144 823.689 231.263" fill="#BFEEEA"/>
<path d="M688.43 3H670.087V398.701H688.43V3Z" fill="#088F4A"/>
<path fill-rule="evenodd" clip-rule="evenodd" d="M573.711 231.306C532.123 198.038 588.499 142.752 621.333 179.582C617.51 165.747 618.042 158.234 624.616 145.101C633.652 127.037 656.639 119.644 676.347 122.11C704.261 127.033 719.042 151.668 716.577 177.939C723.969 156.591 748.604 153.304 747.782 178.757C788.301 146.039 828.249 228.844 779.805 233.774" fill="#ADD685"/>
<path d="M598.864 218.941C605.251 218.941 605.251 209.048 598.864 209.048C592.484 209.048 592.484 218.941 598.864 218.941Z" fill="#61BA8D"/>
<path d="M778.25 211.69C784.633 211.69 784.633 201.794 778.25 201.794C771.873 201.797 771.873 211.69 778.25 211.69Z" fill="#61BA8D"/>
<path d="M691.862 152.334C698.242 152.334 698.242 142.442 691.862 142.442C685.482 142.445 685.482 152.334 691.862 152.334Z" fill="#61BA8D"/>
<path d="M650.969 165.193C663.725 165.193 663.725 145.408 650.969 145.408C638.209 145.404 638.209 165.193 650.969 165.193Z" fill="#61BA8D"/>
<path d="M740.005 219.272C752.762 219.272 752.762 199.487 740.005 199.487C727.242 199.484 727.242 219.272 740.005 219.272Z" fill="#61BA8D"/>
<path d="M675.37 219.272C688.127 219.272 688.127 199.487 675.37 199.487C662.61 199.484 662.61 219.272 675.37 219.272Z" fill="#61BA8D"/>
<path d="M712.962 201.138C719.349 201.138 719.349 191.242 712.962 191.242C706.579 191.242 706.579 201.138 712.962 201.138Z" fill="#61BA8D"/>
<path d="M637.782 189.926C644.162 189.926 644.162 180.034 637.782 180.034C631.402 180.034 631.402 189.926 637.782 189.926Z" fill="#61BA8D"/>
<path d="M685.926 181.19C695.494 181.19 695.494 166.353 685.926 166.353C676.354 166.353 676.354 181.19 685.926 181.19Z" fill="#81C8A4"/>
<path d="M589.641 198.997C599.209 198.997 599.209 184.156 589.641 184.156C580.063 184.156 580.063 198.997 589.641 198.997Z" fill="#81C8A4"/>
<path d="M636.459 220.761C646.031 220.761 646.031 205.924 636.459 205.924C626.891 205.924 626.891 220.761 636.459 220.761Z" fill="#81C8A4"/>
<path d="M759.127 191.242C765.507 191.242 765.507 181.349 759.127 181.349C752.748 181.352 752.748 191.242 759.127 191.242Z" fill="#81C8A4"/>
<path opacity="0.4" fill-rule="evenodd" clip-rule="evenodd" d="M720.806 231.263C720.806 159.144 599.492 100.681 679.257 100.681C759.029 100.681 823.689 159.144 823.689 231.263" fill="white"/>
<path fill-rule="evenodd" clip-rule="evenodd" d="M774.663 682.846H583.857L536.771 289.032H821.749L774.663 682.846Z" fill="#95E3DC"/>
<path fill-rule="evenodd" clip-rule="evenodd" d="M762.259 654.12H596.258L555.291 294.029H803.223L762.259 654.12Z" fill="#99CC66"/>
<path opacity="0.4" fill-rule="evenodd" clip-rule="evenodd" d="M626.665 682.846H583.857L536.771 289.032H579.576L626.665 682.846Z" fill="white"/>
<path d="M831.606 227.31H526.914V258.963H831.606V227.31Z" fill="#D9D9D9"/>
<path d="M831.606 227.31H745.083V258.963H831.606V227.31Z" fill="#C5C5C5"/>
<path d="M839.52 255.006H519V298.533H839.52V255.006Z" fill="#C5C5C5"/>
<path d="M839.517 255.006H760.246V298.533H839.517V255.006Z" fill="#B1B1B1"/>
<path fill-rule="evenodd" clip-rule="evenodd" d="M679.257 510.795C643.851 510.795 615.048 481.992 615.048 446.583C615.048 411.175 643.851 382.372 679.257 382.372C714.662 382.372 743.468 411.175 743.468 446.583C743.468 481.992 714.662 510.795 679.257 510.795Z" fill="white"/>
<path d="M679.257 386.039C712.69 386.039 739.801 413.143 739.801 446.583C739.801 480.017 712.69 507.128 679.257 507.128C645.826 507.128 618.72 480.017 618.72 446.583C618.72 413.139 645.826 386.039 679.257 386.039ZM679.257 378.7C641.831 378.7 611.38 409.154 611.38 446.583C611.38 484.013 641.827 514.467 679.257 514.467C716.686 514.467 747.14 484.013 747.14 446.583C747.14 409.154 716.686 378.7 679.257 378.7Z" fill="#3AA970"/>
<path fill-rule="evenodd" clip-rule="evenodd" d="M725.556 446.583C725.556 472.145 704.822 492.879 679.257 492.879C653.695 492.879 632.961 472.145 632.961 446.583C632.961 421.018 653.695 400.281 679.257 400.281C704.822 400.281 725.556 421.018 725.556 446.583Z" fill="#088F4A"/>
<path fill-rule="evenodd" clip-rule="evenodd" d="M679.257 463.015C670.193 463.015 662.819 455.644 662.819 446.583C662.819 437.52 670.193 430.145 679.257 430.145C688.321 430.145 695.699 437.52 695.699 446.583C695.699 455.644 688.321 463.015 679.257 463.015Z" fill="white"/>
<path d="M679.257 431.51C687.566 431.51 694.327 438.271 694.327 446.58C694.327 454.886 687.566 461.643 679.257 461.643C670.948 461.643 664.19 454.886 664.19 446.58C664.19 438.271 670.948 431.51 679.257 431.51ZM679.257 428.773C669.428 428.773 661.45 436.747 661.45 446.583C661.45 456.413 669.428 464.387 679.257 464.387C689.093 464.387 697.067 456.413 697.067 446.583C697.067 436.747 689.093 428.773 679.257 428.773Z" fill="white"/>
<path d="M610.072 337.384C622.832 337.384 622.832 317.602 610.072 317.602C597.312 317.602 597.312 337.384 610.072 337.384Z" fill="#61BA8D"/>
<path d="M759.963 407.33C772.723 407.33 772.723 387.545 759.963 387.545C747.2 387.545 747.2 407.33 759.963 407.33Z" fill="#61BA8D"/>
<path d="M640.032 561.038C652.788 561.038 652.788 541.253 640.032 541.253C627.272 541.253 627.272 561.038 640.032 561.038Z" fill="#61BA8D"/>
<path d="M733.982 637.156C746.742 637.156 746.742 617.371 733.982 617.371C721.222 617.371 721.222 637.156 733.982 637.156Z" fill="#61BA8D"/>
<path d="M745.976 534.76C755.537 534.76 755.537 519.923 745.976 519.923C736.404 519.923 736.404 534.76 745.976 534.76Z" fill="#61BA8D"/>
<path d="M713.995 340.904C723.563 340.904 723.563 326.067 713.995 326.067C704.431 326.067 704.431 340.904 713.995 340.904Z" fill="#61BA8D"/>
<path d="M638.046 626.692C647.625 626.692 647.625 611.855 638.046 611.855C628.482 611.855 628.482 626.692 638.046 626.692Z" fill="#61BA8D"/>
<path d="M717.772 566.416C724.152 566.416 724.152 556.524 717.772 556.524C711.392 556.527 711.392 566.416 717.772 566.416Z" fill="#61BA8D"/>
<path d="M614.071 388.395C620.451 388.395 620.451 378.499 614.071 378.499C607.688 378.499 607.688 388.395 614.071 388.395Z" fill="#61BA8D"/>
<path d="M664.031 352.422C670.411 352.422 670.411 342.53 664.031 342.53C657.651 342.53 657.651 352.422 664.031 352.422Z" fill="#61BA8D"/>
<path d="M759.963 350.426C766.347 350.426 766.347 340.53 759.963 340.53C753.583 340.533 753.583 350.426 759.963 350.426Z" fill="#61BA8D"/>
<path d="M759.963 474.329C766.347 474.329 766.347 464.436 759.963 464.436C753.583 464.436 753.583 474.329 759.963 474.329Z" fill="#61BA8D"/>
<path d="M680.022 610.233C686.405 610.233 686.405 600.337 680.022 600.337C673.642 600.337 673.642 610.233 680.022 610.233Z" fill="#61BA8D"/>
<path d="M626.062 526.292C632.442 526.292 632.442 516.399 626.062 516.399C619.682 516.403 619.682 526.292 626.062 526.292Z" fill="#61BA8D"/>
<path fill-rule="evenodd" clip-rule="evenodd" d="M702.251 231.263C702.251 159.144 766.911 100.681 846.683 100.681C926.455 100.681 991.115 159.144 991.115 231.263" fill="#BFEEEA"/>
<path d="M855.853 3H837.517V398.701H855.853V3Z" fill="#088F4A"/>
<path fill-rule="evenodd" clip-rule="evenodd" d="M739.216 250.322C731.263 238.832 730.378 221.156 737.445 209.669C746.287 195.527 762.083 188.459 776.222 184.922C814.223 176.969 803.068 152.317 809.035 123.482C816.657 155.297 873.251 155.149 909.778 168.131C929.665 175.198 950.431 189.344 957.499 207.895C961.918 220.27 964.566 246.785 946.012 250.319" fill="#FFCECE"/>
<path d="M947.514 202.88C954.014 212.596 960.606 240.151 944.248 243.924C940.648 244.753 939.272 247.607 939.526 250.431H959.276C968.036 241.417 968.276 225.561 965.815 213.111C961.314 190.282 940.64 174.49 920.591 165.383C900.933 156.461 879.109 151.036 858.481 145.055C842.691 140.481 829.078 136.623 815.419 123.697C810.845 119.366 802.821 118.967 802.638 125.679C802.306 137.885 800.875 143.094 798.787 155.639C796.279 170.666 786.457 175.414 772.688 178.993C756.282 183.243 741.166 191.986 731.728 206.322C723.5 218.807 724.569 236.635 731.277 249.765H745.991C745.885 248.862 745.553 247.924 744.943 246.975C735.343 232.184 738.535 215.076 751.436 203.695C763.484 193.058 779.756 192.91 793.436 185.814C811.247 176.577 812.351 157.522 813.507 139.352C819.803 145.425 827.868 149.869 836.082 153.276C854.146 160.767 873.473 164.544 892.278 169.668C913.142 175.36 935.008 184.184 947.514 202.88Z" fill="#FFCECE"/>
<path d="M784.841 156.083C796.116 171.834 819.4 165.782 835.362 162.153C850.556 158.693 864.98 155.699 880.769 155.864C885.897 155.953 890.927 156.64 895.857 157.921C904.293 159.578 904.766 164.678 897.282 173.22C885.047 176.486 871.917 177.85 859.362 178.908C836.889 180.806 815.27 174.465 793.143 171.777C778.44 169.993 756.482 168.24 747.824 183.275C729.644 214.829 800.98 213.347 813.436 212.988C831.254 212.473 848.972 210.554 866.705 208.9C880.064 207.652 892.937 206.484 906.039 203.384C925.087 198.88 939.508 188.244 959.928 190.854C966.244 191.661 966.167 181.758 959.928 180.961C946.843 179.286 936.401 181.564 924.258 186.431C906.37 193.604 888.899 197.583 869.572 198.764C854.453 199.688 839.4 201.691 824.267 202.601C805.162 203.747 784.682 204.788 766.065 199.604C755.174 196.574 752.024 186.417 764.608 182.202C775.164 178.669 788.562 180.982 799.28 182.453C819.767 185.267 838.501 189.789 859.362 188.797C870.683 188.258 918.541 187.771 916.859 168.205C915.106 147.855 890.228 146.067 874.457 145.901C861.612 145.767 848.866 148.628 836.484 151.707C825.815 154.362 801.481 162.41 793.376 151.089C789.705 145.951 781.117 150.881 784.841 156.083Z" fill="#FF8FAE"/>
<path opacity="0.4" fill-rule="evenodd" clip-rule="evenodd" d="M888.236 231.263C888.236 159.144 766.911 100.681 846.683 100.681C926.455 100.681 991.115 159.144 991.115 231.263" fill="white"/>
<path fill-rule="evenodd" clip-rule="evenodd" d="M942.09 682.846H751.284L704.198 289.032H989.179L942.09 682.846Z" fill="#95E3DC"/>
<path fill-rule="evenodd" clip-rule="evenodd" d="M929.682 654.12H763.688L722.717 294.022H970.653L929.682 654.12Z" fill="#FFADAD"/>
<path opacity="0.4" fill-rule="evenodd" clip-rule="evenodd" d="M794.096 682.846H751.284L704.198 289.032H747.01L794.096 682.846Z" fill="white"/>
<path d="M999.026 227.31H694.341V258.963H999.026V227.31Z" fill="#D9D9D9"/>
<path d="M999.026 227.31H912.51V258.963H999.026V227.31Z" fill="#C5C5C5"/>
<path d="M1006.95 255.006H686.43V298.533H1006.95V255.006Z" fill="#C5C5C5"/>
<path d="M1006.95 255.006H927.672V298.533H1006.95V255.006Z" fill="#B1B1B1"/>
<path d="M892.059 491.989C917.135 466.913 917.135 426.256 892.059 401.18C866.983 376.104 826.327 376.104 801.251 401.18C776.174 426.256 776.174 466.913 801.25 491.989C826.326 517.065 866.983 517.065 892.059 491.989Z" fill="white"/>
<path d="M846.683 386.039C880.117 386.039 907.227 413.143 907.227 446.583C907.227 480.017 880.117 507.127 846.683 507.127C813.246 507.127 786.139 480.017 786.139 446.583C786.139 413.139 813.249 386.039 846.683 386.039ZM846.683 378.7C809.253 378.7 778.8 409.154 778.8 446.583C778.8 484.013 809.253 514.467 846.683 514.467C884.113 514.467 914.566 484.013 914.566 446.583C914.566 409.154 884.113 378.7 846.683 378.7Z" fill="#3AA970"/>
<path fill-rule="evenodd" clip-rule="evenodd" d="M892.986 446.583C892.986 472.145 872.245 492.879 846.683 492.879C821.124 492.879 800.391 472.145 800.391 446.583C800.391 421.018 821.124 400.281 846.683 400.281C872.245 400.281 892.986 421.018 892.986 446.583Z" fill="#088F4A"/>
<path fill-rule="evenodd" clip-rule="evenodd" d="M846.683 463.015C837.623 463.015 830.252 455.644 830.252 446.583C830.252 437.52 837.623 430.145 846.683 430.145C855.751 430.145 863.125 437.52 863.125 446.583C863.125 455.644 855.751 463.015 846.683 463.015Z" fill="white"/>
<path d="M846.683 431.51C854.992 431.51 861.757 438.271 861.757 446.58C861.757 454.886 854.992 461.643 846.683 461.643C838.374 461.643 831.617 454.886 831.617 446.58C831.62 438.271 838.378 431.51 846.683 431.51ZM846.683 428.773C836.854 428.773 828.88 436.747 828.88 446.583C828.88 456.413 836.854 464.387 846.683 464.387C856.52 464.387 864.497 456.413 864.497 446.583C864.497 436.747 856.52 428.773 846.683 428.773Z" fill="white"/>
<path d="M775.647 331.113C788.403 331.113 788.403 311.328 775.647 311.328C762.887 311.325 762.887 331.113 775.647 331.113Z" fill="#FF8FAE"/>
<path d="M927.531 395.068C940.291 395.068 940.291 375.283 927.531 375.283C914.775 375.283 914.775 395.068 927.531 395.068Z" fill="#FF8FAE"/>
<path d="M807.621 560.946C820.378 560.946 820.378 541.164 807.621 541.164C794.861 541.161 794.861 560.946 807.621 560.946Z" fill="#FF8FAE"/>
<path d="M903.553 638.884C916.313 638.884 916.313 619.099 903.553 619.099C890.793 619.099 890.793 638.884 903.553 638.884Z" fill="#FF8FAE"/>
<path d="M901.55 534.488C911.122 534.488 911.122 519.648 901.55 519.648C891.982 519.648 891.982 534.488 901.55 534.488Z" fill="#FF8FAE"/>
<path d="M875.571 336.633C885.139 336.633 885.139 321.796 875.571 321.796C866 321.796 866 336.633 875.571 336.633Z" fill="#FF8FAE"/>
<path d="M813.613 622.421C823.181 622.421 823.181 607.584 813.613 607.584C804.048 607.584 804.048 622.421 813.613 622.421Z" fill="#FF8FAE"/>
<path d="M887.344 574.14C893.723 574.14 893.723 564.247 887.344 564.247C880.964 564.247 880.964 574.14 887.344 574.14Z" fill="#FF8FAE"/>
<path d="M781.647 384.121C788.027 384.121 788.027 374.228 781.647 374.228C775.256 374.228 775.256 384.121 781.647 384.121Z" fill="#FF8FAE"/>
<path d="M827.611 356.143C833.991 356.143 833.991 346.25 827.611 346.25C821.227 346.254 821.227 356.143 827.611 356.143Z" fill="#FF8FAE"/>
<path d="M933.527 342.156C939.907 342.156 939.907 332.259 933.527 332.259C927.147 332.263 927.147 342.156 933.527 342.156Z" fill="#FF8FAE"/>
<path d="M929.527 468.062C935.907 468.062 935.907 458.169 929.527 458.169C923.147 458.169 923.147 468.062 929.527 468.062Z" fill="#FF8FAE"/>
<path d="M851.589 609.951C857.969 609.951 857.969 600.058 851.589 600.058C845.209 600.058 845.209 609.951 851.589 609.951Z" fill="#FF8FAE"/>
<path d="M791.638 526.017C798.014 526.017 798.014 516.124 791.638 516.124C785.247 516.128 785.247 526.017 791.638 526.017Z" fill="#FF8FAE"/>
</svg>
