<svg width="1939" height="976" viewBox="0 0 1939 976" fill="none" xmlns="http://www.w3.org/2000/svg">
<mask id="mask0_50_2005" style="mask-type:alpha" maskUnits="userSpaceOnUse" x="0" y="0" width="1939" height="976">
<path d="M0.000246557 178H1939V976H0.000246557V178Z" fill="#F0E7C3"/>
<path d="M0 0H593.819V322H0V0Z" fill="#D9D9D9"/>
</mask>
<g mask="url(#mask0_50_2005)">
<ellipse cx="184.242" cy="313.872" rx="226.242" ry="232.872" fill="#4B0065"/>
<ellipse cx="476.812" cy="594.442" rx="226.242" ry="232.872" fill="#4B0065"/>
<path d="M1039.24 638.397C1039.24 767.009 937.945 871.27 812.995 871.27C688.045 871.27 586.753 767.009 586.753 638.397C586.753 509.785 688.045 405.525 812.995 405.525C937.945 405.525 1039.24 509.785 1039.24 638.397Z" fill="#4B0065"/>
<path d="M1141 852.565C1141 952.769 1062.08 1034 964.731 1034C867.381 1034 788.462 952.769 788.462 852.565C788.462 752.362 867.381 671.131 964.731 671.131C1062.08 671.131 1141 752.362 1141 852.565Z" fill="#4B0065"/>
<path d="M560.363 352.217C560.363 418.847 507.886 472.861 443.153 472.861C378.42 472.861 325.944 418.847 325.944 352.217C325.944 285.587 378.42 231.572 443.153 231.572C507.886 231.572 560.363 285.587 560.363 352.217Z" fill="#4B0065"/>
<circle cx="170.698" cy="417.698" r="185.698" fill="#610083"/>
<circle cx="410.838" cy="641.431" r="185.698" fill="#610083"/>
<path d="M872.473 676.482C872.473 779.041 789.333 862.18 686.775 862.18C584.217 862.18 501.077 779.041 501.077 676.482C501.077 573.924 584.217 490.784 686.775 490.784C789.333 490.784 872.473 573.924 872.473 676.482Z" fill="#610083"/>
<path d="M956 847.265C956 927.17 891.224 991.945 811.32 991.945C731.415 991.945 666.639 927.17 666.639 847.265C666.639 767.36 731.415 702.584 811.32 702.584C891.224 702.584 956 767.36 956 847.265Z" fill="#610083"/>
<path d="M479.416 448.275C479.416 501.407 436.344 544.48 383.211 544.48C330.079 544.48 287.006 501.407 287.006 448.275C287.006 395.142 330.079 352.07 383.211 352.07C436.344 352.07 479.416 395.142 479.416 448.275Z" fill="#610083"/>
<circle cx="127.077" cy="547.077" r="159.077" fill="#700098"/>
<circle cx="360.79" cy="735.735" r="159.077" fill="#700098"/>
<path d="M756.246 765.761C756.246 853.617 685.025 924.838 597.169 924.838C509.314 924.838 438.093 853.617 438.093 765.761C438.093 677.906 509.314 606.685 597.169 606.685C685.025 606.685 756.246 677.906 756.246 765.761Z" fill="#700098"/>
<path d="M827.798 912.061C827.798 980.51 772.309 1036 703.859 1036C635.409 1036 579.92 980.51 579.92 912.061C579.92 843.611 635.409 788.122 703.859 788.122C772.309 788.122 827.798 843.611 827.798 912.061Z" fill="#700098"/>
<path d="M419.537 570.27C419.537 615.785 382.64 652.683 337.124 652.683C291.609 652.683 254.711 615.785 254.711 570.27C254.711 524.754 291.609 487.857 337.124 487.857C382.64 487.857 419.537 524.754 419.537 570.27Z" fill="#700098"/>
<circle cx="82.5" cy="671.5" r="124.5" fill="#8600B6"/>
<circle cx="243.5" cy="821.5" r="124.5" fill="#8600B6"/>
<path d="M553 845C553 913.759 497.259 969.5 428.5 969.5C359.741 969.5 304 913.759 304 845C304 776.241 359.741 720.5 428.5 720.5C497.259 720.5 553 776.241 553 845Z" fill="#8600B6"/>
<path d="M609 959.5C609 1013.07 565.572 1056.5 512 1056.5C458.428 1056.5 415 1013.07 415 959.5C415 905.928 458.428 862.5 512 862.5C565.572 862.5 609 905.928 609 959.5Z" fill="#8600B6"/>
<path d="M289.478 692C289.478 727.622 260.6 756.5 224.978 756.5C189.355 756.5 160.478 727.622 160.478 692C160.478 656.378 189.355 627.5 224.978 627.5C260.6 627.5 289.478 656.378 289.478 692Z" fill="#8600B6"/>
<circle cx="-56.5" cy="799.5" r="124.5" fill="#9F02D7"/>
<circle cx="104.5" cy="949.5" r="124.5" fill="#9F02D7"/>
<path d="M445 975.5C445 1044.26 389.259 1100 320.5 1100C251.741 1100 196 1044.26 196 975.5C196 906.741 251.741 851 320.5 851C389.259 851 445 906.741 445 975.5Z" fill="#9F02D7"/>
<path d="M150.478 820C150.478 855.622 121.6 884.5 85.9778 884.5C50.3554 884.5 21.4778 855.622 21.4778 820C21.4778 784.378 50.3554 755.5 85.9778 755.5C121.6 755.5 150.478 784.378 150.478 820Z" fill="#9F02D7"/>
</g>
<path fill-rule="evenodd" clip-rule="evenodd" d="M175.562 425.692C175.562 358.508 235.797 304.049 310.109 304.049C384.422 304.049 444.657 358.512 444.657 425.692" fill="#BFEEEA"/>
<path d="M318.648 213.047L301.568 213.047L301.568 581.67L318.648 581.67L318.648 213.047Z" fill="#088F4A"/>
<path fill-rule="evenodd" clip-rule="evenodd" d="M214.034 427.985C201.205 413.602 196.336 378.385 213.118 361.012C229.095 344.483 255.726 348.866 261.338 373.529C263.742 341.677 274.801 321.863 295.815 322.464C308.28 322.822 318.267 330.408 318.267 354.04C326.694 335.3 357.124 339.601 351.138 367.366C411.267 324.219 455.213 423.583 399.883 428.721" fill="#1C1C1C"/>
<path d="M302.28 353.229C303.407 354.927 302.928 357.214 301.229 358.334L293.531 363.397C291.826 364.517 289.543 364.041 288.423 362.342L279.818 349.253C278.698 347.552 279.171 345.268 280.869 344.148L288.567 339.085C290.272 337.965 292.556 338.438 293.673 340.14L302.28 353.229Z" fill="#1B1B1B"/>
<path d="M416.652 401.426C417.477 403.282 416.639 405.464 414.783 406.288L406.353 410.027C404.493 410.852 402.318 410.011 401.487 408.151L395.136 393.83C394.312 391.967 395.153 389.789 397.009 388.964L405.436 385.229C407.296 384.404 409.474 385.245 410.298 387.108L416.652 401.426Z" fill="#1B1B1B"/>
<path d="M245.239 407.113C244.684 409.074 242.65 410.211 240.692 409.659L231.822 407.152C229.864 406.597 228.727 404.56 229.279 402.599L233.54 387.522C234.095 385.564 236.132 384.427 238.09 384.979L246.958 387.486C248.922 388.038 250.059 390.078 249.5 392.036L245.239 407.113Z" fill="#1B1B1B"/>
<path d="M337.789 394.875C336.689 396.59 334.412 397.086 332.697 395.985L324.94 391.008C323.228 389.91 322.729 387.627 323.836 385.912L332.296 372.731C333.397 371.016 335.673 370.52 337.392 371.617L345.145 376.595C346.854 377.695 347.35 379.975 346.252 381.69L337.789 394.875Z" fill="#1B1B1B"/>
<path d="M221.512 372.586C227.458 372.586 227.458 363.371 221.512 363.371C215.572 363.371 215.572 372.586 221.512 372.586Z" fill="#1C1C1C"/>
<path d="M306.755 412.215C312.702 412.215 312.702 402.999 306.755 402.999C300.815 402.999 300.815 412.215 306.755 412.215Z" fill="#1C1C1C"/>
<path d="M383.703 382.265C389.646 382.265 389.646 373.05 383.703 373.05C377.76 373.05 377.76 382.265 383.703 382.265Z" fill="#1C1C1C"/>
<path d="M277.265 397.007C289.152 397.007 289.152 378.576 277.265 378.576C265.379 378.576 265.379 397.007 277.265 397.007Z" fill="#1C1C1C"/>
<path d="M371.268 417.284C383.151 417.284 383.151 398.853 371.268 398.853C359.374 398.853 359.374 417.284 371.268 417.284Z" fill="#1C1C1C"/>
<path opacity="0.4" fill-rule="evenodd" clip-rule="evenodd" d="M348.815 425.692C348.815 358.508 235.797 304.049 310.11 304.049C384.422 304.049 444.657 358.512 444.657 425.692" fill="#040404"/>
<path fill-rule="evenodd" clip-rule="evenodd" d="M398.98 846.369L221.239 846.369L177.369 479.51L442.843 479.51L398.98 846.369Z" fill="#95E3DC"/>
<path fill-rule="evenodd" clip-rule="evenodd" d="M387.425 819.606L232.784 819.606L194.627 484.156L425.592 484.156L387.425 819.606Z" fill="#1C1C1C"/>
<path opacity="0.4" fill-rule="evenodd" clip-rule="evenodd" d="M261.111 846.369L221.239 846.369L177.369 479.51L217.244 479.51L261.111 846.369Z" fill="#040404"/>
<path d="M452.029 422.006L168.193 422.006L168.193 451.495L452.029 451.495L452.029 422.006Z" fill="#D9D9D9"/>
<path d="M452.026 422.006L371.432 422.006L371.432 451.495L452.026 451.495L452.026 422.006Z" fill="#C5C5C5"/>
<path d="M459.405 447.806L160.814 447.806L160.814 488.358L459.405 488.358L459.405 447.806Z" fill="#C5C5C5"/>
<path d="M459.402 447.806L385.556 447.806L385.556 488.358L459.402 488.358L459.402 447.806Z" fill="#B1B1B1"/>
<path fill-rule="evenodd" clip-rule="evenodd" d="M310.11 686.09C277.124 686.09 250.289 659.255 250.289 626.273C250.289 593.287 277.124 566.452 310.11 566.452C343.092 566.452 369.927 593.287 369.927 626.273C369.927 659.258 343.092 686.09 310.11 686.09Z" fill="#040404"/>
<path d="M310.11 569.869C341.255 569.869 366.51 595.121 366.51 626.273C366.51 657.425 341.255 682.67 310.11 682.67C278.957 682.67 253.709 657.422 253.709 626.273C253.709 595.124 278.957 569.869 310.11 569.869ZM310.11 563.032C275.242 563.032 246.872 591.401 246.872 626.273C246.872 661.141 275.238 689.507 310.11 689.507C344.978 689.507 373.347 661.141 373.347 626.273C373.347 591.405 344.978 563.032 310.11 563.032Z" fill="#3AA970"/>
<path fill-rule="evenodd" clip-rule="evenodd" d="M353.234 626.273C353.234 650.089 333.919 669.4 310.11 669.4C286.297 669.4 266.976 650.089 266.976 626.273C266.976 602.454 286.297 583.142 310.11 583.142C333.919 583.145 353.234 602.454 353.234 626.273Z" fill="#088F4A"/>
<path fill-rule="evenodd" clip-rule="evenodd" d="M310.11 641.583C301.666 641.583 294.796 634.716 294.796 626.273C294.796 617.829 301.666 610.959 310.11 610.959C318.55 610.959 325.42 617.829 325.42 626.273C325.42 634.716 318.55 641.583 310.11 641.583Z" fill="#040404"/>
<path d="M310.11 612.238C317.847 612.238 324.142 618.536 324.142 626.273C324.142 634.01 317.847 640.305 310.11 640.305C302.369 640.305 296.074 634.01 296.074 626.273C296.074 618.536 302.369 612.238 310.11 612.238ZM310.11 609.688C300.947 609.688 293.522 617.116 293.522 626.276C293.522 635.433 300.947 642.861 310.11 642.861C319.266 642.861 326.695 635.433 326.695 626.276C326.695 617.113 319.266 609.688 310.11 609.688Z" fill="#040404"/>
<path d="M243.074 522.687C254.961 522.687 254.961 504.256 243.074 504.256C231.194 504.256 231.194 522.687 243.074 522.687Z" fill="#1B1B1B"/>
<path d="M384.567 576.676C396.453 576.676 396.453 558.245 384.567 558.245C372.68 558.242 372.68 576.676 384.567 576.676Z" fill="#1B1B1B"/>
<path d="M280.298 745.924C292.181 745.924 292.181 727.497 280.298 727.497C268.405 727.497 268.405 745.924 280.298 745.924Z" fill="#1B1B1B"/>
<path d="M358.504 801.947C370.387 801.947 370.387 783.516 358.504 783.516C346.617 783.516 346.617 801.947 358.504 801.947Z" fill="#1B1B1B"/>
<path d="M369.677 715.866C378.591 715.866 378.591 702.041 369.677 702.041C360.761 702.041 360.761 715.866 369.677 715.866Z" fill="#1B1B1B"/>
<path d="M339.889 527.829C348.802 527.829 348.802 514.007 339.889 514.007C330.969 514.007 330.969 527.829 339.889 527.829Z" fill="#1B1B1B"/>
<path d="M278.448 801.503C287.365 801.503 287.365 787.678 278.448 787.678C269.535 787.678 269.535 801.503 278.448 801.503Z" fill="#1B1B1B"/>
<path d="M343.404 743.496C349.351 743.496 349.351 734.281 343.404 734.281C337.461 734.281 337.461 743.496 343.404 743.496Z" fill="#1B1B1B"/>
<path d="M254.245 568.344C260.191 568.344 260.191 559.129 254.245 559.129C248.301 559.129 248.301 568.344 254.245 568.344Z" fill="#1B1B1B"/>
<path d="M298.933 540.418C304.876 540.418 304.876 531.203 298.933 531.203C292.986 531.203 292.986 540.418 298.933 540.418Z" fill="#1B1B1B"/>
<path d="M397.6 527.388C403.543 527.388 403.543 518.17 397.6 518.17C391.653 518.17 391.653 527.388 397.6 527.388Z" fill="#1B1B1B"/>
<path d="M388.293 653.982C394.236 653.982 394.236 644.766 388.293 644.766C382.346 644.766 382.346 653.982 388.293 653.982Z" fill="#1B1B1B"/>
<path d="M310.103 786.167C316.047 786.167 316.047 776.952 310.103 776.952C304.153 776.955 304.153 786.167 310.103 786.167Z" fill="#1B1B1B"/>
<path d="M263.552 704.252C269.499 704.252 269.499 695.033 263.552 695.033C257.612 695.033 257.612 704.252 263.552 704.252Z" fill="#1B1B1B"/>
<path fill-rule="evenodd" clip-rule="evenodd" d="M1569.29 319.464C1588.16 282.525 1636.58 269.508 1677.44 290.389C1718.3 311.27 1736.12 358.139 1717.24 395.076" fill="#BFEEEA"/>
<path d="M1707.71 242.754L1698.32 237.954L1594.74 440.629L1604.13 445.428L1707.71 242.754Z" fill="#088F4A"/>
<path fill-rule="evenodd" clip-rule="evenodd" d="M1589.79 331.535C1586.78 320.022 1594 299.291 1608.11 294.454C1621.54 289.856 1634.95 299.749 1631.1 314.886C1641.38 298.049 1653.02 290.262 1664.41 296.497C1671.16 300.196 1674.52 307.174 1667.88 320.167C1677.78 312.231 1693.3 323.146 1682.21 336.73C1727.39 329.902 1723.64 396.882 1691.77 384.161" fill="#1C1C1C"/>
<path d="M1659.32 315.229C1659.46 316.479 1658.56 317.602 1657.31 317.74L1651.65 318.361C1650.4 318.498 1649.28 317.594 1649.14 316.346L1648.09 306.731C1647.95 305.481 1648.85 304.358 1650.1 304.22L1655.75 303.599C1657.01 303.462 1658.13 304.364 1658.26 305.613L1659.32 315.229Z" fill="#1B1B1B"/>
<path d="M1708.66 373.865C1708.59 375.118 1707.52 376.082 1706.27 376.013L1700.58 375.7C1699.33 375.631 1698.37 374.558 1698.43 373.302L1698.96 363.643C1699.03 362.387 1700.11 361.426 1701.36 361.494L1707.04 361.808C1708.3 361.877 1709.26 362.952 1709.19 364.208L1708.66 373.865Z" fill="#1B1B1B"/>
<path d="M1612.82 328.827C1611.96 329.75 1610.52 329.803 1609.6 328.95L1605.43 325.079C1604.51 324.223 1604.46 322.784 1605.31 321.861L1611.89 314.768C1612.74 313.848 1614.18 313.795 1615.11 314.649L1619.28 318.519C1620.2 319.374 1620.25 320.815 1619.4 321.735L1612.82 328.827Z" fill="#1B1B1B"/>
<path d="M1667.14 348.104C1666.05 348.737 1664.66 348.371 1664.03 347.283L1661.16 342.367C1660.53 341.283 1660.9 339.887 1661.99 339.255L1670.34 334.385C1671.43 333.752 1672.82 334.119 1673.46 335.205L1676.32 340.12C1676.95 341.205 1676.58 342.598 1675.5 343.233L1667.14 348.104Z" fill="#1B1B1B"/>
<path d="M1609.47 303.177C1612.74 304.848 1615.33 299.781 1612.06 298.11C1608.8 296.441 1606.21 301.508 1609.47 303.177Z" fill="#1C1C1C"/>
<path d="M1645.21 348.918C1648.48 350.589 1651.06 345.522 1647.8 343.851C1644.53 342.182 1641.94 347.249 1645.21 348.918Z" fill="#1C1C1C"/>
<path d="M1695.93 354.072C1699.2 355.742 1701.79 350.675 1698.52 349.005C1695.25 347.335 1692.66 352.402 1695.93 354.072Z" fill="#1C1C1C"/>
<path d="M1633.26 332.27C1639.8 335.61 1644.98 325.476 1638.44 322.136C1631.91 318.796 1626.73 328.93 1633.26 332.27Z" fill="#1C1C1C"/>
<path d="M1679.25 369.832C1685.78 373.171 1690.96 363.037 1684.43 359.698C1677.89 356.356 1672.71 366.49 1679.25 369.832Z" fill="#1C1C1C"/>
<path opacity="0.4" fill-rule="evenodd" clip-rule="evenodd" d="M1664.54 368.145C1683.42 331.207 1636.58 269.508 1677.44 290.389C1718.3 311.27 1736.12 358.139 1717.24 395.076" fill="#040404"/>
<path fill-rule="evenodd" clip-rule="evenodd" d="M1573.92 613.536L1476.2 563.593L1555.16 349.562L1701.12 424.156L1573.92 613.536Z" fill="#95E3DC"/>
<path fill-rule="evenodd" clip-rule="evenodd" d="M1575.09 595.574L1490.06 552.122L1563.34 356.965L1690.33 421.863L1575.09 595.574Z" fill="#1C1C1C"/>
<path opacity="0.4" fill-rule="evenodd" clip-rule="evenodd" d="M1498.12 574.797L1476.2 563.593L1555.16 349.562L1577.08 360.766L1498.12 574.797Z" fill="#040404"/>
<path d="M1722.33 395.121L1566.27 315.366L1557.98 331.58L1714.04 411.335L1722.33 395.121Z" fill="#D9D9D9"/>
<path d="M1722.33 395.12L1678.01 372.474L1669.73 388.688L1714.04 411.334L1722.33 395.12Z" fill="#C5C5C5"/>
<path d="M1719.13 411.378L1554.96 327.478L1543.57 349.774L1707.74 433.674L1719.13 411.378Z" fill="#C5C5C5"/>
<path d="M1719.13 411.377L1678.53 390.628L1667.14 412.924L1707.74 433.673L1719.13 411.377Z" fill="#B1B1B1"/>
<path fill-rule="evenodd" clip-rule="evenodd" d="M1570.09 500.441C1551.96 491.172 1544.74 468.878 1554.01 450.744C1563.28 432.608 1585.58 425.393 1603.71 434.662C1621.85 443.93 1629.06 466.224 1619.79 484.36C1610.52 502.496 1588.23 509.708 1570.09 500.441Z" fill="#040404"/>
<path d="M1602.75 436.541C1619.88 445.292 1626.67 466.272 1617.91 483.4C1609.16 500.528 1588.18 507.312 1571.06 498.56C1553.93 489.807 1547.14 468.831 1555.89 451.704C1564.64 434.578 1585.62 427.787 1602.75 436.541ZM1604.67 432.781C1585.5 422.984 1561.93 430.611 1552.13 449.783C1542.34 468.954 1549.96 492.521 1569.13 502.319C1588.31 512.117 1611.87 504.492 1621.67 485.321C1631.47 466.15 1623.84 442.579 1604.67 432.781Z" fill="#3AA970"/>
<path fill-rule="evenodd" clip-rule="evenodd" d="M1610.61 479.67C1603.92 492.764 1587.87 497.955 1574.78 491.264C1561.69 484.573 1556.49 468.527 1563.19 455.432C1569.88 442.336 1585.93 437.147 1599.02 443.838C1612.11 450.53 1617.31 466.573 1610.61 479.67Z" fill="#088F4A"/>
<path fill-rule="evenodd" clip-rule="evenodd" d="M1582.6 475.97C1577.96 473.597 1576.11 467.892 1578.48 463.249C1580.86 458.607 1586.56 456.76 1591.21 459.133C1595.85 461.504 1597.69 467.212 1595.32 471.854C1592.95 476.496 1587.24 478.341 1582.6 475.97Z" fill="#040404"/>
<path d="M1590.85 459.835C1595.1 462.01 1596.79 467.241 1594.62 471.495C1592.44 475.749 1587.21 477.441 1582.96 475.267C1578.7 473.092 1577.01 467.863 1579.19 463.609C1581.36 459.355 1586.59 457.661 1590.85 459.835ZM1591.56 458.434C1586.52 455.859 1580.35 457.857 1577.78 462.893C1575.21 467.927 1577.2 474.098 1582.24 476.673C1587.28 479.245 1593.45 477.248 1596.02 472.214C1598.59 467.176 1596.6 461.007 1591.56 458.434Z" fill="#040404"/>
<path d="M1579.15 391.763C1585.69 395.103 1590.87 384.969 1584.33 381.629C1577.8 378.291 1572.62 388.425 1579.15 391.763Z" fill="#1B1B1B"/>
<path d="M1641.78 461.205C1648.31 464.545 1653.49 454.411 1646.96 451.071C1640.42 447.729 1635.24 457.865 1641.78 461.205Z" fill="#1B1B1B"/>
<path d="M1536.89 524.962C1543.42 528.301 1548.6 518.169 1542.07 514.83C1535.53 511.488 1530.35 521.62 1536.89 524.962Z" fill="#1B1B1B"/>
<path d="M1564.15 577.739C1570.68 581.078 1575.86 570.944 1569.33 567.605C1562.79 564.265 1557.61 574.399 1564.15 577.739Z" fill="#1B1B1B"/>
<path d="M1594.48 533.55C1599.38 536.054 1603.26 528.453 1598.36 525.948C1593.46 523.443 1589.58 531.044 1594.48 533.55Z" fill="#1B1B1B"/>
<path d="M1630.94 421.794C1635.84 424.298 1639.72 416.699 1634.82 414.194C1629.92 411.688 1626.03 419.287 1630.94 421.794Z" fill="#1B1B1B"/>
<path d="M1520.26 555C1525.16 557.506 1529.04 549.904 1524.14 547.399C1519.24 544.894 1515.36 552.496 1520.26 555Z" fill="#1B1B1B"/>
<path d="M1572.27 541.359C1575.54 543.03 1578.13 537.963 1574.86 536.292C1571.59 534.622 1569 539.689 1572.27 541.359Z" fill="#1B1B1B"/>
<path d="M1572.46 420.005C1575.73 421.676 1578.32 416.609 1575.05 414.938C1571.79 413.268 1569.2 418.335 1572.46 420.005Z" fill="#1B1B1B"/>
<path d="M1604.88 417.208C1608.15 418.878 1610.74 413.811 1607.47 412.141C1604.2 410.47 1601.61 415.537 1604.88 417.208Z" fill="#1B1B1B"/>
<path d="M1662.79 437.768C1666.06 439.438 1668.65 434.369 1665.38 432.699C1662.11 431.028 1659.52 436.097 1662.79 437.768Z" fill="#1B1B1B"/>
<path d="M1622.1 504.755C1625.37 506.425 1627.96 501.359 1624.69 499.689C1621.42 498.018 1618.83 503.085 1622.1 504.755Z" fill="#1B1B1B"/>
<path d="M1541.97 555.463C1545.24 557.133 1547.83 552.066 1544.56 550.396C1541.29 548.726 1538.7 553.791 1541.97 555.463Z" fill="#1B1B1B"/>
<path d="M1539.39 497.344C1542.66 499.015 1545.25 493.947 1541.98 492.276C1538.72 490.607 1536.13 495.675 1539.39 497.344Z" fill="#1B1B1B"/>
<g filter="url(#filter0_d_50_2005)">
<path d="M587.96 424C590.52 424 592.6 424.853 594.2 426.56C595.8 428.267 596.6 430.4 596.6 432.96V526.24C596.6 529.013 595.64 531.36 593.72 533.28C591.907 535.093 589.613 536 586.84 536C585.453 536 584.013 535.787 582.52 535.36C581.133 534.827 580.067 534.133 579.32 533.28L516.44 453.44L520.6 450.88V527.04C520.6 529.6 519.747 531.733 518.04 533.44C516.44 535.147 514.307 536 511.64 536C509.08 536 507 535.147 505.4 533.44C503.8 531.733 503 529.6 503 527.04V433.76C503 430.987 503.907 428.693 505.72 426.88C507.64 424.96 509.987 424 512.76 424C514.253 424 515.8 424.32 517.4 424.96C519 425.493 520.173 426.347 520.92 427.52L581.88 505.28L579.16 507.2V432.96C579.16 430.4 579.96 428.267 581.56 426.56C583.16 424.853 585.293 424 587.96 424ZM702.096 493.28C702.096 502.027 700.123 509.76 696.176 516.48C692.336 523.093 687.11 528.267 680.496 532C673.99 535.733 666.683 537.6 658.576 537.6C650.47 537.6 643.11 535.733 636.496 532C629.99 528.267 624.763 523.093 620.816 516.48C616.976 509.76 615.056 502.027 615.056 493.28C615.056 484.533 616.976 476.853 620.816 470.24C624.763 463.52 629.99 458.293 636.496 454.56C643.11 450.72 650.47 448.8 658.576 448.8C666.683 448.8 673.99 450.72 680.496 454.56C687.11 458.293 692.336 463.52 696.176 470.24C700.123 476.853 702.096 484.533 702.096 493.28ZM682.896 493.28C682.896 487.84 681.776 483.147 679.536 479.2C677.403 475.147 674.47 472 670.736 469.76C667.11 467.52 663.056 466.4 658.576 466.4C654.096 466.4 649.99 467.52 646.256 469.76C642.63 472 639.696 475.147 637.456 479.2C635.323 483.147 634.256 487.84 634.256 493.28C634.256 498.613 635.323 503.307 637.456 507.36C639.696 511.307 642.63 514.4 646.256 516.64C649.99 518.88 654.096 520 658.576 520C663.056 520 667.11 518.88 670.736 516.64C674.47 514.4 677.403 511.307 679.536 507.36C681.776 503.307 682.896 498.613 682.896 493.28ZM721.959 450.4C723.985 450.4 725.852 450.933 727.559 452C729.265 452.96 730.545 454.453 731.399 456.48L754.919 510.24L751.399 511.84L775.399 456.64C777.212 452.373 780.039 450.347 783.879 450.56C786.545 450.56 788.679 451.413 790.279 453.12C791.985 454.72 792.839 456.747 792.839 459.2C792.839 459.947 792.679 460.747 792.359 461.6C792.145 462.453 791.879 463.253 791.559 464L761.639 529.92C759.932 533.76 757.212 535.787 753.479 536C751.452 536.32 749.479 535.947 747.559 534.88C745.745 533.813 744.359 532.16 743.399 529.92L713.639 464C713.425 463.467 713.159 462.773 712.839 461.92C712.625 461.067 712.519 460.053 712.519 458.88C712.519 456.96 713.372 455.093 715.079 453.28C716.785 451.36 719.079 450.4 721.959 450.4ZM890.221 493.28C890.221 502.027 888.248 509.76 884.301 516.48C880.461 523.093 875.235 528.267 868.621 532C862.115 535.733 854.808 537.6 846.701 537.6C838.595 537.6 831.235 535.733 824.621 532C818.115 528.267 812.888 523.093 808.941 516.48C805.101 509.76 803.181 502.027 803.181 493.28C803.181 484.533 805.101 476.853 808.941 470.24C812.888 463.52 818.115 458.293 824.621 454.56C831.235 450.72 838.595 448.8 846.701 448.8C854.808 448.8 862.115 450.72 868.621 454.56C875.235 458.293 880.461 463.52 884.301 470.24C888.248 476.853 890.221 484.533 890.221 493.28ZM871.021 493.28C871.021 487.84 869.901 483.147 867.661 479.2C865.528 475.147 862.595 472 858.861 469.76C855.235 467.52 851.181 466.4 846.701 466.4C842.221 466.4 838.115 467.52 834.381 469.76C830.755 472 827.821 475.147 825.581 479.2C823.448 483.147 822.381 487.84 822.381 493.28C822.381 498.613 823.448 503.307 825.581 507.36C827.821 511.307 830.755 514.4 834.381 516.64C838.115 518.88 842.221 520 846.701 520C851.181 520 855.235 518.88 858.861 516.64C862.595 514.4 865.528 511.307 867.661 507.36C869.901 503.307 871.021 498.613 871.021 493.28Z" fill="#15673E"/>
<path d="M587.96 424C590.52 424 592.6 424.853 594.2 426.56C595.8 428.267 596.6 430.4 596.6 432.96V526.24C596.6 529.013 595.64 531.36 593.72 533.28C591.907 535.093 589.613 536 586.84 536C585.453 536 584.013 535.787 582.52 535.36C581.133 534.827 580.067 534.133 579.32 533.28L516.44 453.44L520.6 450.88V527.04C520.6 529.6 519.747 531.733 518.04 533.44C516.44 535.147 514.307 536 511.64 536C509.08 536 507 535.147 505.4 533.44C503.8 531.733 503 529.6 503 527.04V433.76C503 430.987 503.907 428.693 505.72 426.88C507.64 424.96 509.987 424 512.76 424C514.253 424 515.8 424.32 517.4 424.96C519 425.493 520.173 426.347 520.92 427.52L581.88 505.28L579.16 507.2V432.96C579.16 430.4 579.96 428.267 581.56 426.56C583.16 424.853 585.293 424 587.96 424ZM702.096 493.28C702.096 502.027 700.123 509.76 696.176 516.48C692.336 523.093 687.11 528.267 680.496 532C673.99 535.733 666.683 537.6 658.576 537.6C650.47 537.6 643.11 535.733 636.496 532C629.99 528.267 624.763 523.093 620.816 516.48C616.976 509.76 615.056 502.027 615.056 493.28C615.056 484.533 616.976 476.853 620.816 470.24C624.763 463.52 629.99 458.293 636.496 454.56C643.11 450.72 650.47 448.8 658.576 448.8C666.683 448.8 673.99 450.72 680.496 454.56C687.11 458.293 692.336 463.52 696.176 470.24C700.123 476.853 702.096 484.533 702.096 493.28ZM682.896 493.28C682.896 487.84 681.776 483.147 679.536 479.2C677.403 475.147 674.47 472 670.736 469.76C667.11 467.52 663.056 466.4 658.576 466.4C654.096 466.4 649.99 467.52 646.256 469.76C642.63 472 639.696 475.147 637.456 479.2C635.323 483.147 634.256 487.84 634.256 493.28C634.256 498.613 635.323 503.307 637.456 507.36C639.696 511.307 642.63 514.4 646.256 516.64C649.99 518.88 654.096 520 658.576 520C663.056 520 667.11 518.88 670.736 516.64C674.47 514.4 677.403 511.307 679.536 507.36C681.776 503.307 682.896 498.613 682.896 493.28ZM721.959 450.4C723.985 450.4 725.852 450.933 727.559 452C729.265 452.96 730.545 454.453 731.399 456.48L754.919 510.24L751.399 511.84L775.399 456.64C777.212 452.373 780.039 450.347 783.879 450.56C786.545 450.56 788.679 451.413 790.279 453.12C791.985 454.72 792.839 456.747 792.839 459.2C792.839 459.947 792.679 460.747 792.359 461.6C792.145 462.453 791.879 463.253 791.559 464L761.639 529.92C759.932 533.76 757.212 535.787 753.479 536C751.452 536.32 749.479 535.947 747.559 534.88C745.745 533.813 744.359 532.16 743.399 529.92L713.639 464C713.425 463.467 713.159 462.773 712.839 461.92C712.625 461.067 712.519 460.053 712.519 458.88C712.519 456.96 713.372 455.093 715.079 453.28C716.785 451.36 719.079 450.4 721.959 450.4ZM890.221 493.28C890.221 502.027 888.248 509.76 884.301 516.48C880.461 523.093 875.235 528.267 868.621 532C862.115 535.733 854.808 537.6 846.701 537.6C838.595 537.6 831.235 535.733 824.621 532C818.115 528.267 812.888 523.093 808.941 516.48C805.101 509.76 803.181 502.027 803.181 493.28C803.181 484.533 805.101 476.853 808.941 470.24C812.888 463.52 818.115 458.293 824.621 454.56C831.235 450.72 838.595 448.8 846.701 448.8C854.808 448.8 862.115 450.72 868.621 454.56C875.235 458.293 880.461 463.52 884.301 470.24C888.248 476.853 890.221 484.533 890.221 493.28ZM871.021 493.28C871.021 487.84 869.901 483.147 867.661 479.2C865.528 475.147 862.595 472 858.861 469.76C855.235 467.52 851.181 466.4 846.701 466.4C842.221 466.4 838.115 467.52 834.381 469.76C830.755 472 827.821 475.147 825.581 479.2C823.448 483.147 822.381 487.84 822.381 493.28C822.381 498.613 823.448 503.307 825.581 507.36C827.821 511.307 830.755 514.4 834.381 516.64C838.115 518.88 842.221 520 846.701 520C851.181 520 855.235 518.88 858.861 516.64C862.595 514.4 865.528 511.307 867.661 507.36C869.901 503.307 871.021 498.613 871.021 493.28Z" fill="#15673E"/>
</g>
<g filter="url(#filter1_d_50_2005)">
<path d="M497.44 658.72C496.373 657.227 495.893 655.307 496 652.96C496.107 650.613 497.493 648.587 500.16 646.88C501.867 645.813 503.68 645.387 505.6 645.6C507.52 645.707 509.387 646.667 511.2 648.48C514.293 651.573 517.547 653.973 520.96 655.68C524.373 657.387 528.64 658.24 533.76 658.24C535.36 658.133 537.12 657.92 539.04 657.6C540.96 657.173 542.613 656.32 544 655.04C545.493 653.653 546.24 651.573 546.24 648.8C546.24 646.453 545.44 644.587 543.84 643.2C542.24 641.813 540.107 640.64 537.44 639.68C534.88 638.72 532 637.813 528.8 636.96C525.493 636 522.08 634.933 518.56 633.76C515.147 632.587 512 631.093 509.12 629.28C506.24 627.36 503.893 624.853 502.08 621.76C500.267 618.667 499.36 614.773 499.36 610.08C499.36 604.747 500.853 600.213 503.84 596.48C506.827 592.747 510.667 589.867 515.36 587.84C520.16 585.813 525.173 584.8 530.4 584.8C533.707 584.8 537.173 585.227 540.8 586.08C544.427 586.827 547.893 588.107 551.2 589.92C554.507 591.627 557.28 593.92 559.52 596.8C560.693 598.4 561.387 600.32 561.6 602.56C561.813 604.8 560.8 606.827 558.56 608.64C556.96 609.92 555.093 610.507 552.96 610.4C550.827 610.187 549.067 609.44 547.68 608.16C545.867 605.813 543.413 603.947 540.32 602.56C537.333 601.173 533.867 600.48 529.92 600.48C528.32 600.48 526.56 600.693 524.64 601.12C522.827 601.44 521.227 602.24 519.84 603.52C518.453 604.693 517.76 606.613 517.76 609.28C517.76 611.733 518.56 613.707 520.16 615.2C521.76 616.587 523.893 617.76 526.56 618.72C529.333 619.573 532.267 620.427 535.36 621.28C538.56 622.133 541.813 623.147 545.12 624.32C548.427 625.493 551.467 627.04 554.24 628.96C557.013 630.88 559.253 633.387 560.96 636.48C562.667 639.467 563.52 643.307 563.52 648C563.52 653.44 561.92 658.08 558.72 661.92C555.52 665.76 551.52 668.693 546.72 670.72C541.92 672.64 537.013 673.6 532 673.6C525.707 673.6 519.413 672.533 513.12 670.4C506.827 668.16 501.6 664.267 497.44 658.72ZM650.918 584.8C653.691 584.8 655.984 585.707 657.798 587.52C659.611 589.333 660.518 591.68 660.518 594.56V662.24C660.518 665.013 659.611 667.36 657.798 669.28C655.984 671.093 653.691 672 650.918 672C648.144 672 645.851 671.093 644.038 669.28C642.224 667.36 641.318 665.013 641.318 662.24V654.4L644.838 655.84C644.838 657.227 644.091 658.933 642.598 660.96C641.104 662.88 639.078 664.8 636.518 666.72C633.958 668.64 630.918 670.293 627.398 671.68C623.984 672.96 620.251 673.6 616.198 673.6C608.838 673.6 602.171 671.733 596.198 668C590.224 664.16 585.478 658.933 581.958 652.32C578.544 645.6 576.838 637.92 576.838 629.28C576.838 620.533 578.544 612.853 581.958 606.24C585.478 599.52 590.171 594.293 596.038 590.56C601.904 586.72 608.411 584.8 615.558 584.8C620.144 584.8 624.358 585.493 628.198 586.88C632.038 588.267 635.344 590.027 638.118 592.16C640.998 594.293 643.184 596.48 644.678 598.72C646.278 600.853 647.078 602.667 647.078 604.16L641.318 606.24V594.56C641.318 591.787 642.224 589.493 644.038 587.68C645.851 585.76 648.144 584.8 650.918 584.8ZM618.598 656C623.291 656 627.398 654.827 630.918 652.48C634.438 650.133 637.158 646.933 639.078 642.88C641.104 638.827 642.118 634.293 642.118 629.28C642.118 624.16 641.104 619.573 639.078 615.52C637.158 611.467 634.438 608.267 630.918 605.92C627.398 603.573 623.291 602.4 618.598 602.4C614.011 602.4 609.958 603.573 606.438 605.92C602.918 608.267 600.144 611.467 598.118 615.52C596.198 619.573 595.238 624.16 595.238 629.28C595.238 634.293 596.198 638.827 598.118 642.88C600.144 646.933 602.918 650.133 606.438 652.48C609.958 654.827 614.011 656 618.598 656ZM725.626 584.8C733.093 584.8 739.76 586.72 745.626 590.56C751.6 594.293 756.293 599.467 759.706 606.08C763.226 612.693 764.986 620.373 764.986 629.12C764.986 637.867 763.226 645.6 759.706 652.32C756.293 658.933 751.653 664.16 745.786 668C740.026 671.733 733.52 673.6 726.266 673.6C722 673.6 718 672.907 714.266 671.52C710.533 670.133 707.226 668.373 704.346 666.24C701.573 664.107 699.386 661.973 697.786 659.84C696.293 657.6 695.546 655.733 695.546 654.24L700.506 652.16V663.84C700.506 666.613 699.6 668.96 697.786 670.88C695.973 672.693 693.68 673.6 690.906 673.6C688.133 673.6 685.84 672.693 684.026 670.88C682.213 669.067 681.306 666.72 681.306 663.84V563.36C681.306 560.587 682.213 558.293 684.026 556.48C685.84 554.56 688.133 553.6 690.906 553.6C693.68 553.6 695.973 554.56 697.786 556.48C699.6 558.293 700.506 560.587 700.506 563.36V604L697.786 602.56C697.786 601.173 698.533 599.52 700.026 597.6C701.52 595.573 703.546 593.6 706.106 591.68C708.666 589.653 711.6 588 714.906 586.72C718.32 585.44 721.893 584.8 725.626 584.8ZM723.226 602.4C718.533 602.4 714.426 603.573 710.906 605.92C707.386 608.267 704.613 611.467 702.586 615.52C700.666 619.467 699.706 624 699.706 629.12C699.706 634.133 700.666 638.72 702.586 642.88C704.613 646.933 707.386 650.133 710.906 652.48C714.426 654.827 718.533 656 723.226 656C727.92 656 731.973 654.827 735.386 652.48C738.906 650.133 741.626 646.933 743.546 642.88C745.573 638.72 746.586 634.133 746.586 629.12C746.586 624 745.573 619.467 743.546 615.52C741.626 611.467 738.906 608.267 735.386 605.92C731.973 603.573 727.92 602.4 723.226 602.4ZM864.815 629.28C864.815 638.027 862.842 645.76 858.895 652.48C855.055 659.093 849.828 664.267 843.215 668C836.708 671.733 829.402 673.6 821.295 673.6C813.188 673.6 805.828 671.733 799.215 668C792.708 664.267 787.482 659.093 783.535 652.48C779.695 645.76 777.775 638.027 777.775 629.28C777.775 620.533 779.695 612.853 783.535 606.24C787.482 599.52 792.708 594.293 799.215 590.56C805.828 586.72 813.188 584.8 821.295 584.8C829.402 584.8 836.708 586.72 843.215 590.56C849.828 594.293 855.055 599.52 858.895 606.24C862.842 612.853 864.815 620.533 864.815 629.28ZM845.615 629.28C845.615 623.84 844.495 619.147 842.255 615.2C840.122 611.147 837.188 608 833.455 605.76C829.828 603.52 825.775 602.4 821.295 602.4C816.815 602.4 812.708 603.52 808.975 605.76C805.348 608 802.415 611.147 800.175 615.2C798.042 619.147 796.975 623.84 796.975 629.28C796.975 634.613 798.042 639.307 800.175 643.36C802.415 647.307 805.348 650.4 808.975 652.64C812.708 654.88 816.815 656 821.295 656C825.775 656 829.828 654.88 833.455 652.64C837.188 650.4 840.122 647.307 842.255 643.36C844.495 639.307 845.615 634.613 845.615 629.28ZM891.219 672C888.445 672 886.152 671.093 884.339 669.28C882.525 667.36 881.619 665.013 881.619 662.24V596.16C881.619 593.387 882.525 591.093 884.339 589.28C886.152 587.36 888.445 586.4 891.219 586.4C893.992 586.4 896.285 587.36 898.099 589.28C899.912 591.093 900.819 593.387 900.819 596.16V611.2L899.699 600.48C900.872 597.92 902.365 595.68 904.179 593.76C906.099 591.733 908.232 590.08 910.579 588.8C912.925 587.413 915.432 586.4 918.099 585.76C920.765 585.12 923.432 584.8 926.099 584.8C929.299 584.8 931.965 585.707 934.099 587.52C936.339 589.333 937.459 591.467 937.459 593.92C937.459 597.44 936.552 600 934.739 601.6C932.925 603.093 930.952 603.84 928.819 603.84C926.792 603.84 924.925 603.467 923.219 602.72C921.619 601.973 919.752 601.6 917.619 601.6C915.699 601.6 913.725 602.08 911.699 603.04C909.779 603.893 907.965 605.28 906.259 607.2C904.659 609.12 903.325 611.52 902.259 614.4C901.299 617.173 900.819 620.48 900.819 624.32V662.24C900.819 665.013 899.912 667.36 898.099 669.28C896.285 671.093 893.992 672 891.219 672Z" fill="#15673E"/>
</g>
<path d="M1003.04 675.8C998.774 675.8 995.04 674.893 991.84 673.08C988.64 671.267 986.134 668.787 984.32 665.64C982.56 662.44 981.68 658.76 981.68 654.6C981.68 649.96 982.587 646.013 984.4 642.76C986.267 639.453 988.667 636.947 991.6 635.24C994.587 633.48 997.734 632.6 1001.04 632.6C1003.49 632.6 1005.87 633.053 1008.16 633.96C1010.45 634.867 1012.48 636.2 1014.24 637.96C1016 639.667 1017.41 641.747 1018.48 644.2C1019.55 646.6 1020.11 649.293 1020.16 652.28C1020.16 653.133 1019.84 653.853 1019.2 654.44C1018.56 655.027 1017.81 655.32 1016.96 655.32H985.36L983.92 649.8H1014.72L1013.44 650.92V649.16C1013.23 646.973 1012.48 645.107 1011.2 643.56C1009.97 641.96 1008.45 640.733 1006.64 639.88C1004.88 639.027 1003.01 638.6 1001.04 638.6C999.44 638.6 997.84 638.893 996.24 639.48C994.694 640.013 993.28 640.92 992 642.2C990.774 643.427 989.76 645.027 988.96 647C988.214 648.973 987.84 651.347 987.84 654.12C987.84 657.213 988.454 659.933 989.68 662.28C990.96 664.627 992.72 666.493 994.96 667.88C997.2 669.213 999.814 669.88 1002.8 669.88C1004.67 669.88 1006.29 669.64 1007.68 669.16C1009.07 668.68 1010.27 668.093 1011.28 667.4C1012.29 666.653 1013.15 665.907 1013.84 665.16C1014.53 664.68 1015.2 664.44 1015.84 664.44C1016.64 664.44 1017.28 664.707 1017.76 665.24C1018.29 665.773 1018.56 666.413 1018.56 667.16C1018.56 668.067 1018.13 668.867 1017.28 669.56C1015.79 671.213 1013.76 672.68 1011.2 673.96C1008.64 675.187 1005.92 675.8 1003.04 675.8ZM1049.54 633C1053.17 633 1056.1 633.933 1058.34 635.8C1060.63 637.613 1062.15 640.2 1062.9 643.56H1061.7L1062.26 642.12C1062.9 640.627 1063.99 639.187 1065.54 637.8C1067.09 636.413 1068.87 635.267 1070.9 634.36C1072.93 633.453 1075.03 633 1077.22 633C1080.74 633 1083.51 633.773 1085.54 635.32C1087.57 636.813 1089.01 638.84 1089.86 641.4C1090.77 643.907 1091.22 646.733 1091.22 649.88V671.72C1091.22 672.627 1090.9 673.4 1090.26 674.04C1089.67 674.68 1088.93 675 1088.02 675C1087.06 675 1086.29 674.68 1085.7 674.04C1085.11 673.4 1084.82 672.627 1084.82 671.72V650.04C1084.82 647.96 1084.5 646.093 1083.86 644.44C1083.27 642.733 1082.29 641.4 1080.9 640.44C1079.57 639.427 1077.73 638.92 1075.38 638.92C1073.19 638.92 1071.19 639.427 1069.38 640.44C1067.57 641.4 1066.13 642.733 1065.06 644.44C1063.99 646.093 1063.46 647.96 1063.46 650.04V671.72C1063.46 672.627 1063.17 673.4 1062.58 674.04C1061.99 674.68 1061.22 675 1060.26 675C1059.35 675 1058.58 674.68 1057.94 674.04C1057.35 673.4 1057.06 672.627 1057.06 671.72V649.8C1057.06 647.773 1056.77 645.96 1056.18 644.36C1055.65 642.707 1054.71 641.4 1053.38 640.44C1052.05 639.427 1050.21 638.92 1047.86 638.92C1045.73 638.92 1043.78 639.427 1042.02 640.44C1040.26 641.4 1038.85 642.707 1037.78 644.36C1036.71 645.96 1036.18 647.773 1036.18 649.8V671.72C1036.18 672.627 1035.86 673.4 1035.22 674.04C1034.63 674.68 1033.89 675 1032.98 675C1032.07 675 1031.3 674.68 1030.66 674.04C1030.07 673.4 1029.78 672.627 1029.78 671.72V636.84C1029.78 635.933 1030.07 635.187 1030.66 634.6C1031.3 633.96 1032.07 633.64 1032.98 633.64C1033.94 633.64 1034.71 633.96 1035.3 634.6C1035.89 635.187 1036.18 635.933 1036.18 636.84V642.92L1034.42 644.84C1034.63 643.453 1035.17 642.067 1036.02 640.68C1036.93 639.293 1038.07 638.013 1039.46 636.84C1040.85 635.667 1042.39 634.733 1044.1 634.04C1045.81 633.347 1047.62 633 1049.54 633ZM1145.49 632.6C1149.12 632.6 1152.37 633.533 1155.25 635.4C1158.13 637.213 1160.4 639.72 1162.05 642.92C1163.76 646.12 1164.61 649.827 1164.61 654.04C1164.61 658.253 1163.76 661.987 1162.05 665.24C1160.4 668.493 1158.13 671.08 1155.25 673C1152.43 674.867 1149.23 675.8 1145.65 675.8C1143.68 675.8 1141.81 675.507 1140.05 674.92C1138.35 674.28 1136.77 673.453 1135.33 672.44C1133.95 671.373 1132.77 670.227 1131.81 669C1130.85 667.72 1130.16 666.467 1129.73 665.24L1131.49 664.12V672.12C1131.49 673.027 1131.2 673.8 1130.61 674.44C1130.03 675.08 1129.25 675.4 1128.29 675.4C1127.39 675.4 1126.61 675.107 1125.97 674.52C1125.39 673.88 1125.09 673.08 1125.09 672.12V619.08C1125.09 618.173 1125.39 617.4 1125.97 616.76C1126.61 616.12 1127.39 615.8 1128.29 615.8C1129.25 615.8 1130.03 616.12 1130.61 616.76C1131.2 617.4 1131.49 618.173 1131.49 619.08V643.72L1130.29 643.08C1130.67 641.747 1131.31 640.467 1132.21 639.24C1133.17 637.96 1134.32 636.84 1135.65 635.88C1137.04 634.867 1138.56 634.067 1140.21 633.48C1141.92 632.893 1143.68 632.6 1145.49 632.6ZM1144.77 638.52C1142.11 638.52 1139.73 639.187 1137.65 640.52C1135.63 641.853 1134.03 643.693 1132.85 646.04C1131.73 648.387 1131.17 651.053 1131.17 654.04C1131.17 657.027 1131.73 659.72 1132.85 662.12C1134.03 664.52 1135.63 666.413 1137.65 667.8C1139.73 669.187 1142.11 669.88 1144.77 669.88C1147.44 669.88 1149.79 669.187 1151.81 667.8C1153.84 666.413 1155.44 664.52 1156.61 662.12C1157.79 659.72 1158.37 657.027 1158.37 654.04C1158.37 651.053 1157.79 648.387 1156.61 646.04C1155.44 643.693 1153.84 641.853 1151.81 640.52C1149.79 639.187 1147.44 638.52 1144.77 638.52ZM1177.43 675C1176.53 675 1175.75 674.68 1175.11 674.04C1174.53 673.4 1174.23 672.627 1174.23 671.72V636.84C1174.23 635.933 1174.53 635.187 1175.11 634.6C1175.75 633.96 1176.53 633.64 1177.43 633.64C1178.39 633.64 1179.17 633.96 1179.75 634.6C1180.34 635.187 1180.63 635.933 1180.63 636.84V647.4L1179.67 645.72C1179.99 644.067 1180.55 642.467 1181.35 640.92C1182.21 639.32 1183.27 637.907 1184.55 636.68C1185.83 635.4 1187.3 634.413 1188.95 633.72C1190.61 632.973 1192.42 632.6 1194.39 632.6C1195.57 632.6 1196.63 632.893 1197.59 633.48C1198.61 634.013 1199.11 634.787 1199.11 635.8C1199.11 636.92 1198.82 637.747 1198.23 638.28C1197.65 638.813 1196.98 639.08 1196.23 639.08C1195.54 639.08 1194.87 638.947 1194.23 638.68C1193.59 638.36 1192.79 638.2 1191.83 638.2C1190.5 638.2 1189.17 638.573 1187.83 639.32C1186.55 640.013 1185.35 641.027 1184.23 642.36C1183.17 643.693 1182.29 645.213 1181.59 646.92C1180.95 648.573 1180.63 650.36 1180.63 652.28V671.72C1180.63 672.627 1180.31 673.4 1179.67 674.04C1179.09 674.68 1178.34 675 1177.43 675ZM1223.67 675.8C1219.4 675.8 1215.67 674.893 1212.47 673.08C1209.27 671.267 1206.76 668.787 1204.95 665.64C1203.19 662.44 1202.31 658.76 1202.31 654.6C1202.31 649.96 1203.21 646.013 1205.03 642.76C1206.89 639.453 1209.29 636.947 1212.23 635.24C1215.21 633.48 1218.36 632.6 1221.67 632.6C1224.12 632.6 1226.49 633.053 1228.79 633.96C1231.08 634.867 1233.11 636.2 1234.87 637.96C1236.63 639.667 1238.04 641.747 1239.11 644.2C1240.17 646.6 1240.73 649.293 1240.79 652.28C1240.79 653.133 1240.47 653.853 1239.83 654.44C1239.19 655.027 1238.44 655.32 1237.59 655.32H1205.99L1204.55 649.8H1235.35L1234.07 650.92V649.16C1233.85 646.973 1233.11 645.107 1231.83 643.56C1230.6 641.96 1229.08 640.733 1227.27 639.88C1225.51 639.027 1223.64 638.6 1221.67 638.6C1220.07 638.6 1218.47 638.893 1216.87 639.48C1215.32 640.013 1213.91 640.92 1212.63 642.2C1211.4 643.427 1210.39 645.027 1209.59 647C1208.84 648.973 1208.47 651.347 1208.47 654.12C1208.47 657.213 1209.08 659.933 1210.31 662.28C1211.59 664.627 1213.35 666.493 1215.59 667.88C1217.83 669.213 1220.44 669.88 1223.43 669.88C1225.29 669.88 1226.92 669.64 1228.31 669.16C1229.69 668.68 1230.89 668.093 1231.91 667.4C1232.92 666.653 1233.77 665.907 1234.47 665.16C1235.16 664.68 1235.83 664.44 1236.47 664.44C1237.27 664.44 1237.91 664.707 1238.39 665.24C1238.92 665.773 1239.19 666.413 1239.19 667.16C1239.19 668.067 1238.76 668.867 1237.91 669.56C1236.41 671.213 1234.39 672.68 1231.83 673.96C1229.27 675.187 1226.55 675.8 1223.67 675.8ZM1250.01 632.92C1250.65 632.92 1251.27 633.107 1251.85 633.48C1252.44 633.8 1252.87 634.28 1253.13 634.92L1266.41 666.12L1265.13 666.76L1278.65 635C1279.24 633.56 1280.23 632.867 1281.61 632.92C1282.41 632.92 1283.11 633.187 1283.69 633.72C1284.28 634.253 1284.57 634.92 1284.57 635.72C1284.57 636.04 1284.52 636.36 1284.41 636.68C1284.36 636.947 1284.28 637.187 1284.17 637.4L1268.73 672.92C1268.15 674.253 1267.21 674.947 1265.93 675C1265.24 675.053 1264.57 674.92 1263.93 674.6C1263.35 674.227 1262.92 673.667 1262.65 672.92L1247.21 637.48C1247.11 637.267 1247 637.027 1246.89 636.76C1246.84 636.493 1246.81 636.173 1246.81 635.8C1246.81 635.107 1247.08 634.467 1247.61 633.88C1248.2 633.24 1249 632.92 1250.01 632.92ZM1311.95 675.8C1307.68 675.8 1303.95 674.893 1300.75 673.08C1297.55 671.267 1295.04 668.787 1293.23 665.64C1291.47 662.44 1290.59 658.76 1290.59 654.6C1290.59 649.96 1291.49 646.013 1293.31 642.76C1295.17 639.453 1297.57 636.947 1300.51 635.24C1303.49 633.48 1306.64 632.6 1309.95 632.6C1312.4 632.6 1314.77 633.053 1317.07 633.96C1319.36 634.867 1321.39 636.2 1323.15 637.96C1324.91 639.667 1326.32 641.747 1327.39 644.2C1328.45 646.6 1329.01 649.293 1329.07 652.28C1329.07 653.133 1328.75 653.853 1328.11 654.44C1327.47 655.027 1326.72 655.32 1325.87 655.32H1294.27L1292.83 649.8H1323.63L1322.35 650.92V649.16C1322.13 646.973 1321.39 645.107 1320.11 643.56C1318.88 641.96 1317.36 640.733 1315.55 639.88C1313.79 639.027 1311.92 638.6 1309.95 638.6C1308.35 638.6 1306.75 638.893 1305.15 639.48C1303.6 640.013 1302.19 640.92 1300.91 642.2C1299.68 643.427 1298.67 645.027 1297.87 647C1297.12 648.973 1296.75 651.347 1296.75 654.12C1296.75 657.213 1297.36 659.933 1298.59 662.28C1299.87 664.627 1301.63 666.493 1303.87 667.88C1306.11 669.213 1308.72 669.88 1311.71 669.88C1313.57 669.88 1315.2 669.64 1316.59 669.16C1317.97 668.68 1319.17 668.093 1320.19 667.4C1321.2 666.653 1322.05 665.907 1322.75 665.16C1323.44 664.68 1324.11 664.44 1324.75 664.44C1325.55 664.44 1326.19 664.707 1326.67 665.24C1327.2 665.773 1327.47 666.413 1327.47 667.16C1327.47 668.067 1327.04 668.867 1326.19 669.56C1324.69 671.213 1322.67 672.68 1320.11 673.96C1317.55 675.187 1314.83 675.8 1311.95 675.8ZM1340.61 674.92C1339.49 674.92 1338.61 674.6 1337.97 673.96C1337.38 673.32 1337.09 672.44 1337.09 671.32V669.72C1337.09 668.547 1337.38 667.64 1337.97 667C1338.61 666.36 1339.49 666.04 1340.61 666.04H1341.25C1342.42 666.04 1343.3 666.36 1343.89 667C1344.47 667.64 1344.77 668.547 1344.77 669.72V671.32C1344.77 672.44 1344.47 673.32 1343.89 673.96C1343.3 674.6 1342.42 674.92 1341.25 674.92H1340.61ZM1356.93 674.92C1355.81 674.92 1354.93 674.6 1354.29 673.96C1353.71 673.32 1353.41 672.44 1353.41 671.32V669.72C1353.41 668.547 1353.71 667.64 1354.29 667C1354.93 666.36 1355.81 666.04 1356.93 666.04H1357.57C1358.75 666.04 1359.63 666.36 1360.21 667C1360.8 667.64 1361.09 668.547 1361.09 669.72V671.32C1361.09 672.44 1360.8 673.32 1360.21 673.96C1359.63 674.6 1358.75 674.92 1357.57 674.92H1356.93ZM1373.26 674.92C1372.14 674.92 1371.26 674.6 1370.62 673.96C1370.04 673.32 1369.74 672.44 1369.74 671.32V669.72C1369.74 668.547 1370.04 667.64 1370.62 667C1371.26 666.36 1372.14 666.04 1373.26 666.04H1373.9C1375.08 666.04 1375.96 666.36 1376.54 667C1377.13 667.64 1377.42 668.547 1377.42 669.72V671.32C1377.42 672.44 1377.13 673.32 1376.54 673.96C1375.96 674.6 1375.08 674.92 1373.9 674.92H1373.26Z" fill="black"/>
<path d="M1725 540C1725 506.885 1721.12 503 1688 503C1721.12 503 1725 499.115 1725 466C1725 499.115 1728.88 503 1762 503C1728.89 503 1725 506.883 1725 540Z" fill="#191917"/>
<path d="M1422 470C1422 436.885 1418.12 433 1385 433C1418.12 433 1422 429.115 1422 396C1422 429.115 1425.88 433 1459 433C1425.89 433 1422 436.883 1422 470Z" fill="#191917"/>
<path d="M1458.5 410C1458.5 388.073 1455.93 385.5 1434 385.5C1455.93 385.5 1458.5 382.927 1458.5 361C1458.5 382.927 1461.07 385.5 1483 385.5C1461.07 385.5 1458.5 388.071 1458.5 410Z" fill="#191917"/>
<path d="M1758.5 490C1758.5 468.073 1755.93 465.5 1734 465.5C1755.93 465.5 1758.5 462.927 1758.5 441C1758.5 462.927 1761.07 465.5 1783 465.5C1761.07 465.5 1758.5 468.071 1758.5 490Z" fill="#191917"/>
<path d="M1405.5 390C1405.5 371.653 1403.35 369.5 1385 369.5C1403.35 369.5 1405.5 367.347 1405.5 349C1405.5 367.347 1407.65 369.5 1426 369.5C1407.65 369.5 1405.5 371.651 1405.5 390Z" fill="#191917"/>
<path d="M1668.76 640.732L1594.24 713.828L1640.08 723.159L1668.76 694.219L1675.33 656.851L1668.76 640.732Z" fill="#15673E"/>
<path d="M1684.63 713.828C1684.63 713.828 1747.03 659.094 1766.18 656.359C1785.34 653.623 1755.78 640.488 1730.61 650.337C1705.43 660.191 1668.76 697.954 1668.76 697.954L1684.63 713.828Z" fill="#15673E"/>
<path d="M1687.37 664.569C1687.37 664.569 1739.36 603.817 1757.43 597.249C1775.49 590.682 1737.29 583.568 1720.54 599.439C1703.79 615.31 1675.33 636.656 1675.33 636.656L1685.73 661.284" fill="#15673E"/>
<path d="M1356 976L1417.31 843.774C1417.31 843.774 1397.12 771.821 1439.52 728.04C1481.93 684.255 1522.31 666.085 1546.54 639.834C1570.77 613.583 1574.07 621.334 1566.95 644.32C1559.84 667.308 1530.83 713.282 1530.83 713.282C1530.83 713.282 1596.51 709.45 1613.48 710C1630.45 710.546 1590.49 755.427 1590.49 755.427C1590.49 755.427 1526.45 796.476 1504.56 879.67C1482.67 962.865 1488.69 976 1488.69 976H1356Z" fill="url(#paint0_linear_50_2005)"/>
<path d="M1589.6 710.415C1513.24 745.41 1460.46 796.999 1468.57 827.169C1468.57 827.169 1614.1 746.942 1627.85 727.839C1641.61 708.736 1630.91 710.415 1630.91 710.415H1589.6Z" fill="#15673E"/>
<path d="M1457.49 821.108C1483.76 758.166 1606.49 735.516 1606.49 735.516C1606.49 735.516 1623.88 690.843 1626.07 681.54C1628.26 672.237 1615.12 610.388 1639.75 606.01L1653.43 680.994L1650.15 711.096L1665.47 674.972C1665.47 674.972 1657.26 579.736 1695.57 577V705.622C1695.57 705.622 1674.23 757.617 1650.69 782.248C1627.16 806.879 1530.83 817.826 1508.38 857.778C1485.95 897.734 1457.49 821.108 1457.49 821.108Z" fill="url(#paint1_linear_50_2005)"/>
<defs>
<filter id="filter0_d_50_2005" x="503" y="424" width="399.221" height="119.6" filterUnits="userSpaceOnUse" color-interpolation-filters="sRGB">
<feFlood flood-opacity="0" result="BackgroundImageFix"/>
<feColorMatrix in="SourceAlpha" type="matrix" values="0 0 0 0 0 0 0 0 0 0 0 0 0 0 0 0 0 0 127 0" result="hardAlpha"/>
<feOffset dx="12" dy="6"/>
<feComposite in2="hardAlpha" operator="out"/>
<feColorMatrix type="matrix" values="0 0 0 0 0.06375 0 0 0 0 0.283333 0 0 0 0 0.173542 0 0 0 1 0"/>
<feBlend mode="normal" in2="BackgroundImageFix" result="effect1_dropShadow_50_2005"/>
<feBlend mode="normal" in="SourceGraphic" in2="effect1_dropShadow_50_2005" result="shape"/>
</filter>
<filter id="filter1_d_50_2005" x="495.84" y="553.6" width="453.619" height="126" filterUnits="userSpaceOnUse" color-interpolation-filters="sRGB">
<feFlood flood-opacity="0" result="BackgroundImageFix"/>
<feColorMatrix in="SourceAlpha" type="matrix" values="0 0 0 0 0 0 0 0 0 0 0 0 0 0 0 0 0 0 127 0" result="hardAlpha"/>
<feOffset dx="12" dy="6"/>
<feComposite in2="hardAlpha" operator="out"/>
<feColorMatrix type="matrix" values="0 0 0 0 0.06375 0 0 0 0 0.283333 0 0 0 0 0.173542 0 0 0 1 0"/>
<feBlend mode="normal" in2="BackgroundImageFix" result="effect1_dropShadow_50_2005"/>
<feBlend mode="normal" in="SourceGraphic" in2="effect1_dropShadow_50_2005" result="shape"/>
</filter>
<linearGradient id="paint0_linear_50_2005" x1="1487" y1="746" x2="1486.84" y2="976" gradientUnits="userSpaceOnUse">
<stop stop-color="#3AA970"/>
<stop offset="1" stop-color="#2D7751"/>
</linearGradient>
<linearGradient id="paint1_linear_50_2005" x1="1516.5" y1="723" x2="1512.5" y2="932.5" gradientUnits="userSpaceOnUse">
<stop stop-color="#3AA970"/>
<stop offset="1" stop-color="#38875E"/>
</linearGradient>
</defs>
</svg>
