<svg width="1916" height="590" viewBox="0 0 1916 590" fill="none" xmlns="http://www.w3.org/2000/svg">
<path d="M0 0H1916V590H0V0Z" fill="#101010"/>
<mask id="mask0_74_1288" style="mask-type:alpha" maskUnits="userSpaceOnUse" x="0" y="0" width="1916" height="590">
<path d="M0 0H1916V590H0V0Z" fill="#101010"/>
</mask>
<g mask="url(#mask0_74_1288)">
<path fill-rule="evenodd" clip-rule="evenodd" d="M2171.5 420.83C2171.5 501.133 2095.59 566.231 2001.95 566.231C1908.31 566.231 1832.41 501.129 1832.41 420.83" fill="#BFEEEA"/>
<path fill-rule="evenodd" clip-rule="evenodd" d="M2137.71 409.771C2150.16 436.337 2143.92 464.874 2113.84 475.701C2081.69 486.524 2068.2 481.603 2058.87 516.043C2050.56 545.566 2028.78 560.324 2002.84 536.711C1991.44 524.903 1988.32 513.094 1970.68 510.141C1958.24 508.174 1944.74 513.094 1932.3 510.141C1914.66 505.22 1914.67 495.383 1906.37 485.538C1898.06 474.716 1881.47 478.65 1870.05 465.86C1855.53 450.117 1855.53 409.771 1884.58 407.803" fill="#FCE092"/>
<path d="M2075.49 505.802C2054.43 494.036 2031.36 491.484 2007.27 492.611C1994.61 493.204 1981.98 495.442 1969.6 497.9C1959.77 499.856 1950.38 500.579 1940.35 499.271C1928.41 498.576 1923.29 492.01 1924.99 479.573C1930.72 474.892 1937.35 472.583 1944.89 472.642C1979.45 468.582 2013.96 479.338 2047.38 485.903C2070.01 490.349 2099.01 495.411 2120.03 483.83C2134.27 475.984 2127.63 460.032 2118.51 451.739C2104.43 438.952 2080.09 436.953 2061.82 434.955C2030.09 431.487 1996.98 431.876 1965.22 434.743C1949.6 436.152 1934.29 439.302 1919.28 443.555C1906.5 447.175 1886.38 457.256 1875.52 443.885C1871.02 438.344 1860.92 443.818 1865.49 449.445C1877.14 463.783 1892.7 462.691 1909.83 458.069C1943.61 448.939 1975.39 443.885 2010.71 443.889C2039.22 443.892 2068.76 444.305 2096.17 452.575C2098.74 453.612 2101.31 454.649 2103.88 455.689C2112.95 459.11 2113.35 466.571 2105.08 478.073C2096.09 480.755 2084.63 479.44 2075.36 478.827C2056.19 477.559 2037.39 472.505 2018.74 468.456C1990.47 462.326 1960.1 457.904 1931.39 463.637C1919.27 466.056 1905.23 480.06 1911.29 492.426C1920.92 512.073 1947.08 512.218 1966.55 509.67C2002.11 505.016 2036.45 496.777 2069.63 515.309C2076.1 518.922 2081.94 509.399 2075.49 505.802Z" fill="#FFCC00"/>
<path opacity="0.4" fill-rule="evenodd" clip-rule="evenodd" d="M1953.17 420.829C1953.17 501.132 2095.59 566.23 2001.95 566.23C1908.31 566.23 1832.4 501.128 1832.4 420.829" fill="white"/>
<path fill-rule="evenodd" clip-rule="evenodd" d="M1889.97 -81.9997L2113.93 -81.9996L2169.21 356.501L1834.69 356.501L1889.97 -81.9997Z" fill="#95E3DC"/>
<path fill-rule="evenodd" clip-rule="evenodd" d="M1904.52 -50.0063L2099.38 -50.0063L2147.47 350.948L1856.43 350.948L1904.52 -50.0063Z" fill="#FBD877"/>
<path d="M1823.11 425.236L2180.78 425.236L2180.78 389.987L1823.11 389.987L1823.11 425.236Z" fill="#D9D9D9"/>
<path d="M1823.11 425.236L1924.68 425.236L1924.68 389.987L1823.11 389.987L1823.11 425.236Z" fill="#C5C5C5"/>
<path d="M1813.82 394.393L2190.08 394.393L2190.08 345.926L1813.82 345.926L1813.82 394.393Z" fill="#C5C5C5"/>
<path d="M1813.82 394.393L1906.88 394.393L1906.88 345.926L1813.82 345.926L1813.82 394.393Z" fill="#B1B1B1"/>
<path d="M1910.35 222.76C1895.37 222.76 1895.37 244.79 1910.35 244.79C1925.32 244.79 1925.32 222.76 1910.35 222.76Z" fill="#FFCC00"/>
<path d="M1905.65 286.125C1898.16 286.125 1898.16 297.141 1905.65 297.141C1913.14 297.137 1913.14 286.125 1905.65 286.125Z" fill="#FFCC00"/>
<path d="M1908 134.803C1900.51 134.803 1900.51 145.818 1908 145.818C1915.49 145.818 1915.49 134.803 1908 134.803Z" fill="#FFCC00"/>
<path fill-rule="evenodd" clip-rule="evenodd" d="M1437.03 172.168C1437.03 91.8648 1512.93 26.7666 1606.58 26.7666C1700.22 26.7666 1776.12 91.8648 1776.12 172.168" fill="#BFEEEA"/>
<path d="M1617.34 -81.9998H1595.82V358.608H1617.34V-81.9998Z" fill="#088F4A"/>
<path fill-rule="evenodd" clip-rule="evenodd" d="M1480.42 193.39C1471.08 180.596 1470.05 160.914 1478.34 148.123C1488.72 132.376 1507.26 124.506 1523.86 120.567C1568.47 111.712 1555.38 84.2621 1562.38 52.1548C1571.33 87.5804 1637.76 87.4155 1680.64 101.871C1703.99 109.741 1728.36 125.492 1736.66 146.148C1741.85 159.928 1744.96 189.451 1723.18 193.386" fill="#FFCECE"/>
<path d="M1724.94 140.565C1732.57 151.384 1740.31 182.065 1721.11 186.267C1716.88 187.19 1715.27 190.367 1715.56 193.513H1738.75C1749.03 183.475 1749.31 165.819 1746.42 151.957C1741.14 126.537 1716.87 108.952 1693.34 98.8127C1670.26 88.8773 1644.64 82.8374 1620.42 76.1772C1601.89 71.0838 1585.91 66.7878 1569.87 52.3952C1564.5 47.5729 1555.09 47.129 1554.87 54.6022C1554.48 68.1936 1552.8 73.9939 1550.35 87.9623C1547.41 104.695 1535.88 109.981 1519.71 113.967C1500.45 118.699 1482.71 128.434 1471.63 144.397C1461.97 158.299 1463.23 178.15 1471.1 192.77H1488.37C1488.25 191.765 1487.86 190.721 1487.14 189.664C1475.87 173.194 1479.62 154.144 1494.77 141.472C1508.91 129.628 1528.01 129.463 1544.07 121.562C1564.98 111.277 1566.27 90.0593 1567.63 69.8273C1575.02 76.5896 1584.49 81.5375 1594.13 85.331C1615.34 93.672 1638.02 97.8779 1660.1 103.584C1684.59 109.922 1710.26 119.747 1724.94 140.565Z" fill="#FFCECE"/>
<path d="M1533.98 88.4562C1547.22 105.994 1574.55 99.2556 1593.29 95.2147C1611.12 91.3622 1628.06 88.0281 1646.59 88.2127C1652.61 88.3109 1658.51 89.0767 1664.3 90.5022C1674.2 92.3479 1674.76 98.0264 1665.97 107.538C1651.61 111.174 1636.2 112.694 1621.46 113.872C1595.08 115.985 1569.7 108.924 1543.73 105.932C1526.47 103.944 1500.69 101.993 1490.53 118.734C1469.18 153.869 1552.93 152.219 1567.55 151.819C1588.46 151.245 1609.26 149.109 1630.08 147.267C1645.76 145.877 1660.87 144.577 1676.25 141.125C1698.61 136.111 1715.54 124.267 1739.51 127.173C1746.93 128.072 1746.84 117.045 1739.51 116.157C1724.15 114.292 1711.9 116.829 1697.64 122.248C1676.64 130.236 1656.13 134.665 1633.45 135.981C1615.7 137.01 1598.03 139.24 1580.26 140.254C1557.84 141.53 1533.79 142.688 1511.94 136.916C1499.15 133.542 1495.46 122.233 1510.23 117.54C1522.62 113.605 1538.35 116.181 1550.93 117.819C1574.98 120.952 1596.97 125.987 1621.46 124.883C1634.75 124.282 1690.93 123.741 1688.96 101.953C1686.9 79.2945 1657.69 77.3034 1639.18 77.1188C1624.1 76.9696 1609.14 80.1546 1594.6 83.5829C1582.08 86.54 1553.51 95.5012 1544 82.8955C1539.69 77.1738 1529.61 82.6639 1533.98 88.4562Z" fill="#FF8FAE"/>
<path opacity="0.4" fill-rule="evenodd" clip-rule="evenodd" d="M1655.35 172.169C1655.35 91.8651 1512.93 26.7668 1606.58 26.7668C1700.22 26.7668 1776.12 91.8651 1776.12 172.169" fill="white"/>
<path fill-rule="evenodd" clip-rule="evenodd" d="M1718.57 675H1494.59L1439.31 236.493L1773.85 236.493L1718.57 675Z" fill="#95E3DC"/>
<path fill-rule="evenodd" clip-rule="evenodd" d="M1704.01 643.014H1509.15L1461.05 242.05L1752.1 242.05L1704.01 643.014Z" fill="#FFADAD"/>
<path opacity="0.4" fill-rule="evenodd" clip-rule="evenodd" d="M1544.84 675H1494.59L1439.31 236.493H1489.57L1544.84 675Z" fill="white"/>
<path d="M1785.41 167.767L1427.74 167.767V203.012L1785.41 203.012V167.767Z" fill="#D9D9D9"/>
<path d="M1785.41 167.767H1683.85V203.012H1785.41V167.767Z" fill="#C5C5C5"/>
<path d="M1794.71 198.606L1418.46 198.606V247.073L1794.71 247.073V198.606Z" fill="#C5C5C5"/>
<path d="M1794.71 198.606H1701.65V247.073H1794.71V198.606Z" fill="#B1B1B1"/>
<path d="M1659.9 462.465C1689.35 434.553 1689.35 389.299 1659.9 361.387C1630.45 333.475 1582.71 333.475 1553.26 361.387C1523.82 389.299 1523.82 434.553 1553.26 462.465C1582.71 490.377 1630.45 490.377 1659.9 462.465Z" fill="white"/>
<path d="M1606.58 344.51C1645.82 344.51 1677.65 374.689 1677.65 411.925C1677.65 449.154 1645.82 479.341 1606.58 479.341C1567.32 479.341 1535.5 449.154 1535.5 411.925C1535.5 374.685 1567.33 344.51 1606.58 344.51ZM1606.58 336.338C1562.64 336.338 1526.89 370.248 1526.89 411.925C1526.89 453.603 1562.64 487.513 1606.58 487.513C1650.51 487.513 1686.26 453.603 1686.26 411.925C1686.26 370.248 1650.51 336.338 1606.58 336.338Z" fill="#3AA970"/>
<path fill-rule="evenodd" clip-rule="evenodd" d="M1660.93 411.926C1660.93 440.389 1636.58 463.476 1606.58 463.476C1576.57 463.476 1552.23 440.389 1552.23 411.926C1552.23 383.459 1576.57 360.368 1606.58 360.368C1636.58 360.368 1660.93 383.459 1660.93 411.926Z" fill="#088F4A"/>
<path fill-rule="evenodd" clip-rule="evenodd" d="M1606.58 430.221C1595.94 430.221 1587.29 422.014 1587.29 411.925C1587.29 401.833 1595.94 393.622 1606.58 393.622C1617.22 393.622 1625.88 401.833 1625.88 411.925C1625.88 422.014 1617.22 430.221 1606.58 430.221Z" fill="white"/>
<path d="M1606.58 395.142C1616.33 395.142 1624.27 402.67 1624.27 411.922C1624.27 421.17 1616.33 428.694 1606.58 428.694C1596.82 428.694 1588.89 421.17 1588.89 411.922C1588.89 402.67 1596.83 395.142 1606.58 395.142ZM1606.58 392.094C1595.04 392.094 1585.68 400.973 1585.68 411.926C1585.68 422.87 1595.04 431.75 1606.58 431.75C1618.12 431.75 1627.49 422.87 1627.49 411.926C1627.49 400.973 1618.12 392.094 1606.58 392.094Z" fill="white"/>
<path d="M1523.19 283.351C1538.16 283.351 1538.16 261.32 1523.19 261.32C1508.21 261.316 1508.21 283.351 1523.19 283.351Z" fill="#FF8FAE"/>
<path d="M1701.48 354.563C1716.46 354.563 1716.46 332.533 1701.48 332.533C1686.51 332.533 1686.51 354.563 1701.48 354.563Z" fill="#FF8FAE"/>
<path d="M1560.72 539.267C1575.7 539.267 1575.7 517.24 1560.72 517.24C1545.74 517.237 1545.74 539.267 1560.72 539.267Z" fill="#FF8FAE"/>
<path d="M1670.98 509.806C1682.22 509.806 1682.22 493.281 1670.98 493.281C1659.75 493.281 1659.75 509.806 1670.98 509.806Z" fill="#FF8FAE"/>
<path d="M1640.49 289.497C1651.72 289.497 1651.72 272.976 1640.49 272.976C1629.25 272.976 1629.25 289.497 1640.49 289.497Z" fill="#FF8FAE"/>
<path d="M1654.31 553.958C1661.8 553.958 1661.8 542.943 1654.31 542.943C1646.82 542.943 1646.82 553.958 1654.31 553.958Z" fill="#FF8FAE"/>
<path d="M1530.23 342.373C1537.72 342.373 1537.72 331.358 1530.23 331.358C1522.73 331.358 1522.73 342.373 1530.23 342.373Z" fill="#FF8FAE"/>
<path d="M1584.19 311.222C1591.68 311.222 1591.68 300.207 1584.19 300.207C1576.69 300.21 1576.69 311.222 1584.19 311.222Z" fill="#FF8FAE"/>
<path d="M1708.52 295.646C1716.01 295.646 1716.01 284.626 1708.52 284.626C1701.03 284.63 1701.03 295.646 1708.52 295.646Z" fill="#FF8FAE"/>
<path d="M1703.83 435.841C1711.32 435.841 1711.32 424.826 1703.83 424.826C1696.34 424.826 1696.34 435.841 1703.83 435.841Z" fill="#FF8FAE"/>
<path d="M1612.34 593.833C1619.82 593.833 1619.82 582.818 1612.34 582.818C1604.85 582.818 1604.85 593.833 1612.34 593.833Z" fill="#FF8FAE"/>
<path d="M1541.96 500.373C1549.44 500.373 1549.44 489.358 1541.96 489.358C1534.46 489.362 1534.46 500.373 1541.96 500.373Z" fill="#FF8FAE"/>
<path fill-rule="evenodd" clip-rule="evenodd" d="M1380.77 420.832C1380.77 501.127 1304.86 566.233 1211.23 566.233C1117.58 566.233 1041.68 501.127 1041.68 420.832" fill="#BFEEEA"/>
<path d="M1200.46 675L1221.99 675L1221.99 234.392L1200.46 234.392L1200.46 675Z" fill="#088F4A"/>
<path fill-rule="evenodd" clip-rule="evenodd" d="M1325.86 407.947C1345.57 420.745 1345.57 457.153 1336.24 475.845C1323.79 497.503 1299.93 502.419 1277.11 494.546C1272.96 507.344 1277.11 518.163 1265.7 530.957C1256.36 540.798 1241.83 546.705 1227.31 544.733C1203.45 540.798 1183.74 515.214 1184.78 493.572C1168.18 507.348 1164.03 520.138 1140.17 521.116C1120.47 521.116 1100.75 515.218 1087.27 502.427C1058.22 474.871 1072.74 436.493 1092.45 411.894" fill="#936037"/>
<path d="M1225.97 438.381C1218.48 438.381 1218.48 449.396 1225.97 449.396C1233.46 449.396 1233.46 438.381 1225.97 438.381Z" fill="#7D4E24"/>
<path d="M1143.13 491.259C1135.64 491.259 1135.64 502.274 1143.13 502.274C1150.62 502.27 1150.62 491.259 1143.13 491.259Z" fill="#7D4E24"/>
<path d="M1320.42 437.643C1312.93 437.643 1312.93 448.658 1320.42 448.658C1327.91 448.658 1327.91 437.643 1320.42 437.643Z" fill="#7D4E24"/>
<path d="M1145.46 430.303C1137.97 430.303 1137.97 441.319 1145.46 441.319C1152.95 441.319 1152.95 430.303 1145.46 430.303Z" fill="#7D4E24"/>
<path d="M1270.1 473.63C1262.61 473.63 1262.61 484.646 1270.1 484.646C1277.59 484.646 1277.59 473.63 1270.1 473.63Z" fill="#7D4E24"/>
<path d="M1221.33 518.426C1213.84 518.426 1213.84 529.441 1221.33 529.441C1228.82 529.441 1228.82 518.426 1221.33 518.426Z" fill="#7D4E24"/>
<path d="M1085.07 461.142C1077.58 461.142 1077.58 472.158 1085.07 472.158C1092.55 472.158 1092.55 461.142 1085.07 461.142Z" fill="#7D4E24"/>
<path fill-rule="evenodd" clip-rule="evenodd" d="M1250.53 516.784C1258.2 512.382 1259.03 500.338 1252.36 489.896C1245.7 479.45 1234.08 474.553 1226.41 478.959C1218.73 483.362 1217.92 495.406 1224.58 505.848C1231.23 516.286 1242.85 521.183 1250.53 516.784Z" fill="#683C11"/>
<path fill-rule="evenodd" clip-rule="evenodd" d="M1250.33 516.895C1251.71 516.106 1247.43 506.995 1240.76 496.553C1234.1 486.111 1227.59 478.288 1226.21 479.07C1224.83 479.859 1229.12 488.966 1235.78 499.412C1242.44 509.854 1248.95 517.684 1250.33 516.895Z" fill="#7D4E24"/>
<path fill-rule="evenodd" clip-rule="evenodd" d="M1104.09 481.807C1096.42 477.401 1095.6 465.356 1102.26 454.914C1108.92 444.48 1120.54 439.583 1128.21 443.977C1135.88 448.384 1136.71 460.424 1130.05 470.87C1123.39 481.312 1111.76 486.209 1104.09 481.807Z" fill="#683C11"/>
<path fill-rule="evenodd" clip-rule="evenodd" d="M1104.28 481.916C1102.9 481.127 1107.19 472.016 1113.85 461.574C1120.52 451.132 1127.03 443.31 1128.4 444.099C1129.79 444.888 1125.5 453.987 1118.84 464.441C1112.18 474.879 1105.66 482.705 1104.28 481.916Z" fill="#7D4E24"/>
<path fill-rule="evenodd" clip-rule="evenodd" d="M1178.63 481.736C1185.37 484.037 1193.68 478.457 1197.17 469.264C1200.64 460.078 1198 450.763 1191.24 448.454C1184.49 446.153 1176.19 451.741 1172.71 460.927C1169.23 470.112 1171.88 479.435 1178.63 481.736Z" fill="#683C11"/>
<path fill-rule="evenodd" clip-rule="evenodd" d="M1178.46 481.681C1179.66 482.089 1183.47 474.978 1186.96 465.792C1190.44 456.599 1192.28 448.816 1191.07 448.4C1189.86 447.987 1186.05 455.103 1182.57 464.288C1179.09 473.482 1177.24 481.269 1178.46 481.681Z" fill="#7D4E24"/>
<path fill-rule="evenodd" clip-rule="evenodd" d="M1304.38 468.239C1308.57 462.717 1305.2 453.614 1296.85 447.904C1288.5 442.194 1278.33 442.045 1274.14 447.559C1269.95 453.084 1273.31 462.191 1281.67 467.901C1290.02 473.607 1300.19 473.76 1304.38 468.239Z" fill="#683C11"/>
<path fill-rule="evenodd" clip-rule="evenodd" d="M1304.28 468.38C1305.03 467.386 1298.87 461.955 1290.52 456.245C1282.16 450.543 1274.78 446.714 1274.03 447.7C1273.28 448.693 1279.44 454.124 1287.8 459.834C1296.15 465.544 1303.52 469.365 1304.28 468.38Z" fill="#7D4E24"/>
<path opacity="0.4" fill-rule="evenodd" clip-rule="evenodd" d="M1162.45 420.832C1162.45 501.127 1304.86 566.233 1211.22 566.233C1117.58 566.233 1041.68 501.127 1041.68 420.832" fill="white"/>
<path fill-rule="evenodd" clip-rule="evenodd" d="M1099.23 -81.9995L1323.21 -81.9995L1378.49 356.507L1043.95 356.507L1099.23 -81.9995Z" fill="#95E3DC"/>
<path fill-rule="evenodd" clip-rule="evenodd" d="M1113.79 -50.0142L1308.66 -50.0142L1356.75 350.942L1065.7 350.942L1113.79 -50.0142Z" fill="#7D4E24"/>
<path opacity="0.4" fill-rule="evenodd" clip-rule="evenodd" d="M1272.96 -81.9995L1323.21 -81.9995L1378.49 356.507L1328.24 356.507L1272.96 -81.9995Z" fill="white"/>
<path d="M1032.38 425.233L1390.06 425.233L1390.06 389.988L1032.38 389.988L1032.38 425.233Z" fill="#D9D9D9"/>
<path d="M1032.38 425.233L1133.95 425.233L1133.95 389.988L1032.38 389.988L1032.38 425.233Z" fill="#C5C5C5"/>
<path d="M1023.09 394.395L1399.35 394.395L1399.35 345.928L1023.09 345.928L1023.09 394.395Z" fill="#C5C5C5"/>
<path d="M1023.09 394.395L1116.16 394.395L1116.16 345.928L1023.09 345.928L1023.09 394.395Z" fill="#B1B1B1"/>
<path fill-rule="evenodd" clip-rule="evenodd" d="M1211.23 109.576C1252.79 109.576 1286.6 141.648 1286.6 181.075C1286.6 220.502 1252.79 252.574 1211.23 252.574C1169.66 252.574 1135.85 220.502 1135.85 181.075C1135.85 141.648 1169.66 109.576 1211.23 109.576Z" fill="white"/>
<path d="M1211.23 248.49C1171.97 248.49 1140.16 218.303 1140.16 181.075C1140.16 143.847 1171.97 113.66 1211.23 113.66C1250.47 113.66 1282.29 143.847 1282.29 181.075C1282.29 218.307 1250.47 248.49 1211.23 248.49ZM1211.23 256.662C1255.16 256.662 1290.91 222.752 1290.91 181.075C1290.91 139.397 1255.16 105.488 1211.23 105.488C1167.29 105.488 1131.54 139.397 1131.54 181.075C1131.54 222.752 1167.29 256.662 1211.23 256.662Z" fill="#3AA970"/>
<path fill-rule="evenodd" clip-rule="evenodd" d="M1156.87 181.075C1156.87 152.612 1181.22 129.525 1211.23 129.525C1241.23 129.525 1265.57 152.612 1265.57 181.075C1265.57 209.542 1241.23 232.633 1211.23 232.633C1181.21 232.633 1156.87 209.542 1156.87 181.075Z" fill="#088F4A"/>
<path fill-rule="evenodd" clip-rule="evenodd" d="M1211.23 162.779C1221.86 162.779 1230.52 170.986 1230.52 181.075C1230.52 191.163 1221.87 199.371 1211.23 199.371C1200.58 199.371 1191.92 191.163 1191.92 181.075C1191.92 170.986 1200.58 162.779 1211.23 162.779Z" fill="white"/>
<path d="M1211.23 197.851C1201.47 197.851 1193.53 190.327 1193.53 181.075C1193.53 171.827 1201.47 164.303 1211.23 164.303C1220.98 164.303 1228.91 171.827 1228.91 181.075C1228.91 190.327 1220.97 197.851 1211.23 197.851ZM1211.23 200.899C1222.77 200.899 1232.13 192.028 1232.13 181.075C1232.13 170.131 1222.77 161.251 1211.23 161.251C1199.68 161.251 1190.32 170.131 1190.32 181.075C1190.32 192.028 1199.68 200.899 1211.23 200.899Z" fill="white"/>
<path d="M1284.88 297.704C1269.9 297.704 1269.9 319.734 1284.88 319.734C1299.87 319.738 1299.87 297.704 1284.88 297.704Z" fill="#683C11"/>
<path d="M1115.97 235.401C1101 235.401 1101 257.428 1115.97 257.428C1130.94 257.428 1130.94 235.401 1115.97 235.401Z" fill="#683C11"/>
<path d="M1261.44 44.2222C1246.47 44.2222 1246.47 66.2527 1261.44 66.2527C1276.42 66.2527 1276.42 44.2222 1261.44 44.2222Z" fill="#683C11"/>
<path d="M1139.43 77.9315C1128.2 77.9315 1128.2 94.4526 1139.43 94.4526C1150.66 94.4566 1150.66 77.9316 1139.43 77.9315Z" fill="#683C11"/>
<path d="M1153.51 302.683C1142.27 302.683 1142.27 319.204 1153.51 319.204C1164.74 319.204 1164.74 302.683 1153.51 302.683Z" fill="#683C11"/>
<path d="M1179.57 42.6709C1172.08 42.6709 1172.08 53.6902 1179.57 53.6902C1187.06 53.6902 1187.06 42.6709 1179.57 42.6709Z" fill="#683C11"/>
<path d="M1280.19 245.352C1272.7 245.352 1272.7 256.367 1280.19 256.367C1287.68 256.367 1287.68 245.352 1280.19 245.352Z" fill="#683C11"/>
<path d="M1209.81 289.858C1202.32 289.858 1202.32 300.873 1209.81 300.873C1217.3 300.873 1217.3 289.858 1209.81 289.858Z" fill="#683C11"/>
<path d="M1099.55 292.092C1092.06 292.092 1092.06 303.107 1099.55 303.107C1107.04 303.103 1107.04 292.092 1099.55 292.092Z" fill="#683C11"/>
<path d="M1113.62 160.788C1106.13 160.788 1106.13 171.807 1113.62 171.807C1121.11 171.807 1121.11 160.788 1113.62 160.788Z" fill="#683C11"/>
<path d="M1209.81 -3.88359C1202.32 -3.88359 1202.32 7.1355 1209.81 7.1355C1217.3 7.13157 1217.3 -3.88359 1209.81 -3.88359Z" fill="#683C11"/>
<path d="M1270.81 87.3605C1263.32 87.3605 1263.32 98.3757 1270.81 98.3757C1278.3 98.3757 1278.3 87.3605 1270.81 87.3605Z" fill="#683C11"/>
<path fill-rule="evenodd" clip-rule="evenodd" d="M590.041 420.828C590.041 501.132 514.137 566.226 420.501 566.226C326.856 566.226 250.952 501.128 250.952 420.828" fill="#BFEEEA"/>
<path d="M409.728 675L431.261 675L431.261 234.39L409.729 234.39L409.728 675Z" fill="#088F4A"/>
<path fill-rule="evenodd" clip-rule="evenodd" d="M426.934 548.236C409.645 505.212 443.134 503.162 479.853 503.162C493.892 503.162 513.329 506.237 523.054 493.942C530.61 484.721 530.61 465.259 523.054 457.063C535.123 455.975 544.649 458.088 553.294 447.843C560.857 437.597 561.938 418.135 552.213 409.939C530.61 388.423 469.047 393.548 442.054 393.548C399.933 393.548 314.221 393.575 296.249 402.768C262.217 420.181 295.168 461.163 323.25 463.209C291.935 489.842 329.734 515.458 358.888 520.578C392.373 525.703 397.772 536.966 425.854 550.286" fill="#D5B185"/>
<path d="M387.409 528.55C383.464 501.045 474.649 516.019 491.867 512.971C504.805 510.678 513.607 492.634 503.944 482.844C490.555 469.28 466.547 469.598 448.653 470.678C414.026 472.771 380.578 487.411 345.528 480.684C340.498 479.718 335.733 477.864 331.137 475.74C315.21 468.373 329.924 455.496 340.808 453.152C353.862 450.34 368.162 451.946 381.447 451.608C415.868 450.736 450.471 453.564 484.622 457.397C500.619 459.187 522.533 460.852 530.821 444.669C534.08 438.308 524.064 432.719 520.794 439.109C511.607 457.047 451.315 443.075 435.579 441.995C405.741 439.949 372.323 437.373 342.514 441.814C325.788 444.308 306.483 452.547 311.497 471.789C315.769 488.2 343.297 491.829 357.418 493.282C392.663 496.918 427.713 481.528 462.903 481.194C469.503 481.131 475.924 482.2 482.304 483.629C496.363 486.774 495.962 502.38 480.784 503.252C471.411 503.79 461.487 502.592 452.081 502.047C428.284 500.664 370.928 494.707 376.206 531.479C377.216 538.489 388.403 535.493 387.409 528.55Z" fill="#B17F4A"/>
<path opacity="0.4" fill-rule="evenodd" clip-rule="evenodd" d="M371.723 420.828C371.723 501.132 514.137 566.226 420.501 566.226C326.857 566.226 250.952 501.128 250.952 420.828" fill="white"/>
<path fill-rule="evenodd" clip-rule="evenodd" d="M308.504 -82.0001L532.49 -82.0001L587.764 356.5L253.225 356.5L308.504 -82.0001Z" fill="#95E3DC"/>
<path fill-rule="evenodd" clip-rule="evenodd" d="M323.06 -50.0108L517.929 -50.0108L566.024 350.948L274.973 350.947L323.06 -50.0108Z" fill="#CA9E67"/>
<path opacity="0.4" fill-rule="evenodd" clip-rule="evenodd" d="M482.234 -82.0001L532.49 -82.0001L587.764 356.5L537.508 356.5L482.234 -82.0001Z" fill="white"/>
<path d="M241.658 425.235L599.335 425.235L599.335 389.986L241.658 389.986L241.658 425.235Z" fill="#D9D9D9"/>
<path d="M241.658 425.235L343.227 425.235L343.227 389.986L241.658 389.986L241.658 425.235Z" fill="#C5C5C5"/>
<path d="M232.364 394.396L608.622 394.396L608.622 345.925L232.364 345.925L232.364 394.396Z" fill="#C5C5C5"/>
<path d="M232.364 394.396L325.428 394.396L325.428 345.925L232.364 345.925L232.364 394.396Z" fill="#B1B1B1"/>
<path fill-rule="evenodd" clip-rule="evenodd" d="M420.501 109.579C462.059 109.579 495.871 141.654 495.871 181.077C495.871 220.505 462.059 252.58 420.501 252.58C378.935 252.58 345.123 220.505 345.123 181.077C345.123 141.65 378.935 109.579 420.501 109.579Z" fill="white"/>
<path d="M420.501 248.497C381.253 248.497 349.428 218.314 349.428 181.078C349.428 143.842 381.253 113.667 420.501 113.667C459.745 113.667 491.565 143.846 491.565 181.078C491.565 218.31 459.741 248.497 420.501 248.497ZM420.501 256.669C464.435 256.669 500.181 222.759 500.181 181.078C500.181 139.401 464.435 105.495 420.501 105.495C376.562 105.495 340.813 139.401 340.813 181.078C340.813 222.755 376.562 256.669 420.501 256.669Z" fill="#3AA970"/>
<path fill-rule="evenodd" clip-rule="evenodd" d="M366.146 181.078C366.146 152.611 390.486 129.528 420.501 129.528C450.504 129.528 474.844 152.611 474.844 181.078C474.844 209.548 450.504 232.631 420.501 232.631C390.486 232.627 366.146 209.548 366.146 181.078Z" fill="#088F4A"/>
<path fill-rule="evenodd" clip-rule="evenodd" d="M420.501 162.778C431.137 162.778 439.789 170.985 439.789 181.078C439.789 191.17 431.137 199.382 420.501 199.382C409.857 199.382 401.2 191.17 401.2 181.078C401.2 170.985 409.857 162.778 420.501 162.778Z" fill="white"/>
<path d="M420.501 197.854C410.747 197.854 402.806 190.326 402.806 181.078C402.806 171.83 410.747 164.305 420.501 164.305C430.255 164.305 438.187 171.83 438.187 181.078C438.183 190.326 430.251 197.854 420.501 197.854ZM420.501 200.901C432.039 200.901 441.4 192.022 441.4 181.074C441.4 170.129 432.039 161.25 420.501 161.25C408.954 161.25 399.59 170.129 399.59 181.074C399.59 192.026 408.954 200.901 420.501 200.901Z" fill="white"/>
<path d="M494.037 300.442C479.058 300.442 479.058 322.473 494.037 322.473C509.007 322.473 509.007 300.442 494.037 300.442Z" fill="#B17F4A"/>
<path d="M329.805 238.137C314.834 238.137 314.834 260.164 329.804 260.164C344.787 260.164 344.787 238.137 329.805 238.137Z" fill="#B17F4A"/>
<path d="M470.596 44.7361C455.617 44.7361 455.617 66.7666 470.596 66.7666C485.574 66.7666 485.574 44.7361 470.596 44.7361Z" fill="#B17F4A"/>
<path d="M353.274 76.215C342.038 76.2149 342.038 92.7358 353.274 92.7358C364.502 92.7358 364.502 76.215 353.274 76.215Z" fill="#B17F4A"/>
<path d="M390.808 292.067C379.572 292.067 379.572 308.592 390.808 308.592C402.04 308.592 402.04 292.067 390.808 292.067Z" fill="#B17F4A"/>
<path d="M384.027 38.7357C376.537 38.7357 376.537 49.7549 384.027 49.7549C391.516 49.7549 391.516 38.7357 384.027 38.7357Z" fill="#B17F4A"/>
<path d="M496.38 248.096C488.891 248.096 488.891 259.111 496.38 259.111C503.87 259.111 503.87 248.096 496.38 248.096Z" fill="#B17F4A"/>
<path d="M442.422 277.022C434.933 277.022 434.933 288.037 442.422 288.037C449.912 288.037 449.912 277.022 442.422 277.022Z" fill="#B17F4A"/>
<path d="M315.736 297.05C308.243 297.05 308.243 308.066 315.736 308.066C323.226 308.066 323.226 297.05 315.736 297.05Z" fill="#B17F4A"/>
<path d="M325.122 150.176C317.633 150.176 317.633 161.192 325.122 161.192C332.612 161.192 332.612 150.176 325.122 150.176Z" fill="#B17F4A"/>
<path d="M418.957 -1.1427C411.467 -1.1427 411.467 9.87646 418.957 9.87646C426.446 9.87646 426.446 -1.1427 418.957 -1.1427Z" fill="#B17F4A"/>
<path d="M482.308 92.3197C474.815 92.3197 474.815 103.339 482.308 103.339C489.797 103.339 489.797 92.3197 482.308 92.3197Z" fill="#B17F4A"/>
<path fill-rule="evenodd" clip-rule="evenodd" d="M646.312 172.169C646.312 91.865 722.217 26.7668 815.853 26.7668C909.497 26.7668 985.401 91.865 985.401 172.169" fill="#BFEEEA"/>
<path d="M826.621 -81.9998H805.088V358.608H826.621V-81.9998Z" fill="#088F4A"/>
<path fill-rule="evenodd" clip-rule="evenodd" d="M691.953 172.215C643.133 135.172 709.312 73.612 747.856 114.622C743.368 99.2162 743.993 90.8515 751.711 76.2273C762.317 56.1131 789.302 47.8821 812.437 50.6271C845.206 56.1092 862.557 83.5395 859.663 112.792C868.34 89.0217 897.259 85.3617 896.294 113.703C943.86 77.272 990.754 169.474 933.886 174.964" fill="#ADD685"/>
<path d="M721.48 158.448C728.977 158.448 728.977 147.432 721.48 147.432C713.99 147.432 713.99 158.448 721.48 158.448Z" fill="#61BA8D"/>
<path d="M932.06 150.374C939.554 150.374 939.554 139.354 932.06 139.354C924.575 139.358 924.575 150.374 932.06 150.374Z" fill="#61BA8D"/>
<path d="M830.649 84.2819C838.139 84.2819 838.139 73.2666 830.649 73.2666C823.16 73.2705 823.16 84.2819 830.649 84.2819Z" fill="#61BA8D"/>
<path d="M782.645 98.6001C797.62 98.6001 797.62 76.5696 782.645 76.5696C767.666 76.5657 767.666 98.6001 782.645 98.6001Z" fill="#61BA8D"/>
<path d="M887.165 158.817C902.14 158.817 902.14 136.786 887.165 136.786C872.183 136.782 872.183 158.817 887.165 158.817Z" fill="#61BA8D"/>
<path d="M811.29 158.817C826.265 158.817 826.265 136.786 811.29 136.786C796.312 136.782 796.312 158.817 811.29 158.817Z" fill="#61BA8D"/>
<path d="M855.419 138.624C862.917 138.624 862.917 127.604 855.419 127.604C847.926 127.604 847.926 138.624 855.419 138.624Z" fill="#61BA8D"/>
<path d="M767.166 126.14C774.655 126.14 774.655 115.125 767.166 115.125C759.676 115.125 759.676 126.14 767.166 126.14Z" fill="#61BA8D"/>
<path d="M823.682 116.412C834.914 116.412 834.914 99.8914 823.682 99.8914C812.445 99.8914 812.445 116.412 823.682 116.412Z" fill="#81C8A4"/>
<path d="M710.653 136.24C721.885 136.24 721.885 119.715 710.653 119.715C699.409 119.715 699.409 136.24 710.653 136.24Z" fill="#81C8A4"/>
<path d="M765.613 160.474C776.849 160.474 776.849 143.953 765.613 143.953C754.381 143.953 754.381 160.474 765.613 160.474Z" fill="#81C8A4"/>
<path d="M909.613 127.604C917.102 127.604 917.102 116.589 909.613 116.589C902.124 116.593 902.124 127.604 909.613 127.604Z" fill="#81C8A4"/>
<path opacity="0.4" fill-rule="evenodd" clip-rule="evenodd" d="M864.627 172.169C864.627 91.865 722.217 26.7668 815.853 26.7668C909.497 26.7668 985.401 91.865 985.401 172.169" fill="white"/>
<path fill-rule="evenodd" clip-rule="evenodd" d="M927.85 675H703.863L648.589 236.493H983.124L927.85 675Z" fill="#95E3DC"/>
<path fill-rule="evenodd" clip-rule="evenodd" d="M913.289 643.014H718.42L670.329 242.058H961.376L913.289 643.014Z" fill="#99CC66"/>
<path opacity="0.4" fill-rule="evenodd" clip-rule="evenodd" d="M754.116 675H703.863L648.589 236.493H698.837L754.116 675Z" fill="white"/>
<path d="M994.696 167.766H637.018V203.011H994.696V167.766Z" fill="#D9D9D9"/>
<path d="M994.696 167.766H893.127V203.011H994.696V167.766Z" fill="#C5C5C5"/>
<path d="M1003.99 198.605H627.728V247.072H1003.99V198.605Z" fill="#C5C5C5"/>
<path d="M1003.98 198.605H910.925V247.072H1003.98V198.605Z" fill="#B1B1B1"/>
<path fill-rule="evenodd" clip-rule="evenodd" d="M815.853 483.424C774.291 483.424 740.479 451.352 740.479 411.925C740.479 372.498 774.291 340.426 815.853 340.426C857.415 340.426 891.231 372.498 891.231 411.925C891.231 451.352 857.415 483.424 815.853 483.424Z" fill="white"/>
<path d="M815.853 344.51C855.101 344.51 886.926 374.689 886.926 411.925C886.926 449.153 855.101 479.34 815.853 479.34C776.609 479.34 744.789 449.153 744.789 411.925C744.789 374.685 776.609 344.51 815.853 344.51ZM815.853 336.338C771.919 336.338 736.173 370.247 736.173 411.925C736.173 453.602 771.914 487.512 815.853 487.512C859.792 487.512 895.541 453.602 895.541 411.925C895.541 370.247 859.792 336.338 815.853 336.338Z" fill="#3AA970"/>
<path fill-rule="evenodd" clip-rule="evenodd" d="M870.204 411.925C870.204 440.388 845.864 463.475 815.853 463.475C785.846 463.475 761.506 440.388 761.506 411.925C761.506 383.458 785.846 360.367 815.853 360.367C845.864 360.367 870.204 383.458 870.204 411.925Z" fill="#088F4A"/>
<path fill-rule="evenodd" clip-rule="evenodd" d="M815.853 430.221C805.213 430.221 796.556 422.013 796.556 411.925C796.556 401.832 805.213 393.621 815.853 393.621C826.493 393.621 835.154 401.832 835.154 411.925C835.154 422.013 826.493 430.221 815.853 430.221Z" fill="white"/>
<path d="M815.853 395.141C825.607 395.141 833.543 402.669 833.543 411.921C833.543 421.169 825.607 428.693 815.853 428.693C806.099 428.693 798.166 421.169 798.166 411.921C798.166 402.669 806.099 395.141 815.853 395.141ZM815.853 392.094C804.315 392.094 794.95 400.972 794.95 411.925C794.95 422.869 804.315 431.749 815.853 431.749C827.4 431.749 836.76 422.869 836.76 411.925C836.76 400.972 827.4 392.094 815.853 392.094Z" fill="white"/>
<path d="M734.637 290.333C749.615 290.333 749.615 268.307 734.637 268.307C719.658 268.307 719.658 290.333 734.637 290.333Z" fill="#61BA8D"/>
<path d="M910.594 368.217C925.573 368.217 925.573 346.187 910.594 346.187C895.611 346.187 895.611 368.217 910.594 368.217Z" fill="#61BA8D"/>
<path d="M769.807 539.368C784.782 539.368 784.782 517.338 769.807 517.338C754.828 517.338 754.828 539.368 769.807 539.368Z" fill="#61BA8D"/>
<path d="M894.175 510.108C905.398 510.108 905.398 493.587 894.175 493.587C882.939 493.587 882.939 510.108 894.175 510.108Z" fill="#61BA8D"/>
<path d="M856.632 294.252C867.864 294.252 867.864 277.731 856.632 277.731C845.404 277.731 845.404 294.252 856.632 294.252Z" fill="#61BA8D"/>
<path d="M861.066 545.358C868.556 545.358 868.556 534.342 861.066 534.342C853.577 534.346 853.577 545.358 861.066 545.358Z" fill="#61BA8D"/>
<path d="M739.332 347.133C746.821 347.133 746.821 336.114 739.332 336.114C731.838 336.114 731.838 347.133 739.332 347.133Z" fill="#61BA8D"/>
<path d="M797.98 307.077C805.47 307.077 805.47 296.062 797.98 296.062C790.491 296.062 790.491 307.077 797.98 307.077Z" fill="#61BA8D"/>
<path d="M910.594 304.855C918.088 304.855 918.088 293.835 910.594 293.835C903.105 293.839 903.105 304.855 910.594 304.855Z" fill="#61BA8D"/>
<path d="M910.594 442.818C918.088 442.818 918.088 431.803 910.594 431.803C903.105 431.803 903.105 442.818 910.594 442.818Z" fill="#61BA8D"/>
<path d="M816.751 594.147C824.245 594.147 824.245 583.127 816.751 583.127C809.262 583.127 809.262 594.147 816.751 594.147Z" fill="#61BA8D"/>
<path d="M753.408 500.679C760.897 500.679 760.897 489.664 753.408 489.664C745.918 489.668 745.918 500.679 753.408 500.679Z" fill="#61BA8D"/>
<path fill-rule="evenodd" clip-rule="evenodd" d="M-144.416 178.23C-144.416 98.8939 -68.5132 34.5842 25.129 34.5842C118.771 34.5842 194.674 98.8977 194.674 178.23" fill="#BFEEEA"/>
<path d="M35.8888 -72.8792H14.365L14.365 362.422H35.8888L35.8888 -72.8792Z" fill="#088F4A"/>
<path fill-rule="evenodd" clip-rule="evenodd" d="M-95.9365 180.938C-112.103 163.952 -118.239 122.366 -97.0916 101.85C-76.9589 82.3316 -43.4002 87.5071 -36.3291 116.632C-33.2986 79.0183 -19.3635 55.6199 7.11586 56.3299C22.823 56.7528 35.4085 65.711 35.4085 93.6176C46.0275 71.4879 84.372 76.5664 76.829 109.354C152.599 58.4017 207.975 175.739 138.254 181.807" fill="#B17F4A"/>
<path d="M15.2632 92.6588C16.6832 94.6646 16.0788 97.3649 13.9384 98.6879L4.23841 104.666C2.08976 105.989 -0.787525 105.427 -2.19926 103.421L-13.0419 87.9645C-14.4536 85.9548 -13.8575 83.2584 -11.7171 81.9354L-2.0171 75.9568C0.131545 74.6339 3.00883 75.1925 4.41643 77.2022L15.2632 92.6588Z" fill="#7D4E24"/>
<path d="M159.384 149.574C160.423 151.766 159.368 154.342 157.029 155.316L146.405 159.731C144.062 160.705 141.322 159.712 140.274 157.516L132.272 140.604C131.232 138.404 132.292 135.832 134.631 134.858L145.25 130.447C147.594 129.473 150.338 130.466 151.378 132.666L159.384 149.574Z" fill="#7D4E24"/>
<path d="M60.0079 141.838C58.621 143.863 55.752 144.449 53.591 143.149L43.8164 137.271C41.6595 135.975 41.0302 133.279 42.4254 131.254L53.0859 115.689C54.4728 113.663 57.3417 113.078 59.5069 114.373L69.2773 120.251C71.4301 121.551 72.0553 124.243 70.6725 126.268L60.0079 141.838Z" fill="#7D4E24"/>
<path d="M20.9018 162.314C28.3951 162.314 28.3951 151.432 20.9018 151.432C13.4167 151.432 13.4167 162.314 20.9018 162.314Z" fill="#936037"/>
<path d="M117.864 126.948C125.354 126.948 125.354 116.065 117.864 116.065C110.375 116.065 110.375 126.948 117.864 126.948Z" fill="#936037"/>
<path d="M102.195 168.301C117.169 168.301 117.169 146.536 102.195 146.536C87.208 146.536 87.208 168.301 102.195 168.301Z" fill="#936037"/>
<path opacity="0.4" fill-rule="evenodd" clip-rule="evenodd" d="M73.902 178.23C73.902 98.8939 -68.5133 34.5842 25.1289 34.5842C118.771 34.5842 194.674 98.8977 194.674 178.23" fill="white"/>
<path fill-rule="evenodd" clip-rule="evenodd" d="M137.115 675H-86.8575L-142.139 241.782L192.388 241.782L137.115 675Z" fill="#95E3DC"/>
<path fill-rule="evenodd" clip-rule="evenodd" d="M122.555 643.396H-72.3097L-120.391 247.269L170.649 247.269L122.555 643.396Z" fill="#936037"/>
<path d="M203.964 173.876L-153.702 173.876V208.701L203.964 208.701V173.876Z" fill="#D9D9D9"/>
<path d="M203.96 173.876H102.402V208.701H203.96V173.876Z" fill="#C5C5C5"/>
<path d="M213.258 204.344L-163 204.344V252.231L213.258 252.231V204.344Z" fill="#C5C5C5"/>
<path d="M213.254 204.344H120.199L120.199 252.23H213.254V204.344Z" fill="#B1B1B1"/>
<path fill-rule="evenodd" clip-rule="evenodd" d="M25.1288 485.73C-16.4366 485.73 -50.252 454.04 -50.252 415.092C-50.252 376.14 -16.4366 344.451 25.1288 344.451C66.6901 344.451 100.505 376.14 100.505 415.092C100.505 454.044 66.6901 485.73 25.1288 485.73Z" fill="white"/>
<path d="M25.129 348.485C64.376 348.485 96.2 378.305 96.2 415.092C96.2 451.879 64.376 481.69 25.129 481.69C-14.1263 481.69 -45.9421 451.875 -45.9421 415.092C-45.9421 378.308 -14.1263 348.485 25.129 348.485ZM25.129 340.412C-18.8086 340.412 -54.5574 373.913 -54.5574 415.092C-54.5574 456.267 -18.8127 489.764 25.129 489.764C69.0666 489.764 104.815 456.267 104.815 415.092C104.815 373.917 69.0666 340.412 25.129 340.412Z" fill="#3AA970"/>
<path fill-rule="evenodd" clip-rule="evenodd" d="M79.4703 415.092C79.4703 443.216 55.1314 466.02 25.1289 466.02C-4.87767 466.02 -29.2249 443.216 -29.2249 415.092C-29.2249 386.964 -4.87767 364.159 25.1289 364.159C55.1314 364.163 79.4703 386.964 79.4703 415.092Z" fill="#088F4A"/>
<path fill-rule="evenodd" clip-rule="evenodd" d="M25.129 433.171C14.4892 433.171 5.83246 425.062 5.83246 415.092C5.83246 405.121 14.4892 397.008 25.129 397.008C35.7646 397.008 44.4212 405.121 44.4212 415.092C44.4212 425.062 35.7646 433.171 25.129 433.171Z" fill="white"/>
<path d="M25.1289 398.518C34.8786 398.518 42.8108 405.956 42.8108 415.092C42.8108 424.229 34.8786 431.662 25.1289 431.662C15.3752 431.662 7.4429 424.229 7.4429 415.092C7.4429 405.956 15.3752 398.518 25.1289 398.518ZM25.1289 395.508C13.5825 395.508 4.22614 404.279 4.22614 415.096C4.22614 425.909 13.5825 434.681 25.1289 434.681C36.6671 434.681 46.0275 425.909 46.0275 415.096C46.0275 404.276 36.6671 395.508 25.1289 395.508Z" fill="white"/>
<path d="M118.954 356.524C133.932 356.524 133.932 334.759 118.954 334.759C103.975 334.755 103.975 356.524 118.954 356.524Z" fill="#7D4E24"/>
<path d="M-12.437 556.386C2.5373 556.386 2.5373 534.625 -12.437 534.625C-27.4237 534.625 -27.4237 556.386 -12.437 556.386Z" fill="#7D4E24"/>
<path d="M100.191 520.891C111.423 520.891 111.423 504.565 100.191 504.565C88.9551 504.565 88.9551 520.891 100.191 520.891Z" fill="#7D4E24"/>
<path d="M62.6539 298.841C73.8856 298.841 73.8856 282.519 62.6539 282.519C51.4138 282.519 51.4138 298.841 62.6539 298.841Z" fill="#7D4E24"/>
<path d="M67.0837 553.519C74.5771 553.519 74.5771 542.637 67.0837 542.637C59.5945 542.637 59.5945 553.519 67.0837 553.519Z" fill="#7D4E24"/>
<path d="M11.0451 313.708C18.5343 313.708 18.5343 302.826 11.0451 302.826C3.55171 302.826 3.55171 313.708 11.0451 313.708Z" fill="#7D4E24"/>
<path d="M135.377 298.321C142.866 298.321 142.866 287.435 135.377 287.435C127.883 287.435 127.883 298.321 135.377 298.321Z" fill="#7D4E24"/>
<path d="M123.648 447.813C131.138 447.813 131.138 436.931 123.648 436.931C116.155 436.931 116.155 447.813 123.648 447.813Z" fill="#7D4E24"/>
<path d="M0 0H1912V590H0V0Z" fill="url(#paint0_linear_74_1288)"/>
<path d="M0 0H1916V757H0V0Z" fill="#101010" fill-opacity="0.88"/>
</g>
<defs>
<linearGradient id="paint0_linear_74_1288" x1="1953.41" y1="0.000136157" x2="150.002" y2="892.946" gradientUnits="userSpaceOnUse">
<stop stop-color="#101010"/>
<stop offset="0.489583" stop-color="#080808" stop-opacity="0"/>
<stop offset="1"/>
</linearGradient>
</defs>
</svg>
