<svg width="266" height="64" viewBox="0 0 266 64" fill="none" xmlns="http://www.w3.org/2000/svg">
<path d="M22.8552 16.675C26.0852 16.675 28.8902 17.015 31.2702 17.695C33.7069 18.375 35.5769 19.3383 36.8802 20.585C38.2402 21.775 38.9202 23.22 38.9202 24.92C38.9202 26.0533 38.5802 27.13 37.9002 28.15C37.2202 29.1133 36.2286 29.595 34.9252 29.595C34.0186 29.595 33.2536 29.4817 32.6302 29.255C32.0636 28.9717 31.5536 28.6317 31.1002 28.235C30.6469 27.8383 30.1086 27.47 29.4852 27.13C28.9186 26.79 28.0402 26.535 26.8502 26.365C25.7169 26.1383 24.8669 26.025 24.3002 26.025C21.4102 26.025 18.9452 26.6483 16.9052 27.895C14.9219 29.1417 13.3919 30.8417 12.3152 32.995C11.2386 35.0917 10.7002 37.5283 10.7002 40.305C10.7002 43.025 11.2386 45.4617 12.3152 47.615C13.4486 49.7117 14.9786 51.3833 16.9052 52.63C18.8886 53.8767 21.1552 54.5 23.7052 54.5C25.1219 54.5 26.3402 54.415 27.3602 54.245C28.3802 54.075 29.2302 53.82 29.9102 53.48C30.7036 53.0267 31.4119 52.545 32.0352 52.035C32.6586 51.525 33.5936 51.27 34.8402 51.27C36.3136 51.27 37.4469 51.7517 38.2402 52.715C39.0336 53.6217 39.4302 54.755 39.4302 56.115C39.4302 57.5317 38.6369 58.835 37.0502 60.025C35.4636 61.1583 33.3669 62.0933 30.7602 62.83C28.2102 63.51 25.4336 63.85 22.4302 63.85C17.9536 63.85 14.0719 62.83 10.7852 60.79C7.49855 58.6933 4.94855 55.86 3.13522 52.29C1.37855 48.72 0.50022 44.725 0.50022 40.305C0.50022 35.6583 1.43522 31.5783 3.30522 28.065C5.23189 24.495 7.86689 21.7183 11.2102 19.735C14.6102 17.695 18.4919 16.675 22.8552 16.675ZM90.9004 40.305C90.9004 44.9517 89.852 49.06 87.7554 52.63C85.7154 56.1433 82.9387 58.8917 79.4254 60.875C75.9687 62.8583 72.087 63.85 67.7804 63.85C63.4737 63.85 59.5637 62.8583 56.0504 60.875C52.5937 58.8917 49.817 56.1433 47.7204 52.63C45.6804 49.06 44.6604 44.9517 44.6604 40.305C44.6604 35.6583 45.6804 31.5783 47.7204 28.065C49.817 24.495 52.5937 21.7183 56.0504 19.735C59.5637 17.695 63.4737 16.675 67.7804 16.675C72.087 16.675 75.9687 17.695 79.4254 19.735C82.9387 21.7183 85.7154 24.495 87.7554 28.065C89.852 31.5783 90.9004 35.6583 90.9004 40.305ZM80.7004 40.305C80.7004 37.415 80.1054 34.9217 78.9154 32.825C77.782 30.6717 76.2237 29 74.2404 27.81C72.3137 26.62 70.1604 26.025 67.7804 26.025C65.4004 26.025 63.2187 26.62 61.2354 27.81C59.3087 29 57.7504 30.6717 56.5604 32.825C55.427 34.9217 54.8604 37.415 54.8604 40.305C54.8604 43.1383 55.427 45.6317 56.5604 47.785C57.7504 49.8817 59.3087 51.525 61.2354 52.715C63.2187 53.905 65.4004 54.5 67.7804 54.5C70.1604 54.5 72.3137 53.905 74.2404 52.715C76.2237 51.525 77.782 49.8817 78.9154 47.785C80.1054 45.6317 80.7004 43.1383 80.7004 40.305ZM123.202 0.0999992C124.449 0.0999992 125.667 0.269999 126.857 0.609998C128.047 0.949997 129.039 1.51666 129.832 2.31C130.626 3.04666 131.022 4.03833 131.022 5.285C131.022 6.70166 130.597 7.835 129.747 8.685C128.954 9.47833 128.019 9.875 126.942 9.875C126.432 9.875 125.667 9.76167 124.647 9.535C123.627 9.25167 122.636 9.11 121.672 9.11C120.256 9.11 119.151 9.42167 118.357 10.045C117.621 10.6683 117.111 11.405 116.827 12.255C116.544 13.0483 116.402 13.7567 116.402 14.38V57.815C116.402 59.2883 115.921 60.535 114.957 61.555C113.994 62.5183 112.776 63 111.302 63C109.829 63 108.611 62.5183 107.647 61.555C106.684 60.535 106.202 59.2883 106.202 57.815V14.465C106.202 10.4417 107.619 7.04166 110.452 4.265C113.286 1.48833 117.536 0.0999992 123.202 0.0999992ZM124.137 18.375C125.497 18.375 126.631 18.8283 127.537 19.735C128.444 20.585 128.897 21.69 128.897 23.05C128.897 24.41 128.444 25.5433 127.537 26.45C126.631 27.3 125.497 27.725 124.137 27.725H101.612C100.252 27.725 99.119 27.3 98.2124 26.45C97.3057 25.5433 96.8524 24.41 96.8524 23.05C96.8524 21.69 97.3057 20.585 98.2124 19.735C99.119 18.8283 100.252 18.375 101.612 18.375H124.137ZM160.347 0.0999992C161.594 0.0999992 162.812 0.269999 164.002 0.609998C165.192 0.949997 166.184 1.51666 166.977 2.31C167.771 3.04666 168.167 4.03833 168.167 5.285C168.167 6.70166 167.742 7.835 166.892 8.685C166.099 9.47833 165.164 9.875 164.087 9.875C163.577 9.875 162.812 9.76167 161.792 9.535C160.772 9.25167 159.781 9.11 158.817 9.11C157.401 9.11 156.296 9.42167 155.502 10.045C154.766 10.6683 154.256 11.405 153.972 12.255C153.689 13.0483 153.547 13.7567 153.547 14.38V57.815C153.547 59.2883 153.066 60.535 152.102 61.555C151.139 62.5183 149.921 63 148.447 63C146.974 63 145.756 62.5183 144.792 61.555C143.829 60.535 143.347 59.2883 143.347 57.815V14.465C143.347 10.4417 144.764 7.04166 147.597 4.265C150.431 1.48833 154.681 0.0999992 160.347 0.0999992ZM161.282 18.375C162.642 18.375 163.776 18.8283 164.682 19.735C165.589 20.585 166.042 21.69 166.042 23.05C166.042 24.41 165.589 25.5433 164.682 26.45C163.776 27.3 162.642 27.725 161.282 27.725H138.757C137.397 27.725 136.264 27.3 135.357 26.45C134.451 25.5433 133.997 24.41 133.997 23.05C133.997 21.69 134.451 20.585 135.357 19.735C136.264 18.8283 137.397 18.375 138.757 18.375H161.282ZM195.539 63.85C190.723 63.85 186.529 62.8583 182.959 60.875C179.446 58.835 176.726 56.0867 174.799 52.63C172.929 49.1733 171.994 45.2633 171.994 40.9C171.994 35.8 173.014 31.465 175.054 27.895C177.151 24.2683 179.871 21.4917 183.214 19.565C186.558 17.6383 190.099 16.675 193.839 16.675C196.729 16.675 199.449 17.27 201.999 18.46C204.606 19.65 206.901 21.2933 208.884 23.39C210.868 25.43 212.426 27.81 213.559 30.53C214.749 33.25 215.344 36.14 215.344 39.2C215.288 40.56 214.749 41.665 213.729 42.515C212.709 43.365 211.519 43.79 210.159 43.79H177.689L175.139 35.29H206.334L204.464 36.99V34.695C204.351 33.0517 203.756 31.5783 202.679 30.275C201.659 28.9717 200.356 27.9517 198.769 27.215C197.239 26.4217 195.596 26.025 193.839 26.025C192.139 26.025 190.553 26.2517 189.079 26.705C187.606 27.1583 186.331 27.9233 185.254 29C184.178 30.0767 183.328 31.5217 182.704 33.335C182.081 35.1483 181.769 37.4433 181.769 40.22C181.769 43.28 182.393 45.8867 183.639 48.04C184.943 50.1367 186.586 51.7517 188.569 52.885C190.609 53.9617 192.763 54.5 195.029 54.5C197.126 54.5 198.798 54.33 200.044 53.99C201.291 53.65 202.283 53.2533 203.019 52.8C203.813 52.29 204.521 51.865 205.144 51.525C206.164 51.015 207.128 50.76 208.034 50.76C209.281 50.76 210.301 51.185 211.094 52.035C211.944 52.885 212.369 53.8767 212.369 55.01C212.369 56.54 211.576 57.9283 209.989 59.175C208.516 60.4217 206.448 61.5267 203.784 62.49C201.121 63.3967 198.373 63.85 195.539 63.85ZM245.676 63.85C240.859 63.85 236.666 62.8583 233.096 60.875C229.583 58.835 226.863 56.0867 224.936 52.63C223.066 49.1733 222.131 45.2633 222.131 40.9C222.131 35.8 223.151 31.465 225.191 27.895C227.288 24.2683 230.008 21.4917 233.351 19.565C236.694 17.6383 240.236 16.675 243.976 16.675C246.866 16.675 249.586 17.27 252.136 18.46C254.743 19.65 257.038 21.2933 259.021 23.39C261.004 25.43 262.563 27.81 263.696 30.53C264.886 33.25 265.481 36.14 265.481 39.2C265.424 40.56 264.886 41.665 263.866 42.515C262.846 43.365 261.656 43.79 260.296 43.79H227.826L225.276 35.29H256.471L254.601 36.99V34.695C254.488 33.0517 253.893 31.5783 252.816 30.275C251.796 28.9717 250.493 27.9517 248.906 27.215C247.376 26.4217 245.733 26.025 243.976 26.025C242.276 26.025 240.689 26.2517 239.216 26.705C237.743 27.1583 236.468 27.9233 235.391 29C234.314 30.0767 233.464 31.5217 232.841 33.335C232.218 35.1483 231.906 37.4433 231.906 40.22C231.906 43.28 232.529 45.8867 233.776 48.04C235.079 50.1367 236.723 51.7517 238.706 52.885C240.746 53.9617 242.899 54.5 245.166 54.5C247.263 54.5 248.934 54.33 250.181 53.99C251.428 53.65 252.419 53.2533 253.156 52.8C253.949 52.29 254.658 51.865 255.281 51.525C256.301 51.015 257.264 50.76 258.171 50.76C259.418 50.76 260.438 51.185 261.231 52.035C262.081 52.885 262.506 53.8767 262.506 55.01C262.506 56.54 261.713 57.9283 260.126 59.175C258.653 60.4217 256.584 61.5267 253.921 62.49C251.258 63.3967 248.509 63.85 245.676 63.85Z" fill="white"/>
</svg>
