<svg width="194" height="410" viewBox="0 0 194 410" fill="none" xmlns="http://www.w3.org/2000/svg">
<path fill-rule="evenodd" clip-rule="evenodd" d="M10.0857 137.516C10.0857 94.1381 48.9767 58.9762 96.953 58.9762C144.934 58.9762 183.825 94.1402 183.825 137.516" fill="#BFEEEA"/>
<path d="M102.472 0.219727H91.4398V238.224H102.472V0.219727Z" fill="#088F4A"/>
<path fill-rule="evenodd" clip-rule="evenodd" d="M93.6565 68.6937C102.515 91.9341 85.3561 93.0414 66.5427 93.0414C59.3496 93.0414 49.3903 91.3805 44.4075 98.0221C40.5362 103.003 40.5362 113.516 44.4075 117.943C38.224 118.53 33.343 117.389 28.9138 122.923C25.0383 128.458 24.4846 138.971 29.4675 143.398C40.5361 155.02 72.0792 152.252 85.9097 152.252C107.491 152.252 151.408 152.237 160.616 147.271C178.053 137.866 161.17 115.728 146.781 114.623C162.826 100.237 143.459 86.3998 128.521 83.6337C111.365 80.8654 108.599 74.7817 94.2101 67.5864" fill="#D5B185"/>
<path d="M113.908 79.3275C115.93 94.1847 69.2091 86.0964 60.3868 87.7425C53.7579 88.9813 49.248 98.7285 54.199 104.017C61.0591 111.344 73.3603 111.172 82.5284 110.588C100.271 109.458 117.408 101.55 135.367 105.183C137.944 105.705 140.385 106.707 142.74 107.854C150.901 111.834 143.362 118.789 137.785 120.056C131.097 121.574 123.77 120.707 116.963 120.889C99.3265 121.36 81.5972 119.833 64.099 117.762C55.9025 116.795 44.6746 115.896 40.4278 124.637C38.7584 128.074 43.8898 131.092 45.5656 127.641C50.2727 117.951 81.1643 125.499 89.2272 126.082C104.515 127.187 121.638 128.579 136.911 126.18C145.481 124.833 155.372 120.382 152.803 109.988C150.614 101.123 136.51 99.1633 129.274 98.3785C111.216 96.4142 93.2576 104.727 75.227 104.908C71.8457 104.942 68.5557 104.365 65.2869 103.593C58.0831 101.893 58.2888 93.4635 66.0653 92.9926C70.8678 92.702 75.9525 93.349 80.772 93.6438C92.9649 94.3905 122.353 97.6085 119.648 77.7451C119.13 73.9586 113.399 75.5771 113.908 79.3275Z" fill="#B17F4A"/>
<path opacity="0.4" fill-rule="evenodd" clip-rule="evenodd" d="M121.945 137.516C121.945 94.1381 48.9767 58.9762 96.953 58.9762C144.934 58.9762 183.825 94.1402 183.825 137.516" fill="white"/>
<path fill-rule="evenodd" clip-rule="evenodd" d="M154.337 409.129H39.5732L11.2523 172.264H182.66L154.337 409.129Z" fill="#95E3DC"/>
<path fill-rule="evenodd" clip-rule="evenodd" d="M146.879 391.849H47.0336L22.391 175.263H171.517L146.879 391.849Z" fill="#CA9E67"/>
<path opacity="0.4" fill-rule="evenodd" clip-rule="evenodd" d="M65.323 409.129H39.5732L11.2523 172.264H37.0021L65.323 409.129Z" fill="white"/>
<path d="M188.587 135.135H5.32349V154.176H188.587V135.135Z" fill="#D9D9D9"/>
<path d="M188.587 135.135H136.546V154.176H188.587V135.135Z" fill="#C5C5C5"/>
<path d="M193.349 151.794H0.56543V177.976H193.349V151.794Z" fill="#C5C5C5"/>
<path d="M193.349 151.794H145.665V177.976H193.349V151.794Z" fill="#B1B1B1"/>
<path fill-rule="evenodd" clip-rule="evenodd" d="M96.953 305.644C75.6599 305.644 58.3356 288.317 58.3356 267.022C58.3356 245.725 75.6599 228.398 96.953 228.398C118.25 228.398 135.575 245.725 135.575 267.022C135.575 288.319 118.25 305.644 96.953 305.644Z" fill="white"/>
<path d="M96.953 230.604C117.062 230.604 133.368 246.908 133.368 267.022C133.368 287.136 117.062 303.435 96.953 303.435C76.8456 303.435 60.5418 287.134 60.5418 267.022C60.5418 246.911 76.8478 230.604 96.953 230.604ZM96.953 226.19C74.4423 226.19 56.1273 244.507 56.1273 267.022C56.1273 289.535 74.4423 307.85 96.953 307.85C119.466 307.85 137.783 289.535 137.783 267.022C137.783 244.509 119.466 226.19 96.953 226.19Z" fill="#3AA970"/>
<path fill-rule="evenodd" clip-rule="evenodd" d="M124.803 267.022C124.803 282.399 112.332 294.868 96.953 294.868C81.5803 294.868 69.1095 282.399 69.1095 267.022C69.1095 251.643 81.5803 239.174 96.953 239.174C112.332 239.176 124.803 251.643 124.803 267.022Z" fill="#088F4A"/>
<path fill-rule="evenodd" clip-rule="evenodd" d="M96.953 276.907C91.5035 276.907 87.0701 272.474 87.0701 267.022C87.0701 261.57 91.5035 257.135 96.953 257.135C102.407 257.135 106.842 261.57 106.842 267.022C106.842 272.474 102.407 276.907 96.953 276.907Z" fill="white"/>
<path d="M96.953 257.96C101.951 257.96 106.019 262.027 106.019 267.022C106.019 272.018 101.951 276.082 96.953 276.082C91.9554 276.082 87.891 272.018 87.891 267.022C87.8931 262.027 91.9575 257.96 96.953 257.96ZM96.953 256.314C91.0411 256.314 86.2449 261.11 86.2449 267.024C86.2449 272.936 91.0411 277.732 96.953 277.732C102.869 277.732 107.667 272.936 107.667 267.024C107.667 261.108 102.869 256.314 96.953 256.314Z" fill="white"/>
<path d="M59.2753 202.545C66.95 202.545 66.95 190.644 59.2753 190.644C51.6049 190.644 51.6049 202.545 59.2753 202.545Z" fill="#B17F4A"/>
<path d="M143.423 236.2C151.094 236.2 151.094 224.302 143.423 224.302C135.746 224.302 135.746 236.2 143.423 236.2Z" fill="#B17F4A"/>
<path d="M71.2858 340.67C78.9605 340.67 78.9605 328.77 71.2858 328.77C63.6111 328.77 63.6111 340.67 71.2858 340.67Z" fill="#B17F4A"/>
<path d="M126.591 382.851C134.264 382.851 134.264 370.953 126.591 370.953C118.916 370.953 118.916 382.851 126.591 382.851Z" fill="#B17F4A"/>
<path d="M131.398 323.666C137.155 323.666 137.155 314.742 131.398 314.742C125.645 314.742 125.645 323.666 131.398 323.666Z" fill="#B17F4A"/>
<path d="M112.167 207.069C117.924 207.069 117.924 198.143 112.167 198.143C106.412 198.143 106.412 207.069 112.167 207.069Z" fill="#B17F4A"/>
<path d="M77.3058 380.161C83.0629 380.161 83.0629 371.235 77.3058 371.235C71.553 371.235 71.553 380.161 77.3058 380.161Z" fill="#B17F4A"/>
<path d="M115.641 343.911C119.479 343.911 119.479 337.959 115.641 337.959C111.804 337.959 111.804 343.911 115.641 343.911Z" fill="#B17F4A"/>
<path d="M58.0747 230.821C61.912 230.821 61.912 224.871 58.0747 224.871C54.2373 224.871 54.2373 230.821 58.0747 230.821Z" fill="#B17F4A"/>
<path d="M85.7209 215.196C89.5582 215.196 89.5582 209.246 85.7209 209.246C81.8836 209.246 81.8836 215.196 85.7209 215.196Z" fill="#B17F4A"/>
<path d="M150.631 204.377C154.471 204.377 154.471 198.427 150.631 198.427C146.794 198.427 146.794 204.377 150.631 204.377Z" fill="#B17F4A"/>
<path d="M145.822 283.714C149.66 283.714 149.66 277.764 145.822 277.764C141.985 277.764 141.985 283.714 145.822 283.714Z" fill="#B17F4A"/>
<path d="M97.7441 365.452C101.581 365.452 101.581 359.5 97.7441 359.5C93.9068 359.5 93.9068 365.452 97.7441 365.452Z" fill="#B17F4A"/>
<path d="M65.2847 314.967C69.1242 314.967 69.1242 309.014 65.2847 309.014C61.4474 309.014 61.4474 314.967 65.2847 314.967Z" fill="#B17F4A"/>
</svg>
